 <svg version="1.1" xmlns="http://www.w3.org/2000/svg"
         width="64" height="64" viewBox="0 0 64 64"
         preserveAspectRatio="xMidYMid meet">
        <g transform="translate(0,64) scale(0.1,-0.1)" fill="#000000" stroke="none">
            <path d="M259 565 c-19 -31 -26 -35 -63 -35 -45 0 -66 -13 -66 -41 0 -9 -7 -22 -16 -30 -13 -11 -15 -31 -12 -111 1 -54 0 -98 -3 -98 -4 0 -12 7 -19 15 -7 9 -15 13 -18 10 -7 -7 29 -45 43 -45 6 0 17 -11 23 -25 11 -24 10 -25 -18 -25 -17 0 -30 -4 -30 -10 0 -5 17 -10 39 -10 54 0 68 -20 30 -45 -28 -20 -38 -35 -20 -35 5 0 14 7 21 15 16 19 49 19 112 -1 42 -14 57 -15 96 -5 89 24 112 24 133 6 10 -10 22 -15 25 -12 7 7 -35 46 -50 47 -5 0 -3 7 4 15 7 9 29 15 51 15 22 0 39 5 39 10 0 6 -13 10 -30 10 -28 0 -29 1 -18 25 6 14 17 25 23 25 14 0 50 38 43 45 -3 3 -11 -1 -18 -10 -7 -8 -15 -15 -19 -15 -3 0 -4 44 -3 98 3 80 1 100 -12 111 -9 8 -16 21 -16 30 0 28 -21 41 -66 41 -37 0 -44 4 -63 35 -18 31 -25 35 -61 35 -36 0 -43 -4 -61 -35z m115 -12 c21 -40 59 -73 103 -88 l38 -13 0 -110 c0 -107 -1 -112 -30 -152 -34 -48 -104 -93 -112 -72 -7 17 -23 15 -23 -3 0 -8 -4 -15 -10 -15 -5 0 -10 11 -10 25 0 14 -4 25 -10 25 -5 0 -10 -11 -10 -25 0 -14 -4 -25 -10 -25 -5 0 -10 7 -10 15 0 18 -16 20 -23 3 -8 -21 -78 24 -112 72 -29 40 -30 45 -30 152 l0 110 38 13 c44 15 82 48 103 88 12 22 21 27 54 27 33 0 42 -5 54 -27z m-178 -58 c-25 -19 -46 -19 -46 0 0 10 10 15 33 15 30 -1 31 -1 13 -15z m294 0 c0 -19 -21 -19 -46 0 -18 14 -17 14 14 15 22 0 32 -5 32 -15z"/>
            <path d="M279 425 c-14 -8 -32 -28 -39 -45 -11 -27 -11 -37 3 -66 9 -19 21 -34 27 -34 5 0 10 -11 10 -24 0 -24 23 -56 40 -56 17 0 40 32 40 56 0 13 5 24 10 24 6 0 18 15 27 34 14 29 14 39 3 66 -12 30 -55 60 -82 60 -7 -1 -25 -7 -39 -15z m91 -25 c28 -28 26 -76 -5 -104 -14 -14 -25 -34 -25 -50 0 -19 -5 -26 -20 -26 -15 0 -20 7 -20 26 0 16 -11 36 -25 50 -49 45 -20 124 45 124 17 0 39 -9 50 -20z"/>
        </g>
</svg>