<svg width="1140" height="300" viewBox="0 0 1140 300" fill="none" xmlns="http://www.w3.org/2000/svg">
<rect width="1140" height="300" rx="5" fill="url(#paint0_linear_641_905)"/>
<path opacity="0.5" d="M219 40C219 34.4771 223.477 30 229 30H889C894.523 30 899 34.4772 899 40V300H219V40Z" fill="#AFD4E4"/>
<path d="M221 40C221 35.5817 224.582 32 229 32H889C893.418 32 897 35.5817 897 40V300H221V40Z" fill="#EFF4FA"/>
<path d="M224 55C224 52.2386 226.239 50 229 50H889C891.761 50 894 52.2386 894 55V300H224V55Z" fill="url(#paint1_linear_641_905)"/>
<g opacity="0.9">
<path d="M356 80.8449C356 78.6358 357.791 76.8449 360 76.8449H574.249C576.458 76.8449 578.249 78.6358 578.249 80.8449V243.177C578.249 245.386 576.458 247.177 574.249 247.177H360C357.791 247.177 356 245.386 356 243.177V80.8449Z" fill="white"/>
<path fill-rule="evenodd" clip-rule="evenodd" d="M574.249 78.3449H360C358.619 78.3449 357.5 79.4642 357.5 80.8449V243.177C357.5 244.558 358.619 245.677 360 245.677H574.249C575.629 245.677 576.749 244.558 576.749 243.177V80.8449C576.749 79.4642 575.629 78.3449 574.249 78.3449ZM360 76.8449C357.791 76.8449 356 78.6358 356 80.8449V243.177C356 245.386 357.791 247.177 360 247.177H574.249C576.458 247.177 578.249 245.386 578.249 243.177V80.8449C578.249 78.6358 576.458 76.8449 574.249 76.8449H360Z" fill="#C3DDED"/>
<path d="M362.083 85.9699C362.083 85.4099 362.537 84.956 363.097 84.956H561.818C562.378 84.956 562.832 85.4099 562.832 85.9699C562.832 86.5298 562.378 86.9838 561.818 86.9838H363.097C362.537 86.9838 362.083 86.5298 362.083 85.9699Z" fill="#C3DDED"/>
<path d="M366.139 90.0254C366.139 89.4655 366.592 89.0115 367.152 89.0115H509.096C509.656 89.0115 510.11 89.4655 510.11 90.0254C510.11 90.5854 509.656 91.0393 509.096 91.0393H367.152C366.592 91.0393 366.139 90.5854 366.139 90.0254Z" fill="#C3DDED"/>
<path d="M366.139 94.0809C366.139 93.521 366.592 93.0671 367.152 93.0671H509.096C509.656 93.0671 510.11 93.521 510.11 94.0809C510.11 94.6409 509.656 95.0948 509.096 95.0948H367.152C366.592 95.0948 366.139 94.6409 366.139 94.0809Z" fill="#C3DDED"/>
<path d="M366.139 98.1365C366.139 97.5765 366.592 97.1226 367.152 97.1226H488.818C489.378 97.1226 489.832 97.5765 489.832 98.1365C489.832 98.6964 489.378 99.1503 488.818 99.1503H367.152C366.592 99.1503 366.139 98.6964 366.139 98.1365Z" fill="#C3DDED"/>
<path d="M362.083 102.192C362.083 101.632 362.537 101.178 363.097 101.178H395.541C396.101 101.178 396.555 101.632 396.555 102.192C396.555 102.752 396.101 103.206 395.541 103.206H363.097C362.537 103.206 362.083 102.752 362.083 102.192Z" fill="#C3DDED"/>
<path d="M362.083 108.275C362.083 107.715 362.537 107.261 363.097 107.261H561.818C562.378 107.261 562.832 107.715 562.832 108.275C562.832 108.835 562.378 109.289 561.818 109.289H363.097C362.537 109.289 362.083 108.835 362.083 108.275Z" fill="#C3DDED"/>
<path d="M366.139 112.331C366.139 111.771 366.592 111.317 367.152 111.317H509.096C509.656 111.317 510.11 111.771 510.11 112.331C510.11 112.891 509.656 113.345 509.096 113.345H367.152C366.592 113.345 366.139 112.891 366.139 112.331Z" fill="#C3DDED"/>
<path d="M366.139 116.386C366.139 115.826 366.592 115.372 367.152 115.372H509.096C509.656 115.372 510.11 115.826 510.11 116.386C510.11 116.946 509.656 117.4 509.096 117.4H367.152C366.592 117.4 366.139 116.946 366.139 116.386Z" fill="#C3DDED"/>
<path d="M366.139 120.442C366.139 119.882 366.592 119.428 367.152 119.428H488.818C489.378 119.428 489.832 119.882 489.832 120.442C489.832 121.002 489.378 121.456 488.818 121.456H367.152C366.592 121.456 366.139 121.002 366.139 120.442Z" fill="#C3DDED"/>
<path d="M362.083 124.497C362.083 123.937 362.537 123.484 363.097 123.484H395.541C396.101 123.484 396.555 123.937 396.555 124.497C396.555 125.057 396.101 125.511 395.541 125.511H363.097C362.537 125.511 362.083 125.057 362.083 124.497Z" fill="#C3DDED"/>
<path d="M362.083 130.581C362.083 130.021 362.537 129.567 363.097 129.567H561.818C562.378 129.567 562.832 130.021 562.832 130.581C562.832 131.141 562.378 131.595 561.818 131.595H363.097C362.537 131.595 362.083 131.141 362.083 130.581Z" fill="#C3DDED"/>
<path d="M366.139 134.636C366.139 134.076 366.592 133.622 367.152 133.622H509.096C509.656 133.622 510.11 134.076 510.11 134.636C510.11 135.196 509.656 135.65 509.096 135.65H367.152C366.592 135.65 366.139 135.196 366.139 134.636Z" fill="#C3DDED"/>
<path d="M366.139 138.692C366.139 138.132 366.592 137.678 367.152 137.678H509.096C509.656 137.678 510.11 138.132 510.11 138.692C510.11 139.252 509.656 139.706 509.096 139.706H367.152C366.592 139.706 366.139 139.252 366.139 138.692Z" fill="#C3DDED"/>
<path d="M366.139 142.747C366.139 142.187 366.592 141.733 367.152 141.733H488.818C489.378 141.733 489.832 142.187 489.832 142.747C489.832 143.307 489.378 143.761 488.818 143.761H367.152C366.592 143.761 366.139 143.307 366.139 142.747Z" fill="#C3DDED"/>
<path d="M362.083 146.803C362.083 146.243 362.537 145.789 363.097 145.789H395.541C396.101 145.789 396.555 146.243 396.555 146.803C396.555 147.363 396.101 147.817 395.541 147.817H363.097C362.537 147.817 362.083 147.363 362.083 146.803Z" fill="#C3DDED"/>
<path d="M362.083 152.886C362.083 152.326 362.537 151.872 363.097 151.872H561.818C562.378 151.872 562.832 152.326 562.832 152.886C562.832 153.446 562.378 153.9 561.818 153.9H363.097C362.537 153.9 362.083 153.446 362.083 152.886Z" fill="#C3DDED"/>
<path d="M366.139 156.942C366.139 156.382 366.592 155.928 367.152 155.928H509.096C509.656 155.928 510.11 156.382 510.11 156.942C510.11 157.502 509.656 157.956 509.096 157.956H367.152C366.592 157.956 366.139 157.502 366.139 156.942Z" fill="#C3DDED"/>
<path d="M366.139 160.997C366.139 160.437 366.592 159.983 367.152 159.983H509.096C509.656 159.983 510.11 160.437 510.11 160.997C510.11 161.557 509.656 162.011 509.096 162.011H367.152C366.592 162.011 366.139 161.557 366.139 160.997Z" fill="#C3DDED"/>
<path d="M366.139 165.053C366.139 164.493 366.592 164.039 367.152 164.039H488.818C489.378 164.039 489.832 164.493 489.832 165.053C489.832 165.613 489.378 166.067 488.818 166.067H367.152C366.592 166.067 366.139 165.613 366.139 165.053Z" fill="#C3DDED"/>
<path d="M362.083 169.108C362.083 168.548 362.537 168.094 363.097 168.094H395.541C396.101 168.094 396.555 168.548 396.555 169.108C396.555 169.668 396.101 170.122 395.541 170.122H363.097C362.537 170.122 362.083 169.668 362.083 169.108Z" fill="#C3DDED"/>
</g>
<g opacity="0.8">
<path d="M645.972 80.8449C645.972 78.6358 647.763 76.8449 649.972 76.8449H759.582C761.791 76.8449 763.582 78.6358 763.582 80.8449V269.538C763.582 271.747 761.791 273.538 759.582 273.538H649.972C647.763 273.538 645.972 271.747 645.972 269.538V80.8449Z" fill="white"/>
<path fill-rule="evenodd" clip-rule="evenodd" d="M759.582 78.3449H649.972C648.591 78.3449 647.472 79.4642 647.472 80.8449V269.538C647.472 270.919 648.591 272.038 649.972 272.038H759.582C760.963 272.038 762.082 270.919 762.082 269.538V80.8449C762.082 79.4642 760.963 78.3449 759.582 78.3449ZM649.972 76.8449C647.763 76.8449 645.972 78.6358 645.972 80.8449V269.538C645.972 271.747 647.763 273.538 649.972 273.538H759.582C761.791 273.538 763.582 271.747 763.582 269.538V80.8449C763.582 78.6358 761.791 76.8449 759.582 76.8449H649.972Z" fill="#C3DDED"/>
<rect x="652.055" y="84.956" width="10.1388" height="2.02776" fill="#C3DDED"/>
<rect x="656.11" y="89.0115" width="14.1944" height="2.02776" fill="#C3DDED"/>
<rect x="660.165" y="93.067" width="18.2499" height="2.02776" fill="#C3DDED"/>
<rect x="660.165" y="97.1226" width="14.1944" height="2.02776" fill="#C3DDED"/>
<rect x="656.11" y="101.178" width="12.1666" height="2.02776" fill="#C3DDED"/>
<rect x="656.11" y="105.234" width="8.11106" height="2.02776" fill="#C3DDED"/>
<rect x="652.055" y="109.289" width="8.11106" height="2.02776" fill="#C3DDED"/>
<rect x="652.055" y="115.372" width="10.1388" height="2.02776" fill="#C3DDED"/>
<rect x="656.11" y="119.428" width="14.1944" height="2.02776" fill="#C3DDED"/>
<rect x="662.194" y="123.484" width="34.472" height="2.02776" fill="#C3DDED"/>
<rect x="660.165" y="127.539" width="14.1944" height="2.02776" fill="#C3DDED"/>
<rect x="656.11" y="131.595" width="22.3054" height="2.02776" fill="#C3DDED"/>
<rect x="656.11" y="135.65" width="8.11106" height="2.02776" fill="#C3DDED"/>
<rect x="652.055" y="139.706" width="8.11106" height="2.02776" fill="#C3DDED"/>
<rect x="652.055" y="145.789" width="10.1388" height="2.02776" fill="#C3DDED"/>
<rect x="656.11" y="149.844" width="6.08329" height="2.02776" fill="#C3DDED"/>
<rect x="662.194" y="153.9" width="4.05553" height="2.02776" fill="#C3DDED"/>
<rect x="660.165" y="157.956" width="14.1944" height="2.02776" fill="#C3DDED"/>
<rect x="656.11" y="162.011" width="10.1388" height="2.02776" fill="#C3DDED"/>
<rect x="656.11" y="166.067" width="8.11106" height="2.02776" fill="#C3DDED"/>
<rect x="652.055" y="170.122" width="8.11106" height="2.02776" fill="#C3DDED"/>
<rect x="652.055" y="176.205" width="10.1388" height="2.02776" fill="#C3DDED"/>
<rect x="656.11" y="180.261" width="14.1944" height="2.02776" fill="#C3DDED"/>
<rect x="660.165" y="184.316" width="18.2499" height="2.02776" fill="#C3DDED"/>
<rect x="660.165" y="188.372" width="14.1944" height="2.02776" fill="#C3DDED"/>
<rect x="656.11" y="192.428" width="12.1666" height="2.02776" fill="#C3DDED"/>
<rect x="656.11" y="196.483" width="8.11106" height="2.02776" fill="#C3DDED"/>
<rect x="652.055" y="200.539" width="8.11106" height="2.02776" fill="#C3DDED"/>
<rect x="652.055" y="206.622" width="10.1388" height="2.02776" fill="#C3DDED"/>
<rect x="656.11" y="210.677" width="14.1944" height="2.02776" fill="#C3DDED"/>
<rect x="662.194" y="214.733" width="34.472" height="2.02776" fill="#C3DDED"/>
<rect x="660.165" y="218.788" width="14.1944" height="2.02776" fill="#C3DDED"/>
<rect x="656.11" y="222.844" width="22.3054" height="2.02776" fill="#C3DDED"/>
<rect x="656.11" y="226.9" width="8.11106" height="2.02776" fill="#C3DDED"/>
<rect x="652.055" y="230.955" width="8.11106" height="2.02776" fill="#C3DDED"/>
<rect x="652.055" y="237.038" width="10.1388" height="2.02776" fill="#C3DDED"/>
<rect x="656.11" y="241.094" width="6.08329" height="2.02776" fill="#C3DDED"/>
<rect x="662.194" y="245.149" width="4.05553" height="2.02776" fill="#C3DDED"/>
<rect x="660.165" y="249.205" width="14.1944" height="2.02776" fill="#C3DDED"/>
<rect x="656.11" y="253.26" width="10.1388" height="2.02776" fill="#C3DDED"/>
<rect x="656.11" y="257.316" width="8.11106" height="2.02776" fill="#C3DDED"/>
<rect x="652.055" y="261.371" width="8.11106" height="2.02776" fill="#C3DDED"/>
</g>
<g opacity="0.9">
<path fill-rule="evenodd" clip-rule="evenodd" d="M771.718 60.0869C769.509 60.0869 767.718 61.8778 767.718 64.0869V151.392C767.718 153.601 769.509 155.392 771.718 155.392H873.217C875.426 155.392 877.217 153.601 877.217 151.392V64.0869C877.217 61.8778 875.426 60.0869 873.217 60.0869H771.718Z" fill="white"/>
<path fill-rule="evenodd" clip-rule="evenodd" d="M873.217 61.5869H771.718C770.337 61.5869 769.218 62.7062 769.218 64.0869V151.392C769.218 152.773 770.337 153.892 771.718 153.892H873.217C874.598 153.892 875.717 152.773 875.717 151.392V64.0869C875.717 62.7062 874.598 61.5869 873.217 61.5869ZM767.718 64.0869C767.718 61.8778 769.509 60.0869 771.718 60.0869H873.217C875.426 60.0869 877.217 61.8778 877.217 64.0869V151.392C877.217 153.601 875.426 155.392 873.217 155.392H771.718C769.509 155.392 767.718 153.601 767.718 151.392V64.0869Z" fill="#C3DDED"/>
<rect x="773.801" y="68.1979" width="97.3327" height="2.02776" rx="1.01388" fill="#C3DDED"/>
<rect x="773.801" y="129.031" width="30.4165" height="2.02776" rx="1.01388" fill="#C3DDED"/>
<rect x="773.801" y="133.086" width="16.2221" height="2.02776" rx="1.01388" fill="#C3DDED"/>
<rect x="826.524" y="129.031" width="30.4165" height="2.02776" rx="1.01388" fill="#C3DDED"/>
<rect x="826.524" y="133.086" width="38.5275" height="2.02776" rx="1.01388" fill="#C3DDED"/>
<rect x="773.801" y="141.198" width="26.3609" height="2.02776" rx="1.01388" fill="#C3DDED"/>
<rect x="773.801" y="145.253" width="44.6108" height="2.02776" rx="1.01388" fill="#C3DDED"/>
<rect x="826.524" y="141.198" width="12.1666" height="2.02776" rx="1.01388" fill="#C3DDED"/>
<rect x="826.524" y="145.253" width="16.2221" height="2.02776" rx="1.01388" fill="#C3DDED"/>
<path opacity="0.5" d="M773.801 108.597V122.948H871.133V76.309C871.133 76.309 844.854 97.8345 804.947 97.8345C782.561 97.8345 773.801 108.597 773.801 108.597Z" fill="#3F4ECF"/>
<path opacity="0.5" d="M773.801 112.965V122.948H871.133V90.5034C871.133 90.5034 844.854 105.478 804.947 105.478C782.561 105.478 773.801 112.965 773.801 112.965Z" fill="#3F4ECF"/>
<path opacity="0.5" d="M773.801 116.708V122.948H871.133V102.67C871.133 102.67 844.854 112.029 804.947 112.029C782.561 112.029 773.801 116.708 773.801 116.708Z" fill="#3F4ECF"/>
</g>
<g opacity="0.8">
<path fill-rule="evenodd" clip-rule="evenodd" d="M246 60C243.791 60 242 61.7909 242 64V232.416C242 234.625 243.791 236.416 246 236.416H347.499C349.708 236.416 351.499 234.625 351.499 232.416V64C351.499 61.7909 349.708 60 347.499 60H246Z" fill="white"/>
<path fill-rule="evenodd" clip-rule="evenodd" d="M347.499 61.5H246C244.619 61.5 243.5 62.6193 243.5 64V232.416C243.5 233.796 244.619 234.916 246 234.916H347.499C348.88 234.916 349.999 233.796 349.999 232.416V64C349.999 62.6193 348.88 61.5 347.499 61.5ZM242 64C242 61.7909 243.791 60 246 60H347.499C349.708 60 351.499 61.7909 351.499 64V232.416C351.499 234.625 349.708 236.416 347.499 236.416H246C243.791 236.416 242 234.625 242 232.416V64Z" fill="#C3DDED"/>
<path d="M248.083 69.125C248.083 68.565 248.537 68.1111 249.097 68.1111H344.402C344.962 68.1111 345.416 68.565 345.416 69.125C345.416 69.6849 344.962 70.1388 344.402 70.1388H249.097C248.537 70.1388 248.083 69.6849 248.083 69.125Z" fill="#C3DDED"/>
<path d="M248.083 209.041C248.083 208.481 248.537 208.027 249.097 208.027H277.486C278.046 208.027 278.499 208.481 278.499 209.041C278.499 209.601 278.046 210.054 277.486 210.054H249.097C248.537 210.054 248.083 209.601 248.083 209.041Z" fill="#C3DDED"/>
<path d="M248.083 213.096C248.083 212.536 248.537 212.082 249.097 212.082H263.291C263.851 212.082 264.305 212.536 264.305 213.096C264.305 213.656 263.851 214.11 263.291 214.11H249.097C248.537 214.11 248.083 213.656 248.083 213.096Z" fill="#C3DDED"/>
<path d="M300.807 209.041C300.807 208.481 301.261 208.027 301.821 208.027H330.209C330.769 208.027 331.223 208.481 331.223 209.041C331.223 209.601 330.769 210.054 330.209 210.054H301.821C301.261 210.054 300.807 209.601 300.807 209.041Z" fill="#C3DDED"/>
<path d="M300.807 213.096C300.807 212.536 301.261 212.082 301.821 212.082H338.32C338.88 212.082 339.334 212.536 339.334 213.096C339.334 213.656 338.88 214.11 338.32 214.11H301.821C301.261 214.11 300.807 213.656 300.807 213.096Z" fill="#C3DDED"/>
<path d="M248.083 221.207C248.083 220.647 248.537 220.193 249.097 220.193H273.43C273.99 220.193 274.444 220.647 274.444 221.207C274.444 221.767 273.99 222.221 273.43 222.221H249.097C248.537 222.221 248.083 221.767 248.083 221.207Z" fill="#C3DDED"/>
<path d="M248.083 225.263C248.083 224.703 248.537 224.249 249.097 224.249H291.68C292.24 224.249 292.694 224.703 292.694 225.263C292.694 225.823 292.24 226.277 291.68 226.277H249.097C248.537 226.277 248.083 225.823 248.083 225.263Z" fill="#C3DDED"/>
<path d="M300.807 221.207C300.807 220.647 301.261 220.193 301.821 220.193H311.959C312.519 220.193 312.973 220.647 312.973 221.207C312.973 221.767 312.519 222.221 311.959 222.221H301.821C301.261 222.221 300.807 221.767 300.807 221.207Z" fill="#C3DDED"/>
<path d="M300.807 225.263C300.807 224.703 301.261 224.249 301.821 224.249H316.015C316.575 224.249 317.029 224.703 317.029 225.263C317.029 225.823 316.575 226.277 316.015 226.277H301.821C301.261 226.277 300.807 225.823 300.807 225.263Z" fill="#C3DDED"/>
<path opacity="0.5" d="M248.083 163.877V201.943H345.416V82.3054H341.36L337.305 93.1816L333.249 87.7435L329.194 104.058L325.138 98.6196L321.083 114.934L317.027 120.372L312.971 131.248L308.916 147.563L304.86 158.439L300.805 163.877L296.749 142.124L292.694 125.81L288.638 120.372L284.583 109.496L280.527 87.7435L276.472 120.372L272.416 125.81L268.361 136.686L264.305 142.124L260.25 131.248L256.194 153.001L252.139 120.372L248.083 163.877Z" fill="#CF3F6A"/>
<path opacity="0.5" d="M248.083 177.426V201.944H345.416V124.888H341.36L337.305 131.893L333.249 128.391L329.194 138.898L325.138 135.396L321.083 145.904L317.027 149.406L312.971 156.411L308.916 166.919L304.86 173.924L300.805 177.426L296.749 163.416L292.694 152.909L288.638 149.406L284.583 142.401L280.527 128.391L276.472 149.406L272.416 152.909L268.361 159.914L264.305 163.416L260.25 156.411L256.194 170.421L252.139 149.406L248.083 177.426Z" fill="#CF3F6A"/>
<path opacity="0.5" d="M248.083 187.749V201.944H345.416V157.333H341.36L337.305 161.388L333.249 159.36L329.194 165.444L325.138 163.416L321.083 169.499L317.027 171.527L312.971 175.583L308.916 181.666L304.86 185.721L300.805 187.749L296.749 179.638L292.694 173.555L288.638 171.527L284.583 167.472L280.527 159.36L276.472 171.527L272.416 173.555L268.361 177.61L264.305 179.638L260.25 175.583L256.194 183.694L252.139 171.527L248.083 187.749Z" fill="#CF3F6A"/>
</g>
<g opacity="0.8">
<path fill-rule="evenodd" clip-rule="evenodd" d="M360 60.0869C357.791 60.0869 356 61.8778 356 64.0869V68.2535C356 70.4626 357.791 72.2535 360 72.2535H759.581C761.79 72.2535 763.581 70.4626 763.581 68.2535V64.0869C763.581 61.8778 761.79 60.0869 759.581 60.0869H360Z" fill="white"/>
<path fill-rule="evenodd" clip-rule="evenodd" d="M759.581 61.5869H360C358.619 61.5869 357.5 62.7062 357.5 64.0869V68.2535C357.5 69.6342 358.619 70.7535 360 70.7535H759.581C760.961 70.7535 762.081 69.6342 762.081 68.2535V64.0869C762.081 62.7062 760.961 61.5869 759.581 61.5869ZM356 64.0869C356 61.8778 357.791 60.0869 360 60.0869H759.581C761.79 60.0869 763.581 61.8778 763.581 64.0869V68.2535C763.581 70.4626 761.79 72.2535 759.581 72.2535H360C357.791 72.2535 356 70.4626 356 68.2535V64.0869Z" fill="#C3DDED"/>
<path d="M362.083 66.1702C362.083 65.0503 362.991 64.1424 364.111 64.1424H400.611C401.73 64.1424 402.638 65.0503 402.638 66.1702C402.638 67.2901 401.73 68.1979 400.611 68.1979H364.111C362.991 68.1979 362.083 67.2901 362.083 66.1702Z" fill="#C3DDED"/>
<path d="M406.694 62.1285C406.694 61.5686 407.148 61.1146 407.708 61.1146C408.268 61.1146 408.722 61.5686 408.722 62.1285V70.2118C408.722 70.7718 408.268 71.2257 407.708 71.2257C407.148 71.2257 406.694 70.7718 406.694 70.2118V62.1285Z" fill="#C3DDED"/>
<path d="M412.777 66.1702C412.777 65.0503 413.685 64.1424 414.805 64.1424H435.083C436.202 64.1424 437.11 65.0503 437.11 66.1702C437.11 67.2901 436.202 68.1979 435.083 68.1979H414.805C413.685 68.1979 412.777 67.2901 412.777 66.1702Z" fill="#C3DDED"/>
<path d="M457.388 62.1285C457.388 61.5686 457.842 61.1146 458.402 61.1146C458.962 61.1146 459.416 61.5686 459.416 62.1285V70.2118C459.416 70.7718 458.962 71.2257 458.402 71.2257C457.842 71.2257 457.388 70.7718 457.388 70.2118V62.1285Z" fill="#C3DDED"/>
<path d="M463.471 66.1702C463.471 65.0503 464.379 64.1424 465.499 64.1424H489.832C490.952 64.1424 491.86 65.0503 491.86 66.1702C491.86 67.2901 490.952 68.1979 489.832 68.1979H465.499C464.379 68.1979 463.471 67.2901 463.471 66.1702Z" fill="#C3DDED"/>
<path d="M508.082 62.1285C508.082 61.5686 508.536 61.1146 509.096 61.1146C509.656 61.1146 510.11 61.5686 510.11 62.1285V70.2118C510.11 70.7718 509.656 71.2257 509.096 71.2257C508.536 71.2257 508.082 70.7718 508.082 70.2118V62.1285Z" fill="#C3DDED"/>
<path d="M755.469 66.1702C755.469 65.0503 756.377 64.1424 757.497 64.1424C758.617 64.1424 759.525 65.0503 759.525 66.1702C759.525 67.2901 758.617 68.1979 757.497 68.1979C756.377 68.1979 755.469 67.2901 755.469 66.1702Z" fill="#C3DDED"/>
<path d="M747.358 66.1702C747.358 65.0503 748.266 64.1424 749.386 64.1424C750.506 64.1424 751.414 65.0503 751.414 66.1702C751.414 67.2901 750.506 68.1979 749.386 68.1979C748.266 68.1979 747.358 67.2901 747.358 66.1702Z" fill="#C3DDED"/>
<path d="M739.247 66.1702C739.247 65.0503 740.155 64.1424 741.275 64.1424C742.395 64.1424 743.303 65.0503 743.303 66.1702C743.303 67.2901 742.395 68.1979 741.275 68.1979C740.155 68.1979 739.247 67.2901 739.247 66.1702Z" fill="#C3DDED"/>
</g>
<path d="M577 233C577 230.791 578.791 229 581 229H810.249C812.458 229 814.249 230.791 814.249 233V285.833C814.249 288.042 812.458 289.833 810.249 289.833H581C578.791 289.833 577 288.042 577 285.833V233Z" fill="white"/>
<path fill-rule="evenodd" clip-rule="evenodd" d="M810.249 230.5H581C579.619 230.5 578.5 231.619 578.5 233V285.833C578.5 287.214 579.619 288.333 581 288.333H810.249C811.629 288.333 812.749 287.214 812.749 285.833V233C812.749 231.619 811.629 230.5 810.249 230.5ZM581 229C578.791 229 577 230.791 577 233V285.833C577 288.042 578.791 289.833 581 289.833H810.249C812.458 289.833 814.249 288.042 814.249 285.833V233C814.249 230.791 812.458 229 810.249 229H581Z" fill="#C3DDED"/>
<path d="M586.083 238.125C586.083 237.565 586.537 237.111 587.097 237.111H785.818C786.378 237.111 786.832 237.565 786.832 238.125C786.832 238.685 786.378 239.139 785.818 239.139H587.097C586.537 239.139 586.083 238.685 586.083 238.125Z" fill="#C3DDED"/>
<path d="M590.139 242.18C590.139 241.62 590.592 241.167 591.152 241.167H733.096C733.656 241.167 734.11 241.62 734.11 242.18C734.11 242.74 733.656 243.194 733.096 243.194H591.152C590.592 243.194 590.139 242.74 590.139 242.18Z" fill="#C3DDED"/>
<path d="M590.139 246.236C590.139 245.676 590.592 245.222 591.152 245.222H733.096C733.656 245.222 734.11 245.676 734.11 246.236C734.11 246.796 733.656 247.25 733.096 247.25H591.152C590.592 247.25 590.139 246.796 590.139 246.236Z" fill="#C3DDED"/>
<path d="M590.139 250.291C590.139 249.732 590.592 249.278 591.152 249.278H712.818C713.378 249.278 713.832 249.732 713.832 250.291C713.832 250.851 713.378 251.305 712.818 251.305H591.152C590.592 251.305 590.139 250.851 590.139 250.291Z" fill="#C3DDED"/>
<path d="M586.083 254.347C586.083 253.787 586.537 253.333 587.097 253.333H619.541C620.101 253.333 620.555 253.787 620.555 254.347C620.555 254.907 620.101 255.361 619.541 255.361H587.097C586.537 255.361 586.083 254.907 586.083 254.347Z" fill="#C3DDED"/>
<path d="M586.083 260.43C586.083 259.87 586.537 259.416 587.097 259.416H785.818C786.378 259.416 786.832 259.87 786.832 260.43C786.832 260.99 786.378 261.444 785.818 261.444H587.097C586.537 261.444 586.083 260.99 586.083 260.43Z" fill="#C3DDED"/>
<path d="M590.139 264.486C590.139 263.926 590.592 263.472 591.152 263.472H733.096C733.656 263.472 734.11 263.926 734.11 264.486C734.11 265.046 733.656 265.5 733.096 265.5H591.152C590.592 265.5 590.139 265.046 590.139 264.486Z" fill="#C3DDED"/>
<path d="M590.139 268.541C590.139 267.981 590.592 267.527 591.152 267.527H733.096C733.656 267.527 734.11 267.981 734.11 268.541C734.11 269.101 733.656 269.555 733.096 269.555H591.152C590.592 269.555 590.139 269.101 590.139 268.541Z" fill="#C3DDED"/>
<path d="M590.139 272.597C590.139 272.037 590.592 271.583 591.152 271.583H712.818C713.378 271.583 713.832 272.037 713.832 272.597C713.832 273.157 713.378 273.611 712.818 273.611H591.152C590.592 273.611 590.139 273.157 590.139 272.597Z" fill="#C3DDED"/>
<path d="M586.083 276.652C586.083 276.092 586.537 275.639 587.097 275.639H619.541C620.101 275.639 620.555 276.092 620.555 276.652C620.555 277.212 620.101 277.666 619.541 277.666H587.097C586.537 277.666 586.083 277.212 586.083 276.652Z" fill="#C3DDED"/>
<path d="M397 100C397 97.7909 398.791 96 401 96H601.86C604.069 96 605.86 97.7909 605.86 100V270.443C605.86 272.652 604.069 274.443 601.86 274.443H401C398.791 274.443 397 272.652 397 270.443V100Z" fill="white"/>
<path fill-rule="evenodd" clip-rule="evenodd" d="M601.86 97.5H401C399.619 97.5 398.5 98.6193 398.5 100V270.443C398.5 271.824 399.619 272.943 401 272.943H601.86C603.24 272.943 604.36 271.824 604.36 270.443V100C604.36 98.6193 603.24 97.5 601.86 97.5ZM401 96C398.791 96 397 97.7909 397 100V270.443C397 272.652 398.791 274.443 401 274.443H601.86C604.069 274.443 605.86 272.652 605.86 270.443V100C605.86 97.7909 604.069 96 601.86 96H401Z" fill="#C3DDED"/>
<path d="M405.056 104.069C405.056 103.509 405.51 103.056 406.07 103.056H597.79C598.35 103.056 598.804 103.509 598.804 104.069C598.804 104.629 598.35 105.083 597.79 105.083H406.07C405.51 105.083 405.056 104.629 405.056 104.069Z" fill="#C3DDED"/>
<rect x="405.056" y="113.194" width="32.4442" height="2.02776" rx="1.01388" fill="#C3DDED"/>
<rect x="409.11" y="117.25" width="32.4442" height="2.02776" rx="1.01388" fill="#C3DDED"/>
<rect x="409.11" y="121.305" width="18.2499" height="2.02776" rx="1.01388" fill="#C3DDED"/>
<rect x="409.11" y="125.361" width="42.5831" height="2.02776" rx="1.01388" fill="#C3DDED"/>
<rect x="409.11" y="129.417" width="18.2499" height="2.02776" rx="1.01388" fill="#C3DDED"/>
<rect x="409.11" y="133.472" width="12.1666" height="2.02776" rx="1.01388" fill="#C3DDED"/>
<rect x="405.056" y="137.528" width="8.11106" height="2.02776" rx="1.01388" fill="#C3DDED"/>
<rect x="409.11" y="143.611" width="20.2776" height="2.02776" rx="1.01388" fill="#C3DDED"/>
<rect x="409.11" y="147.666" width="54.7496" height="2.02776" rx="1.01388" fill="#C3DDED"/>
<rect x="409.11" y="151.722" width="24.3332" height="2.02776" rx="1.01388" fill="#C3DDED"/>
<rect x="409.11" y="155.777" width="30.4165" height="2.02776" rx="1.01388" fill="#C3DDED"/>
<rect x="409.11" y="159.833" width="22.3054" height="2.02776" rx="1.01388" fill="#C3DDED"/>
<rect x="405.056" y="163.889" width="16.2221" height="2.02776" rx="1.01388" fill="#C3DDED"/>
<rect x="409.11" y="167.944" width="48.6664" height="2.02776" rx="1.01388" fill="#C3DDED"/>
<rect x="409.11" y="172" width="28.3887" height="2.02776" rx="1.01388" fill="#C3DDED"/>
<rect x="405.056" y="176.055" width="22.3054" height="2.02776" rx="1.01388" fill="#C3DDED"/>
<rect x="405.056" y="182.138" width="40.5553" height="2.02776" rx="1.01388" fill="#C3DDED"/>
<rect x="409.11" y="186.194" width="72.9995" height="2.02776" rx="1.01388" fill="#C3DDED"/>
<rect x="409.11" y="190.249" width="62.8607" height="2.02776" rx="1.01388" fill="#C3DDED"/>
<rect x="409.11" y="194.305" width="18.2499" height="2.02776" rx="1.01388" fill="#C3DDED"/>
<rect x="409.11" y="198.36" width="42.5831" height="2.02776" rx="1.01388" fill="#C3DDED"/>
<rect x="409.11" y="204.444" width="28.3887" height="2.02776" rx="1.01388" fill="#C3DDED"/>
<rect x="409.11" y="208.499" width="36.4998" height="2.02776" rx="1.01388" fill="#C3DDED"/>
<rect x="409.11" y="212.555" width="26.3609" height="2.02776" rx="1.01388" fill="#C3DDED"/>
<rect x="409.11" y="216.61" width="48.6664" height="2.02776" rx="1.01388" fill="#C3DDED"/>
<circle cx="566" cy="41" r="6" fill="url(#paint2_linear_641_905)"/>
<circle cx="566" cy="41" r="4" fill="white"/>
<rect opacity="0.2" x="416" y="113" width="310" height="110" rx="20" fill="#0078FF"/>
<rect opacity="0.2" x="421" y="118" width="300" height="100" rx="15" fill="#0078FF"/>
<rect opacity="0.2" x="426" y="123" width="290" height="90" rx="10" fill="#0078FF"/>
<rect x="432.5" y="129.5" width="277" height="77" rx="3.5" fill="#0078FF" stroke="#0078FF" stroke-width="3"/>
<path d="M495.58 175.3C494.14 175.3 492.897 174.987 491.85 174.36C490.81 173.733 490.007 172.857 489.44 171.73C488.88 170.603 488.6 169.293 488.6 167.8C488.6 166.307 488.88 164.997 489.44 163.87C490.007 162.743 490.81 161.867 491.85 161.24C492.897 160.613 494.14 160.3 495.58 160.3C497.233 160.3 498.62 160.71 499.74 161.53C500.867 162.35 501.66 163.46 502.12 164.86L499.38 165.62C499.113 164.747 498.663 164.07 498.03 163.59C497.397 163.103 496.58 162.86 495.58 162.86C494.667 162.86 493.903 163.063 493.29 163.47C492.683 163.877 492.227 164.45 491.92 165.19C491.613 165.93 491.46 166.8 491.46 167.8C491.46 168.8 491.613 169.67 491.92 170.41C492.227 171.15 492.683 171.723 493.29 172.13C493.903 172.537 494.667 172.74 495.58 172.74C496.58 172.74 497.397 172.497 498.03 172.01C498.663 171.523 499.113 170.847 499.38 169.98L502.12 170.74C501.66 172.14 500.867 173.25 499.74 174.07C498.62 174.89 497.233 175.3 495.58 175.3ZM502.931 175L507.331 160.6H511.391L515.791 175H512.991L509.071 162.3H509.591L505.731 175H502.931ZM505.571 172V169.46H513.171V172H505.571ZM517.584 175V160.6H523.664C523.804 160.6 523.99 160.607 524.224 160.62C524.464 160.627 524.677 160.647 524.864 160.68C525.724 160.813 526.427 161.097 526.974 161.53C527.527 161.963 527.934 162.51 528.194 163.17C528.454 163.823 528.584 164.553 528.584 165.36C528.584 166.167 528.45 166.9 528.184 167.56C527.924 168.213 527.517 168.757 526.964 169.19C526.417 169.623 525.717 169.907 524.864 170.04C524.677 170.067 524.464 170.087 524.224 170.1C523.984 170.113 523.797 170.12 523.664 170.12H520.304V175H517.584ZM520.304 167.58H523.544C523.684 167.58 523.837 167.573 524.004 167.56C524.17 167.547 524.324 167.52 524.464 167.48C524.83 167.38 525.114 167.213 525.314 166.98C525.514 166.74 525.65 166.477 525.724 166.19C525.804 165.897 525.844 165.62 525.844 165.36C525.844 165.1 525.804 164.827 525.724 164.54C525.65 164.247 525.514 163.983 525.314 163.75C525.114 163.51 524.83 163.34 524.464 163.24C524.324 163.2 524.17 163.173 524.004 163.16C523.837 163.147 523.684 163.14 523.544 163.14H520.304V167.58ZM533.931 175V163.14H529.391V160.6H541.191V163.14H536.651V175H533.931ZM548.978 175.3C547.538 175.3 546.295 174.987 545.248 174.36C544.208 173.733 543.405 172.857 542.838 171.73C542.278 170.603 541.998 169.293 541.998 167.8C541.998 166.307 542.278 164.997 542.838 163.87C543.405 162.743 544.208 161.867 545.248 161.24C546.295 160.613 547.538 160.3 548.978 160.3C550.632 160.3 552.018 160.71 553.138 161.53C554.265 162.35 555.058 163.46 555.518 164.86L552.778 165.62C552.512 164.747 552.062 164.07 551.428 163.59C550.795 163.103 549.978 162.86 548.978 162.86C548.065 162.86 547.302 163.063 546.688 163.47C546.082 163.877 545.625 164.45 545.318 165.19C545.012 165.93 544.858 166.8 544.858 167.8C544.858 168.8 545.012 169.67 545.318 170.41C545.625 171.15 546.082 171.723 546.688 172.13C547.302 172.537 548.065 172.74 548.978 172.74C549.978 172.74 550.795 172.497 551.428 172.01C552.062 171.523 552.512 170.847 552.778 169.98L555.518 170.74C555.058 172.14 554.265 173.25 553.138 174.07C552.018 174.89 550.632 175.3 548.978 175.3ZM557.72 175V160.6H560.44V166.52H566.88V160.6H569.6V175H566.88V169.06H560.44V175H557.72ZM571.408 175L575.808 160.6H579.868L584.268 175H581.468L577.548 162.3H578.068L574.208 175H571.408ZM574.048 172V169.46H581.648V172H574.048ZM596.244 175.3C594.804 175.3 593.561 174.987 592.514 174.36C591.474 173.733 590.671 172.857 590.104 171.73C589.544 170.603 589.264 169.293 589.264 167.8C589.264 166.307 589.544 164.997 590.104 163.87C590.671 162.743 591.474 161.867 592.514 161.24C593.561 160.613 594.804 160.3 596.244 160.3C597.897 160.3 599.284 160.71 600.404 161.53C601.531 162.35 602.324 163.46 602.784 164.86L600.044 165.62C599.777 164.747 599.327 164.07 598.694 163.59C598.061 163.103 597.244 162.86 596.244 162.86C595.331 162.86 594.567 163.063 593.954 163.47C593.347 163.877 592.891 164.45 592.584 165.19C592.277 165.93 592.124 166.8 592.124 167.8C592.124 168.8 592.277 169.67 592.584 170.41C592.891 171.15 593.347 171.723 593.954 172.13C594.567 172.537 595.331 172.74 596.244 172.74C597.244 172.74 598.061 172.497 598.694 172.01C599.327 171.523 599.777 170.847 600.044 169.98L602.784 170.74C602.324 172.14 601.531 173.25 600.404 174.07C599.284 174.89 597.897 175.3 596.244 175.3ZM604.986 175V160.6H611.066C611.206 160.6 611.393 160.607 611.626 160.62C611.866 160.627 612.079 160.647 612.266 160.68C613.126 160.813 613.829 161.097 614.376 161.53C614.929 161.963 615.336 162.51 615.596 163.17C615.856 163.823 615.986 164.553 615.986 165.36C615.986 166.567 615.686 167.6 615.086 168.46C614.486 169.313 613.546 169.84 612.266 170.04L611.066 170.12H607.706V175H604.986ZM613.106 175L610.266 169.14L613.066 168.6L616.186 175H613.106ZM607.706 167.58H610.946C611.086 167.58 611.239 167.573 611.406 167.56C611.573 167.547 611.726 167.52 611.866 167.48C612.233 167.38 612.516 167.213 612.716 166.98C612.916 166.74 613.053 166.477 613.126 166.19C613.206 165.897 613.246 165.62 613.246 165.36C613.246 165.1 613.206 164.827 613.126 164.54C613.053 164.247 612.916 163.983 612.716 163.75C612.516 163.51 612.233 163.34 611.866 163.24C611.726 163.2 611.573 163.173 611.406 163.16C611.239 163.147 611.086 163.14 610.946 163.14H607.706V167.58ZM617.384 175L621.784 160.6H625.844L630.244 175H627.444L623.524 162.3H624.044L620.184 175H617.384ZM620.024 172V169.46H627.624V172H620.024ZM637.826 175.3C636.386 175.3 635.143 174.987 634.096 174.36C633.056 173.733 632.253 172.857 631.686 171.73C631.126 170.603 630.846 169.293 630.846 167.8C630.846 166.307 631.126 164.997 631.686 163.87C632.253 162.743 633.056 161.867 634.096 161.24C635.143 160.613 636.386 160.3 637.826 160.3C639.479 160.3 640.866 160.71 641.986 161.53C643.113 162.35 643.906 163.46 644.366 164.86L641.626 165.62C641.359 164.747 640.909 164.07 640.276 163.59C639.643 163.103 638.826 162.86 637.826 162.86C636.913 162.86 636.149 163.063 635.536 163.47C634.929 163.877 634.473 164.45 634.166 165.19C633.859 165.93 633.706 166.8 633.706 167.8C633.706 168.8 633.859 169.67 634.166 170.41C634.473 171.15 634.929 171.723 635.536 172.13C636.149 172.537 636.913 172.74 637.826 172.74C638.826 172.74 639.643 172.497 640.276 172.01C640.909 171.523 641.359 170.847 641.626 169.98L644.366 170.74C643.906 172.14 643.113 173.25 641.986 174.07C640.866 174.89 639.479 175.3 637.826 175.3ZM646.568 175V160.6H649.288V167.24L654.768 160.6H658.088L652.068 167.7L658.468 175H655.028L649.288 168.44V175H646.568ZM659.869 175V160.6H669.269V163.14H662.589V166.22H668.069V168.76H662.589V172.46H669.269V175H659.869ZM671.666 175V160.6H676.326C676.439 160.6 676.672 160.603 677.026 160.61C677.379 160.617 677.719 160.64 678.046 160.68C679.206 160.82 680.189 161.223 680.996 161.89C681.802 162.557 682.416 163.403 682.836 164.43C683.256 165.457 683.466 166.58 683.466 167.8C683.466 169.02 683.256 170.143 682.836 171.17C682.416 172.197 681.802 173.043 680.996 173.71C680.189 174.377 679.206 174.78 678.046 174.92C677.719 174.96 677.379 174.983 677.026 174.99C676.672 174.997 676.439 175 676.326 175H671.666ZM674.426 172.44H676.326C676.506 172.44 676.749 172.437 677.056 172.43C677.362 172.417 677.639 172.387 677.886 172.34C678.512 172.213 679.022 171.92 679.416 171.46C679.816 171 680.109 170.447 680.296 169.8C680.489 169.153 680.586 168.487 680.586 167.8C680.586 167.08 680.486 166.397 680.286 165.75C680.092 165.103 679.796 164.557 679.396 164.11C678.996 163.663 678.492 163.38 677.886 163.26C677.639 163.207 677.362 163.177 677.056 163.17C676.749 163.163 676.506 163.16 676.326 163.16H674.426V172.44Z" fill="white"/>
<path d="M469.194 168.572L469.455 165.583L474.436 166.019C476.096 166.164 479.33 167.451 478.981 171.436L478.11 181.398C477.964 183.058 476.678 186.292 472.693 185.943L467.712 185.507L467.973 182.519L468.235 179.53C469.231 179.617 469.318 178.621 469.318 178.621L469.623 175.134C469.623 175.134 470.663 174.723 470.75 173.727C470.925 171.735 468.932 171.56 468.932 171.56L469.194 168.572Z" fill="white"/>
<path d="M470.065 158.61L470.327 155.621L471.821 155.752C475.308 156.057 477.537 159.264 477.275 162.252L476.752 168.229L473.764 167.968L474.243 162.489C474.504 159.5 472.058 158.784 471.061 158.697L470.065 158.61Z" fill="white"/>
<path d="M464.807 162.572L464.545 159.583L459.564 160.019C457.904 160.164 454.671 161.451 455.019 165.436L455.891 175.398C456.036 177.058 457.323 180.292 461.308 179.943L466.289 179.507L466.027 176.519L465.766 173.53C464.769 173.617 464.682 172.621 464.682 172.621L464.377 169.134C464.377 169.134 463.337 168.723 463.25 167.727C463.076 165.735 465.068 165.56 465.068 165.56L464.807 162.572Z" fill="white"/>
<path d="M463.935 152.61L463.674 149.621L462.18 149.752C458.693 150.057 456.464 153.264 456.725 156.252L457.248 162.229L460.237 161.968L459.757 156.489C459.496 153.5 461.943 152.784 462.939 152.697L463.935 152.61Z" fill="white"/>
<defs>
<linearGradient id="paint0_linear_641_905" x1="570" y1="0" x2="570" y2="300" gradientUnits="userSpaceOnUse">
<stop stop-color="#D5E3F4"/>
<stop offset="1" stop-color="#EFF4FA"/>
</linearGradient>
<linearGradient id="paint1_linear_641_905" x1="595" y1="50" x2="596" y2="300" gradientUnits="userSpaceOnUse">
<stop stop-color="#C4DDED"/>
<stop offset="1" stop-color="#EFF4FA"/>
</linearGradient>
<linearGradient id="paint2_linear_641_905" x1="572" y1="35" x2="560" y2="47" gradientUnits="userSpaceOnUse">
<stop stop-color="#D5E3F4"/>
<stop offset="1" stop-color="#C3DDED"/>
</linearGradient>
</defs>
</svg>
