<svg width="800" height="480" viewBox="0 0 800 480" fill="none" xmlns="http://www.w3.org/2000/svg">
<rect width="800" height="480" fill="white"/>
<path d="M359.854 75L358.414 71.472H350.23L348.79 75H345.166L352.75 57.24H355.894L363.478 75H359.854ZM351.382 68.664H357.286L354.334 61.44L351.382 68.664ZM372.738 57.24C374.61 57.24 376.114 57.768 377.25 58.824C378.386 59.88 378.954 61.264 378.954 62.976C378.954 64.768 378.37 66.216 377.202 67.32C376.05 68.408 374.522 68.952 372.618 68.952H368.922V75H365.538V57.24H372.738ZM372.378 66.144C373.322 66.144 374.074 65.872 374.634 65.328C375.194 64.768 375.474 64.024 375.474 63.096C375.474 62.184 375.186 61.448 374.61 60.888C374.05 60.328 373.306 60.048 372.378 60.048H368.922V66.144H372.378ZM381.733 75V57.24H385.117V75H381.733ZM411.291 62.064H414.843L410.091 75H406.827L403.995 66.096L401.163 75H397.899L393.147 62.064H396.723L399.771 71.28L402.651 62.064H405.339L408.243 71.28L411.291 62.064ZM422.602 75.24C420.522 75.24 418.842 74.624 417.562 73.392C416.298 72.16 415.666 70.536 415.666 68.52C415.666 66.52 416.298 64.904 417.562 63.672C418.842 62.44 420.522 61.824 422.602 61.824C424.666 61.824 426.33 62.44 427.594 63.672C428.874 64.904 429.514 66.52 429.514 68.52C429.514 70.536 428.874 72.16 427.594 73.392C426.33 74.624 424.666 75.24 422.602 75.24ZM422.602 72.432C423.658 72.432 424.506 72.072 425.146 71.352C425.802 70.632 426.13 69.688 426.13 68.52C426.13 67.352 425.802 66.408 425.146 65.688C424.506 64.968 423.658 64.608 422.602 64.608C421.53 64.608 420.666 64.968 420.01 65.688C419.37 66.392 419.05 67.336 419.05 68.52C419.05 69.704 419.37 70.656 420.01 71.376C420.666 72.08 421.53 72.432 422.602 72.432ZM435.282 63.792C436.354 62.48 437.938 61.824 440.034 61.824L439.818 64.824C438.474 64.824 437.394 65.12 436.578 65.712C435.762 66.304 435.354 67.088 435.354 68.064V75H432.09V62.064H435.234L435.282 63.792ZM450.839 75L446.231 69.552H445.127V75H441.863V56.28H445.127V66.864H446.255L450.527 62.064H454.655L448.919 68.184L454.967 75H450.839Z" fill="#3942EA"/>
<circle cx="98" cy="218" r="80" fill="#3942EA"/>
<circle cx="309" cy="218" r="80" fill="#F24444"/>
<circle cx="510" cy="218" r="80" fill="#14953D"/>
<circle cx="711" cy="218" r="80" fill="#F24444"/>
<path d="M142.688 174.75H53.3125C51.8046 174.752 50.3589 175.351 49.2927 176.418C48.2264 177.484 47.6267 178.93 47.625 180.438V240.562C47.6267 242.07 48.2264 243.516 49.2927 244.582C50.3589 245.649 51.8046 246.248 53.3125 246.25H86.2675L85.2925 251.125H78.5C78.069 251.125 77.6557 251.296 77.351 251.601C77.0462 251.906 76.875 252.319 76.875 252.75V257.625C76.875 258.056 77.0462 258.469 77.351 258.774C77.6557 259.079 78.069 259.25 78.5 259.25H117.5C117.931 259.25 118.344 259.079 118.649 258.774C118.954 258.469 119.125 258.056 119.125 257.625V252.75C119.125 252.319 118.954 251.906 118.649 251.601C118.344 251.296 117.931 251.125 117.5 251.125H110.708L109.733 246.25H142.688C144.195 246.248 145.641 245.649 146.707 244.582C147.774 243.516 148.373 242.07 148.375 240.562V180.438C148.373 178.93 147.774 177.484 146.707 176.418C145.641 175.351 144.195 174.752 142.688 174.75ZM115.875 254.375V256H80.125V254.375H115.875ZM88.6075 251.125L89.5825 246.25H106.417L107.392 251.125H88.6075ZM145.125 240.562C145.124 241.209 144.867 241.828 144.41 242.285C143.953 242.742 143.334 242.999 142.688 243H53.3125C52.6662 242.999 52.0465 242.742 51.5895 242.285C51.1325 241.828 50.8755 241.209 50.875 240.562V236.5H145.125V240.562ZM145.125 233.25H50.875V180.438C50.8755 179.791 51.1325 179.172 51.5895 178.715C52.0465 178.258 52.6662 178.001 53.3125 178H142.688C143.334 178.001 143.953 178.258 144.41 178.715C144.867 179.172 145.124 179.791 145.125 180.438V233.25Z" fill="white"/>
<path d="M99.625 238.125H96.375C95.944 238.125 95.5307 238.296 95.226 238.601C94.9212 238.906 94.75 239.319 94.75 239.75C94.75 240.181 94.9212 240.594 95.226 240.899C95.5307 241.204 95.944 241.375 96.375 241.375H99.625C100.056 241.375 100.469 241.204 100.774 240.899C101.079 240.594 101.25 240.181 101.25 239.75C101.25 239.319 101.079 238.906 100.774 238.601C100.469 238.296 100.056 238.125 99.625 238.125Z" fill="white"/>
<g clip-path="url(#clip0)">
<path d="M311.636 259H306.364C302.1 259 298.631 255.531 298.631 251.267V249.484C296.818 248.905 295.057 248.174 293.365 247.298L292.101 248.562C289.04 251.627 284.136 251.537 281.164 248.561L277.438 244.835C274.46 241.861 274.375 236.959 277.439 233.898L278.702 232.635C277.826 230.943 277.095 229.182 276.516 227.369H274.733C270.469 227.369 267 223.9 267 219.636V214.364C267 210.1 270.469 206.631 274.733 206.631H276.516C277.096 204.818 277.826 203.057 278.702 201.365L277.438 200.102C274.376 197.042 274.46 192.14 277.439 189.164L281.165 185.438C284.145 182.455 289.047 182.38 292.103 185.439L293.365 186.702C295.057 185.826 296.819 185.095 298.631 184.516V182.733C298.631 178.469 302.1 175 306.364 175H311.636C315.9 175 319.369 178.469 319.369 182.733V184.516C321.181 185.095 322.943 185.826 324.635 186.702L325.899 185.438C328.96 182.373 333.864 182.463 336.836 185.439L340.562 189.165C343.539 192.139 343.625 197.041 340.561 200.102L339.298 201.365C340.174 203.057 340.904 204.818 341.484 206.631H343.267C347.531 206.631 351 210.1 351 214.364V219.636C351 223.9 347.531 227.369 343.267 227.369H341.484C340.904 229.182 340.174 230.943 339.298 232.635L340.562 233.899C343.624 236.958 343.54 241.86 340.561 244.836L336.835 248.562C333.855 251.545 328.953 251.62 325.897 248.561L324.635 247.298C322.943 248.174 321.181 248.905 319.369 249.484V251.268C319.369 255.531 315.9 259 311.636 259ZM294.188 242.129C296.538 243.52 299.068 244.57 301.707 245.251C302.794 245.531 303.553 246.511 303.553 247.634V251.267C303.553 252.817 304.814 254.078 306.364 254.078H311.636C313.186 254.078 314.447 252.817 314.447 251.267V247.634C314.447 246.511 315.206 245.531 316.293 245.251C318.932 244.57 321.462 243.52 323.812 242.129C324.779 241.558 326.011 241.713 326.805 242.508L329.379 245.082C330.489 246.193 332.271 246.167 333.353 245.083L337.082 241.354C338.162 240.276 338.198 238.493 337.083 237.38L334.508 234.805C333.714 234.01 333.558 232.779 334.13 231.812C335.52 229.462 336.57 226.932 337.251 224.293C337.531 223.206 338.512 222.447 339.634 222.447H343.267C344.817 222.447 346.078 221.186 346.078 219.636V214.364C346.078 212.814 344.817 211.553 343.267 211.553H339.634C338.511 211.553 337.531 210.794 337.251 209.707C336.57 207.068 335.52 204.539 334.13 202.188C333.558 201.221 333.714 199.99 334.508 199.195L337.082 196.621C338.195 195.51 338.166 193.728 337.083 192.647L333.355 188.919C332.274 187.837 330.492 187.805 329.38 188.918L326.805 191.493C326.011 192.287 324.779 192.443 323.812 191.871C321.462 190.481 318.932 189.431 316.293 188.75C315.206 188.469 314.447 187.489 314.447 186.367V182.733C314.447 181.183 313.186 179.922 311.636 179.922H306.364C304.814 179.922 303.553 181.183 303.553 182.733V186.366C303.553 187.489 302.794 188.469 301.707 188.749C299.068 189.43 296.539 190.48 294.188 191.871C293.221 192.442 291.99 192.287 291.195 191.492L288.621 188.918C287.512 187.807 285.729 187.833 284.647 188.917L280.918 192.646C279.839 193.724 279.802 195.507 280.917 196.62L283.492 199.195C284.287 199.99 284.442 201.221 283.871 202.188C282.48 204.538 281.43 207.068 280.749 209.707C280.469 210.794 279.489 211.553 278.367 211.553H274.733C273.183 211.553 271.922 212.814 271.922 214.364V219.636C271.922 221.186 273.183 222.447 274.733 222.447H278.366C279.489 222.447 280.469 223.206 280.749 224.293C281.43 226.932 282.48 229.462 283.87 231.812C284.442 232.779 284.287 234.01 283.492 234.805L280.918 237.379C279.806 238.49 279.835 240.272 280.917 241.353L284.646 245.081C285.726 246.164 287.509 246.195 288.62 245.082L291.195 242.507C291.78 241.922 292.998 241.426 294.188 242.129Z" fill="white"/>
<path d="M309.001 235.278C298.923 235.278 290.725 227.079 290.725 217.001C290.725 206.923 298.923 198.725 309.001 198.725C319.079 198.725 327.278 206.923 327.278 217.001C327.278 227.079 319.079 235.278 309.001 235.278ZM309.001 203.646C301.637 203.646 295.646 209.637 295.646 217.001C295.646 224.365 301.637 230.356 309.001 230.356C316.365 230.356 322.356 224.365 322.356 217.001C322.356 209.637 316.365 203.646 309.001 203.646Z" fill="white"/>
</g>
<g clip-path="url(#clip1)">
<path d="M713.636 259H708.364C704.1 259 700.631 255.531 700.631 251.267V249.484C698.818 248.905 697.057 248.174 695.365 247.298L694.101 248.562C691.04 251.627 686.136 251.537 683.164 248.561L679.438 244.835C676.46 241.861 676.375 236.959 679.439 233.898L680.702 232.635C679.826 230.943 679.095 229.182 678.516 227.369H676.733C672.469 227.369 669 223.9 669 219.636V214.364C669 210.1 672.469 206.631 676.733 206.631H678.516C679.096 204.818 679.826 203.057 680.702 201.365L679.438 200.102C676.376 197.042 676.46 192.14 679.439 189.164L683.165 185.438C686.145 182.455 691.047 182.38 694.103 185.439L695.365 186.702C697.057 185.826 698.819 185.095 700.631 184.516V182.733C700.631 178.469 704.1 175 708.364 175H713.636C717.9 175 721.369 178.469 721.369 182.733V184.516C723.181 185.095 724.943 185.826 726.635 186.702L727.899 185.438C730.96 182.373 735.864 182.463 738.836 185.439L742.562 189.165C745.539 192.139 745.625 197.041 742.561 200.102L741.298 201.365C742.174 203.057 742.904 204.818 743.484 206.631H745.267C749.531 206.631 753 210.1 753 214.364V219.636C753 223.9 749.531 227.369 745.267 227.369H743.484C742.904 229.182 742.174 230.943 741.298 232.635L742.562 233.899C745.624 236.958 745.54 241.86 742.561 244.836L738.835 248.562C735.855 251.545 730.953 251.62 727.897 248.561L726.635 247.298C724.943 248.174 723.181 248.905 721.369 249.484V251.268C721.369 255.531 717.9 259 713.636 259ZM696.188 242.129C698.538 243.52 701.068 244.57 703.707 245.251C704.794 245.531 705.553 246.511 705.553 247.634V251.267C705.553 252.817 706.814 254.078 708.364 254.078H713.636C715.186 254.078 716.447 252.817 716.447 251.267V247.634C716.447 246.511 717.206 245.531 718.293 245.251C720.932 244.57 723.462 243.52 725.812 242.129C726.779 241.558 728.011 241.713 728.805 242.508L731.379 245.082C732.489 246.193 734.271 246.167 735.353 245.083L739.082 241.354C740.162 240.276 740.198 238.493 739.083 237.38L736.508 234.805C735.714 234.01 735.558 232.779 736.13 231.812C737.52 229.462 738.57 226.932 739.251 224.293C739.531 223.206 740.512 222.447 741.634 222.447H745.267C746.817 222.447 748.078 221.186 748.078 219.636V214.364C748.078 212.814 746.817 211.553 745.267 211.553H741.634C740.511 211.553 739.531 210.794 739.251 209.707C738.57 207.068 737.52 204.539 736.13 202.188C735.558 201.221 735.714 199.99 736.508 199.195L739.082 196.621C740.195 195.51 740.166 193.728 739.083 192.647L735.355 188.919C734.274 187.837 732.492 187.805 731.38 188.918L728.805 191.493C728.011 192.287 726.779 192.443 725.812 191.871C723.462 190.481 720.932 189.431 718.293 188.75C717.206 188.469 716.447 187.489 716.447 186.367V182.733C716.447 181.183 715.186 179.922 713.636 179.922H708.364C706.814 179.922 705.553 181.183 705.553 182.733V186.366C705.553 187.489 704.794 188.469 703.707 188.749C701.068 189.43 698.539 190.48 696.188 191.871C695.221 192.442 693.99 192.287 693.195 191.492L690.621 188.918C689.512 187.807 687.729 187.833 686.647 188.917L682.918 192.646C681.839 193.724 681.802 195.507 682.917 196.62L685.492 199.195C686.287 199.99 686.442 201.221 685.871 202.188C684.48 204.538 683.43 207.068 682.749 209.707C682.469 210.794 681.489 211.553 680.367 211.553H676.733C675.183 211.553 673.922 212.814 673.922 214.364V219.636C673.922 221.186 675.183 222.447 676.733 222.447H680.366C681.489 222.447 682.469 223.206 682.749 224.293C683.43 226.932 684.48 229.462 685.87 231.812C686.442 232.779 686.287 234.01 685.492 234.805L682.918 237.379C681.806 238.49 681.835 240.272 682.917 241.353L686.646 245.081C687.726 246.164 689.509 246.195 690.62 245.082L693.195 242.507C693.78 241.922 694.998 241.426 696.188 242.129Z" fill="white"/>
<path d="M711.001 235.278C700.923 235.278 692.725 227.079 692.725 217.001C692.725 206.923 700.923 198.725 711.001 198.725C721.079 198.725 729.278 206.923 729.278 217.001C729.278 227.079 721.079 235.278 711.001 235.278ZM711.001 203.646C703.637 203.646 697.646 209.637 697.646 217.001C697.646 224.365 703.637 230.356 711.001 230.356C718.365 230.356 724.356 224.365 724.356 217.001C724.356 209.637 718.365 203.646 711.001 203.646Z" fill="white"/>
</g>
<path d="M547.8 200.2C550.12 200.2 552 198.32 552 196V179.2C552 176.88 550.12 175 547.8 175H472.2C469.88 175 468 176.88 468 179.2V196C468 198.32 469.88 200.2 472.2 200.2H476.4V204.4H472.2C469.88 204.4 468 206.28 468 208.6V225.4C468 227.72 469.88 229.6 472.2 229.6H476.4V233.8H472.2C469.88 233.8 468 235.68 468 238V254.8C468 257.12 469.88 259 472.2 259H547.8C550.12 259 552 257.12 552 254.8V238C552 235.68 550.12 233.8 547.8 233.8H543.6V229.6H547.8C550.12 229.6 552 227.72 552 225.4V208.6C552 206.28 550.12 204.4 547.8 204.4H543.6V200.2H547.8ZM547.8 236.6C548.573 236.6 549.2 237.227 549.2 238V254.8C549.2 255.573 548.573 256.2 547.8 256.2H472.2C471.427 256.2 470.8 255.573 470.8 254.8V238C470.8 237.227 471.427 236.6 472.2 236.6H547.8ZM479.2 233.8V229.6H482V233.8H479.2ZM484.8 233.8V229.6H535.2V233.8H484.8ZM538 233.8V229.6H540.8V233.8H538ZM547.8 207.2C548.573 207.2 549.2 207.827 549.2 208.6V225.4C549.2 226.173 548.573 226.8 547.8 226.8H472.2C471.427 226.8 470.8 226.173 470.8 225.4V208.6C470.8 207.827 471.427 207.2 472.2 207.2H547.8ZM479.2 204.4V200.2H482V204.4H479.2ZM484.8 204.4V200.2H535.2V204.4H484.8ZM538 204.4V200.2H540.8V204.4H538ZM472.2 197.4C471.427 197.4 470.8 196.773 470.8 196V179.2C470.8 178.427 471.427 177.8 472.2 177.8H547.8C548.573 177.8 549.2 178.427 549.2 179.2V196C549.2 196.773 548.573 197.4 547.8 197.4H472.2Z" fill="white"/>
<path d="M512.799 186.2H484.542C483.769 184.013 481.369 182.867 479.182 183.64C476.995 184.413 475.849 186.813 476.622 189C477.395 191.187 479.795 192.333 481.982 191.559C483.178 191.136 484.119 190.196 484.542 189H512.799C513.573 189 514.199 188.373 514.199 187.6C514.199 186.826 513.573 186.2 512.799 186.2ZM480.599 189C479.826 189 479.199 188.373 479.199 187.6C479.199 186.826 479.826 186.2 480.599 186.2C481.373 186.2 481.999 186.826 481.999 187.6C481.999 188.373 481.373 189 480.599 189Z" fill="white"/>
<path d="M532.4 180.6H529.6V183.4H532.4V180.6Z" fill="white"/>
<path d="M538.001 180.6H535.201V183.4H538.001V180.6Z" fill="white"/>
<path d="M543.601 180.6H540.801V183.4H543.601V180.6Z" fill="white"/>
<path d="M526.8 180.6H524V183.4H526.8V180.6Z" fill="white"/>
<path d="M521.2 180.6H518.4V183.4H521.2V180.6Z" fill="white"/>
<path d="M532.4 186.199H529.6V188.999H532.4V186.199Z" fill="white"/>
<path d="M538.001 186.199H535.201V188.999H538.001V186.199Z" fill="white"/>
<path d="M543.601 186.199H540.801V188.999H543.601V186.199Z" fill="white"/>
<path d="M526.8 186.199H524V188.999H526.8V186.199Z" fill="white"/>
<path d="M521.2 186.199H518.4V188.999H521.2V186.199Z" fill="white"/>
<path d="M532.4 191.799H529.6V194.599H532.4V191.799Z" fill="white"/>
<path d="M538.001 191.799H535.201V194.599H538.001V191.799Z" fill="white"/>
<path d="M543.601 191.799H540.801V194.599H543.601V191.799Z" fill="white"/>
<path d="M526.8 191.799H524V194.599H526.8V191.799Z" fill="white"/>
<path d="M521.2 191.799H518.4V194.599H521.2V191.799Z" fill="white"/>
<path d="M512.799 215.6H484.542C483.769 213.413 481.369 212.267 479.182 213.04C476.995 213.814 475.849 216.213 476.622 218.4C477.395 220.587 479.795 221.733 481.982 220.96C483.178 220.537 484.119 219.596 484.542 218.4H512.799C513.573 218.4 514.199 217.773 514.199 217C514.199 216.227 513.573 215.6 512.799 215.6ZM480.599 218.4C479.826 218.4 479.199 217.773 479.199 217C479.199 216.227 479.826 215.6 480.599 215.6C481.373 215.6 481.999 216.227 481.999 217C481.999 217.773 481.373 218.4 480.599 218.4Z" fill="white"/>
<path d="M532.4 210H529.6V212.8H532.4V210Z" fill="white"/>
<path d="M538.001 210H535.201V212.8H538.001V210Z" fill="white"/>
<path d="M543.601 210H540.801V212.8H543.601V210Z" fill="white"/>
<path d="M526.8 210H524V212.8H526.8V210Z" fill="white"/>
<path d="M521.2 210H518.4V212.8H521.2V210Z" fill="white"/>
<path d="M532.4 215.6H529.6V218.4H532.4V215.6Z" fill="white"/>
<path d="M538.001 215.6H535.201V218.4H538.001V215.6Z" fill="white"/>
<path d="M543.601 215.6H540.801V218.4H543.601V215.6Z" fill="white"/>
<path d="M526.8 215.6H524V218.4H526.8V215.6Z" fill="white"/>
<path d="M521.2 215.6H518.4V218.4H521.2V215.6Z" fill="white"/>
<path d="M532.4 221.201H529.6V224.001H532.4V221.201Z" fill="white"/>
<path d="M538.001 221.201H535.201V224.001H538.001V221.201Z" fill="white"/>
<path d="M543.601 221.201H540.801V224.001H543.601V221.201Z" fill="white"/>
<path d="M526.8 221.201H524V224.001H526.8V221.201Z" fill="white"/>
<path d="M521.2 221.201H518.4V224.001H521.2V221.201Z" fill="white"/>
<path d="M512.799 245H484.542C483.769 242.813 481.369 241.667 479.182 242.441C476.995 243.214 475.849 245.613 476.622 247.8C477.395 249.987 479.795 251.133 481.982 250.36C483.178 249.937 484.119 248.996 484.542 247.8H512.799C513.573 247.8 514.199 247.174 514.199 246.4C514.199 245.627 513.573 245 512.799 245ZM480.599 247.8C479.826 247.8 479.199 247.174 479.199 246.4C479.199 245.627 479.826 245 480.599 245C481.373 245 481.999 245.627 481.999 246.4C481.999 247.174 481.373 247.8 480.599 247.8Z" fill="white"/>
<path d="M532.4 239.4H529.6V242.2H532.4V239.4Z" fill="white"/>
<path d="M538.001 239.4H535.201V242.2H538.001V239.4Z" fill="white"/>
<path d="M543.601 239.4H540.801V242.2H543.601V239.4Z" fill="white"/>
<path d="M526.8 239.4H524V242.2H526.8V239.4Z" fill="white"/>
<path d="M521.2 239.4H518.4V242.2H521.2V239.4Z" fill="white"/>
<path d="M532.4 245H529.6V247.8H532.4V245Z" fill="white"/>
<path d="M538.001 245H535.201V247.8H538.001V245Z" fill="white"/>
<path d="M543.601 245H540.801V247.8H543.601V245Z" fill="white"/>
<path d="M526.8 245H524V247.8H526.8V245Z" fill="white"/>
<path d="M521.2 245H518.4V247.8H521.2V245Z" fill="white"/>
<path d="M532.4 250.6H529.6V253.4H532.4V250.6Z" fill="white"/>
<path d="M538.001 250.6H535.201V253.4H538.001V250.6Z" fill="white"/>
<path d="M543.601 250.6H540.801V253.4H543.601V250.6Z" fill="white"/>
<path d="M526.8 250.6H524V253.4H526.8V250.6Z" fill="white"/>
<path d="M521.2 250.6H518.4V253.4H521.2V250.6Z" fill="white"/>
<path d="M79.8588 325.16C77.9815 325.16 76.4615 324.6 75.2988 323.48C74.1468 322.36 73.5708 320.883 73.5708 319.048C73.5708 317.235 74.1468 315.773 75.2988 314.664C76.4508 313.555 77.9655 313 79.8428 313C81.7841 313 83.3415 313.635 84.5148 314.904L83.0908 316.344C82.3228 315.363 81.2508 314.872 79.8748 314.872C78.6801 314.872 77.7201 315.256 76.9948 316.024C76.2695 316.792 75.9068 317.805 75.9068 319.064C75.9068 320.333 76.2748 321.357 77.0108 322.136C77.7468 322.904 78.7121 323.288 79.9068 323.288C81.4001 323.288 82.5521 322.664 83.3628 321.416L84.8828 322.776C83.7201 324.365 82.0455 325.16 79.8588 325.16ZM86.2841 325V312.52H88.4601V325H86.2841ZM92.7059 314.616C92.4713 314.851 92.1673 314.968 91.7939 314.968C91.4206 314.968 91.1113 314.851 90.8659 314.616C90.6206 314.371 90.4979 314.061 90.4979 313.688C90.4979 313.315 90.6206 313.005 90.8659 312.76C91.1113 312.515 91.4206 312.392 91.7939 312.392C92.1673 312.392 92.4713 312.515 92.7059 312.76C92.9513 313.005 93.0739 313.315 93.0739 313.688C93.0739 314.061 92.9513 314.371 92.7059 314.616ZM90.7059 325V316.376H92.8819V325H90.7059ZM103.224 320.552C103.224 320.904 103.208 321.208 103.176 321.464H96.9202C97.0909 322.787 97.7842 323.448 99.0002 323.448C99.8429 323.448 100.547 323.107 101.112 322.424L102.792 323.272C102.398 323.859 101.87 324.323 101.208 324.664C100.558 324.995 99.8322 325.16 99.0322 325.16C97.7095 325.16 96.6429 324.755 95.8322 323.944C95.0215 323.133 94.6162 322.067 94.6162 320.744C94.6162 319.389 95.0109 318.296 95.8002 317.464C96.5895 316.632 97.6295 316.216 98.9202 316.216C100.211 316.216 101.251 316.616 102.04 317.416C102.83 318.205 103.224 319.251 103.224 320.552ZM98.9202 317.928C98.3549 317.928 97.9015 318.109 97.5602 318.472C97.2189 318.824 97.0055 319.331 96.9202 319.992H100.952C100.782 318.616 100.104 317.928 98.9202 317.928ZM109.868 316.216C110.903 316.216 111.735 316.525 112.364 317.144C112.994 317.752 113.308 318.563 113.308 319.576V325H111.132V319.928C111.132 319.373 110.946 318.925 110.572 318.584C110.21 318.243 109.724 318.072 109.116 318.072C108.508 318.072 108.018 318.243 107.644 318.584C107.282 318.925 107.1 319.373 107.1 319.928V325H104.924V316.376H107.02L107.052 317.464C107.724 316.632 108.663 316.216 109.868 316.216ZM119.283 323.288C119.816 323.288 120.312 323.192 120.771 323V324.76C120.131 325.027 119.4 325.16 118.579 325.16C117.79 325.16 117.15 324.909 116.659 324.408C116.168 323.907 115.923 323.251 115.923 322.44V318.152H114.499V316.376H115.923V313.848H118.099V316.376H120.643V318.152H118.099V321.992C118.099 322.387 118.206 322.701 118.419 322.936C118.643 323.171 118.931 323.288 119.283 323.288ZM60.3143 344L59.3543 341.648H53.8983L52.9383 344H50.5223L55.5783 332.16H57.6743L62.7303 344H60.3143ZM54.6663 339.776H58.6023L56.6343 334.96L54.6663 339.776ZM68.8393 335.216C70.0233 335.216 71.0046 335.627 71.7833 336.448C72.5726 337.269 72.9673 338.336 72.9673 339.648C72.9673 340.981 72.5726 342.069 71.7833 342.912C70.994 343.744 70.0126 344.16 68.8393 344.16C67.5806 344.16 66.626 343.691 65.9753 342.752V347.52H63.7993V335.376H65.8953L65.9433 336.672C66.594 335.701 67.5593 335.216 68.8393 335.216ZM68.3433 342.288C69.0473 342.288 69.618 342.048 70.0553 341.568C70.4926 341.088 70.7113 340.453 70.7113 339.664C70.7113 338.885 70.4926 338.261 70.0553 337.792C69.618 337.312 69.0473 337.072 68.3433 337.072C67.6286 337.072 67.0526 337.312 66.6153 337.792C66.1886 338.261 65.9753 338.891 65.9753 339.68C65.9753 340.469 66.1886 341.104 66.6153 341.584C67.0526 342.053 67.6286 342.288 68.3433 342.288ZM79.7143 335.216C80.8983 335.216 81.8796 335.627 82.6583 336.448C83.4476 337.269 83.8423 338.336 83.8423 339.648C83.8423 340.981 83.4476 342.069 82.6583 342.912C81.869 343.744 80.8876 344.16 79.7143 344.16C78.4556 344.16 77.501 343.691 76.8503 342.752V347.52H74.6743V335.376H76.7703L76.8183 336.672C77.469 335.701 78.4343 335.216 79.7143 335.216ZM79.2183 342.288C79.9223 342.288 80.493 342.048 80.9303 341.568C81.3676 341.088 81.5863 340.453 81.5863 339.664C81.5863 338.885 81.3676 338.261 80.9303 337.792C80.493 337.312 79.9223 337.072 79.2183 337.072C78.5036 337.072 77.9276 337.312 77.4903 337.792C77.0636 338.261 76.8503 338.891 76.8503 339.68C76.8503 340.469 77.0636 341.104 77.4903 341.584C77.9276 342.053 78.5036 342.288 79.2183 342.288ZM85.5653 344V331.52H87.7413V344H85.5653ZM91.9872 333.616C91.7525 333.851 91.4485 333.968 91.0752 333.968C90.7019 333.968 90.3925 333.851 90.1472 333.616C89.9019 333.371 89.7792 333.061 89.7792 332.688C89.7792 332.315 89.9019 332.005 90.1472 331.76C90.3925 331.515 90.7019 331.392 91.0752 331.392C91.4485 331.392 91.7525 331.515 91.9872 331.76C92.2325 332.005 92.3552 332.315 92.3552 332.688C92.3552 333.061 92.2325 333.371 91.9872 333.616ZM89.9872 344V335.376H92.1632V344H89.9872ZM98.4734 344.16C97.0974 344.16 95.9881 343.749 95.1454 342.928C94.3028 342.107 93.8814 341.024 93.8814 339.68C93.8814 338.347 94.3081 337.269 95.1614 336.448C96.0148 335.627 97.1348 335.216 98.5214 335.216C99.6521 335.216 100.639 335.547 101.481 336.208L100.249 337.68C99.7801 337.275 99.2148 337.072 98.5534 337.072C97.8281 337.072 97.2414 337.312 96.7934 337.792C96.3561 338.272 96.1374 338.901 96.1374 339.68C96.1374 340.469 96.3561 341.104 96.7934 341.584C97.2414 342.053 97.8334 342.288 98.5694 342.288C99.3908 342.288 100.041 342.032 100.521 341.52L101.753 342.96C100.953 343.76 99.8601 344.16 98.4734 344.16ZM106.567 335.216C107.676 335.216 108.567 335.525 109.239 336.144C109.922 336.752 110.263 337.563 110.263 338.576V344H108.167L108.119 342.768C107.831 343.205 107.452 343.547 106.983 343.792C106.524 344.037 106.028 344.16 105.495 344.16C104.599 344.16 103.874 343.915 103.319 343.424C102.775 342.933 102.503 342.288 102.503 341.488C102.503 340.656 102.839 339.989 103.511 339.488C104.183 338.987 105.074 338.736 106.183 338.736C106.802 338.736 107.436 338.8 108.087 338.928V338.768C108.087 338.192 107.9 337.744 107.527 337.424C107.164 337.093 106.658 336.928 106.007 336.928C105.218 336.928 104.546 337.157 103.991 337.616L103.047 336.336C103.964 335.589 105.138 335.216 106.567 335.216ZM106.119 342.608C106.652 342.608 107.111 342.411 107.495 342.016C107.879 341.611 108.076 341.072 108.087 340.4C107.5 340.283 106.956 340.224 106.455 340.224C105.943 340.224 105.532 340.336 105.223 340.56C104.924 340.773 104.775 341.067 104.775 341.44C104.775 341.803 104.892 342.091 105.127 342.304C105.362 342.507 105.692 342.608 106.119 342.608ZM116.252 342.288C116.785 342.288 117.281 342.192 117.74 342V343.76C117.1 344.027 116.369 344.16 115.548 344.16C114.758 344.16 114.118 343.909 113.628 343.408C113.137 342.907 112.892 342.251 112.892 341.44V337.152H111.468V335.376H112.892V332.848H115.068V335.376H117.612V337.152H115.068V340.992C115.068 341.387 115.174 341.701 115.388 341.936C115.612 342.171 115.9 342.288 116.252 342.288ZM121.206 333.616C120.971 333.851 120.667 333.968 120.294 333.968C119.921 333.968 119.611 333.851 119.366 333.616C119.121 333.371 118.998 333.061 118.998 332.688C118.998 332.315 119.121 332.005 119.366 331.76C119.611 331.515 119.921 331.392 120.294 331.392C120.667 331.392 120.971 331.515 121.206 331.76C121.451 332.005 121.574 332.315 121.574 332.688C121.574 333.061 121.451 333.371 121.206 333.616ZM119.206 344V335.376H121.382V344H119.206ZM127.724 344.16C126.338 344.16 125.218 343.749 124.364 342.928C123.522 342.107 123.1 341.024 123.1 339.68C123.1 338.347 123.522 337.269 124.364 336.448C125.218 335.627 126.338 335.216 127.724 335.216C129.1 335.216 130.21 335.627 131.052 336.448C131.906 337.269 132.332 338.347 132.332 339.68C132.332 341.024 131.906 342.107 131.052 342.928C130.21 343.749 129.1 344.16 127.724 344.16ZM127.724 342.288C128.428 342.288 128.994 342.048 129.42 341.568C129.858 341.088 130.076 340.459 130.076 339.68C130.076 338.901 129.858 338.272 129.42 337.792C128.994 337.312 128.428 337.072 127.724 337.072C127.01 337.072 126.434 337.312 125.996 337.792C125.57 338.261 125.356 338.891 125.356 339.68C125.356 340.469 125.57 341.104 125.996 341.584C126.434 342.053 127.01 342.288 127.724 342.288ZM138.993 335.216C140.028 335.216 140.86 335.525 141.489 336.144C142.119 336.752 142.433 337.563 142.433 338.576V344H140.257V338.928C140.257 338.373 140.071 337.925 139.697 337.584C139.335 337.243 138.849 337.072 138.241 337.072C137.633 337.072 137.143 337.243 136.769 337.584C136.407 337.925 136.225 338.373 136.225 338.928V344H134.049V335.376H136.145L136.177 336.464C136.849 335.632 137.788 335.216 138.993 335.216Z" fill="black"/>
<path d="M304.744 325L303.784 322.648H298.328L297.368 325H294.952L300.008 313.16H302.104L307.16 325H304.744ZM299.096 320.776H303.032L301.064 315.96L299.096 320.776ZM313.333 313.16C314.581 313.16 315.584 313.512 316.341 314.216C317.098 314.92 317.477 315.843 317.477 316.984C317.477 318.179 317.088 319.144 316.309 319.88C315.541 320.605 314.522 320.968 313.253 320.968H310.789V325H308.533V313.16H313.333ZM313.093 319.096C313.722 319.096 314.224 318.915 314.597 318.552C314.97 318.179 315.157 317.683 315.157 317.064C315.157 316.456 314.965 315.965 314.581 315.592C314.208 315.219 313.712 315.032 313.093 315.032H310.789V319.096H313.093ZM319.33 325V313.16H321.586V325H319.33ZM277.209 336.528C277.923 335.653 278.979 335.216 280.377 335.216L280.233 337.216C279.337 337.216 278.617 337.413 278.073 337.808C277.529 338.203 277.257 338.725 277.257 339.376V344H275.081V335.376H277.177L277.209 336.528ZM289.334 339.552C289.334 339.904 289.318 340.208 289.286 340.464H283.03C283.2 341.787 283.894 342.448 285.11 342.448C285.952 342.448 286.656 342.107 287.222 341.424L288.902 342.272C288.507 342.859 287.979 343.323 287.318 343.664C286.667 343.995 285.942 344.16 285.142 344.16C283.819 344.16 282.752 343.755 281.942 342.944C281.131 342.133 280.726 341.067 280.726 339.744C280.726 338.389 281.12 337.296 281.91 336.464C282.699 335.632 283.739 335.216 285.03 335.216C286.32 335.216 287.36 335.616 288.15 336.416C288.939 337.205 289.334 338.251 289.334 339.552ZM285.03 336.928C284.464 336.928 284.011 337.109 283.67 337.472C283.328 337.824 283.115 338.331 283.03 338.992H287.062C286.891 337.616 286.214 336.928 285.03 336.928ZM297.626 335.376H299.722V347.52H297.546V342.72C296.895 343.68 295.94 344.16 294.682 344.16C293.498 344.16 292.511 343.744 291.722 342.912C290.943 342.069 290.554 340.981 290.554 339.648C290.554 338.336 290.943 337.269 291.722 336.448C292.511 335.627 293.498 335.216 294.682 335.216C295.972 335.216 296.938 335.707 297.578 336.688L297.626 335.376ZM295.162 342.288C295.876 342.288 296.452 342.048 296.89 341.568C297.327 341.088 297.546 340.459 297.546 339.68C297.546 338.901 297.327 338.272 296.89 337.792C296.452 337.312 295.876 337.072 295.162 337.072C294.458 337.072 293.887 337.312 293.45 337.792C293.012 338.261 292.794 338.885 292.794 339.664C292.794 340.453 293.012 341.088 293.45 341.568C293.887 342.048 294.458 342.288 295.162 342.288ZM307.685 335.376H309.861V344H307.765L307.733 342.944C307.103 343.755 306.218 344.16 305.077 344.16C304.095 344.16 303.301 343.851 302.693 343.232C302.095 342.613 301.797 341.797 301.797 340.784V335.376H303.973V340.448C303.973 341.003 304.143 341.451 304.485 341.792C304.826 342.123 305.279 342.288 305.845 342.288C306.399 342.288 306.842 342.123 307.173 341.792C307.514 341.451 307.685 341.003 307.685 340.448V335.376ZM320.193 339.552C320.193 339.904 320.177 340.208 320.145 340.464H313.889C314.06 341.787 314.753 342.448 315.969 342.448C316.812 342.448 317.516 342.107 318.081 341.424L319.761 342.272C319.366 342.859 318.838 343.323 318.177 343.664C317.526 343.995 316.801 344.16 316.001 344.16C314.678 344.16 313.612 343.755 312.801 342.944C311.99 342.133 311.585 341.067 311.585 339.744C311.585 338.389 311.98 337.296 312.769 336.464C313.558 335.632 314.598 335.216 315.889 335.216C317.18 335.216 318.22 335.616 319.009 336.416C319.798 337.205 320.193 338.251 320.193 339.552ZM315.889 336.928C315.324 336.928 314.87 337.109 314.529 337.472C314.188 337.824 313.974 338.331 313.889 338.992H317.921C317.75 337.616 317.073 336.928 315.889 336.928ZM324.773 344.16C323.376 344.16 322.282 343.819 321.493 343.136L322.325 341.824C323.05 342.251 323.877 342.464 324.805 342.464C325.21 342.464 325.536 342.389 325.781 342.24C326.026 342.08 326.149 341.867 326.149 341.6C326.149 341.163 325.658 340.816 324.677 340.56L323.957 340.368C323.146 340.155 322.533 339.877 322.117 339.536C321.701 339.195 321.493 338.704 321.493 338.064C321.493 337.211 321.802 336.523 322.421 336C323.05 335.477 323.872 335.216 324.885 335.216C326.208 335.216 327.296 335.499 328.149 336.064L327.237 337.488C326.554 337.115 325.824 336.928 325.045 336.928C324.64 336.928 324.314 336.997 324.069 337.136C323.834 337.275 323.717 337.467 323.717 337.712C323.717 337.947 323.824 338.139 324.037 338.288C324.261 338.427 324.586 338.549 325.013 338.656L325.717 338.864C326.549 339.077 327.194 339.387 327.653 339.792C328.122 340.187 328.357 340.736 328.357 341.44C328.357 342.261 328.026 342.923 327.365 343.424C326.714 343.915 325.85 344.16 324.773 344.16ZM333.986 342.288C334.519 342.288 335.015 342.192 335.474 342V343.76C334.834 344.027 334.103 344.16 333.282 344.16C332.493 344.16 331.853 343.909 331.362 343.408C330.871 342.907 330.626 342.251 330.626 341.44V337.152H329.202V335.376H330.626V332.848H332.802V335.376H335.346V337.152H332.802V340.992C332.802 341.387 332.909 341.701 333.122 341.936C333.346 342.171 333.634 342.288 333.986 342.288ZM339.804 344.16C338.407 344.16 337.314 343.819 336.524 343.136L337.356 341.824C338.082 342.251 338.908 342.464 339.836 342.464C340.242 342.464 340.567 342.389 340.812 342.24C341.058 342.08 341.18 341.867 341.18 341.6C341.18 341.163 340.69 340.816 339.708 340.56L338.988 340.368C338.178 340.155 337.564 339.877 337.148 339.536C336.732 339.195 336.524 338.704 336.524 338.064C336.524 337.211 336.834 336.523 337.452 336C338.082 335.477 338.903 335.216 339.916 335.216C341.239 335.216 342.327 335.499 343.18 336.064L342.268 337.488C341.586 337.115 340.855 336.928 340.076 336.928C339.671 336.928 339.346 336.997 339.1 337.136C338.866 337.275 338.748 337.467 338.748 337.712C338.748 337.947 338.855 338.139 339.068 338.288C339.292 338.427 339.618 338.549 340.044 338.656L340.748 338.864C341.58 339.077 342.226 339.387 342.684 339.792C343.154 340.187 343.388 340.736 343.388 341.44C343.388 342.261 343.058 342.923 342.396 343.424C341.746 343.915 340.882 344.16 339.804 344.16Z" fill="black"/>
<path d="M486.558 325.16C484.83 325.16 483.427 324.664 482.35 323.672L483.214 322.152C484.121 322.909 485.193 323.288 486.43 323.288C487.177 323.288 487.753 323.165 488.158 322.92C488.574 322.675 488.782 322.323 488.782 321.864C488.782 321.416 488.579 321.064 488.174 320.808C487.769 320.552 487.145 320.307 486.302 320.072L485.614 319.88C484.526 319.581 483.683 319.187 483.086 318.696C482.499 318.195 482.206 317.496 482.206 316.6C482.206 315.523 482.606 314.653 483.406 313.992C484.217 313.331 485.283 313 486.606 313C488.153 313 489.481 313.453 490.59 314.36L489.582 315.928C488.718 315.224 487.731 314.872 486.622 314.872C485.993 314.872 485.486 314.995 485.102 315.24C484.729 315.485 484.542 315.816 484.542 316.232C484.542 316.659 484.713 316.984 485.054 317.208C485.406 317.432 485.939 317.645 486.654 317.848L487.342 318.04C489.859 318.723 491.118 319.928 491.118 321.656C491.118 322.701 490.697 323.549 489.854 324.2C489.022 324.84 487.923 325.16 486.558 325.16ZM501.013 320.552C501.013 320.904 500.997 321.208 500.965 321.464H494.709C494.88 322.787 495.573 323.448 496.789 323.448C497.632 323.448 498.336 323.107 498.901 322.424L500.581 323.272C500.187 323.859 499.659 324.323 498.997 324.664C498.347 324.995 497.621 325.16 496.821 325.16C495.499 325.16 494.432 324.755 493.621 323.944C492.811 323.133 492.405 322.067 492.405 320.744C492.405 319.389 492.8 318.296 493.589 317.464C494.379 316.632 495.419 316.216 496.709 316.216C498 316.216 499.04 316.616 499.829 317.416C500.619 318.205 501.013 319.251 501.013 320.552ZM496.709 317.928C496.144 317.928 495.691 318.109 495.349 318.472C495.008 318.824 494.795 319.331 494.709 319.992H498.741C498.571 318.616 497.893 317.928 496.709 317.928ZM504.841 317.528C505.556 316.653 506.612 316.216 508.009 316.216L507.865 318.216C506.969 318.216 506.249 318.413 505.705 318.808C505.161 319.203 504.889 319.725 504.889 320.376V325H502.713V316.376H504.809L504.841 317.528ZM511.869 325L508.221 316.376H510.605L512.957 322.52L515.293 316.376H517.677L514.045 325H511.869ZM526.732 320.552C526.732 320.904 526.716 321.208 526.684 321.464H520.428C520.599 322.787 521.292 323.448 522.508 323.448C523.351 323.448 524.055 323.107 524.62 322.424L526.3 323.272C525.905 323.859 525.377 324.323 524.716 324.664C524.065 324.995 523.34 325.16 522.54 325.16C521.217 325.16 520.151 324.755 519.34 323.944C518.529 323.133 518.124 322.067 518.124 320.744C518.124 319.389 518.519 318.296 519.308 317.464C520.097 316.632 521.137 316.216 522.428 316.216C523.719 316.216 524.759 316.616 525.548 317.416C526.337 318.205 526.732 319.251 526.732 320.552ZM522.428 317.928C521.863 317.928 521.409 318.109 521.068 318.472C520.727 318.824 520.513 319.331 520.428 319.992H524.46C524.289 318.616 523.612 317.928 522.428 317.928ZM530.56 317.528C531.275 316.653 532.331 316.216 533.728 316.216L533.584 318.216C532.688 318.216 531.968 318.413 531.424 318.808C530.88 319.203 530.608 319.725 530.608 320.376V325H528.432V316.376H530.528L530.56 317.528ZM537.967 326.6L541.791 312.52H543.983L540.159 326.6H537.967ZM481.072 332.16C482.821 332.16 484.229 332.704 485.296 333.792C486.373 334.88 486.912 336.309 486.912 338.08C486.912 339.851 486.373 341.28 485.296 342.368C484.229 343.456 482.821 344 481.072 344H476.416V332.16H481.072ZM481.072 342.128C482.117 342.128 482.96 341.76 483.6 341.024C484.24 340.277 484.56 339.296 484.56 338.08C484.56 336.864 484.24 335.888 483.6 335.152C482.96 334.405 482.117 334.032 481.072 334.032H478.672V342.128H481.072ZM492.098 335.216C493.208 335.216 494.098 335.525 494.77 336.144C495.453 336.752 495.794 337.563 495.794 338.576V344H493.698L493.65 342.768C493.362 343.205 492.984 343.547 492.514 343.792C492.056 344.037 491.56 344.16 491.026 344.16C490.13 344.16 489.405 343.915 488.85 343.424C488.306 342.933 488.034 342.288 488.034 341.488C488.034 340.656 488.37 339.989 489.042 339.488C489.714 338.987 490.605 338.736 491.714 338.736C492.333 338.736 492.968 338.8 493.618 338.928V338.768C493.618 338.192 493.432 337.744 493.058 337.424C492.696 337.093 492.189 336.928 491.538 336.928C490.749 336.928 490.077 337.157 489.522 337.616L488.578 336.336C489.496 335.589 490.669 335.216 492.098 335.216ZM491.65 342.608C492.184 342.608 492.642 342.411 493.026 342.016C493.41 341.611 493.608 341.072 493.618 340.4C493.032 340.283 492.488 340.224 491.986 340.224C491.474 340.224 491.064 340.336 490.754 340.56C490.456 340.773 490.306 341.067 490.306 341.44C490.306 341.803 490.424 342.091 490.658 342.304C490.893 342.507 491.224 342.608 491.65 342.608ZM501.783 342.288C502.316 342.288 502.812 342.192 503.271 342V343.76C502.631 344.027 501.9 344.16 501.079 344.16C500.29 344.16 499.65 343.909 499.159 343.408C498.668 342.907 498.423 342.251 498.423 341.44V337.152H496.999V335.376H498.423V332.848H500.599V335.376H503.143V337.152H500.599V340.992C500.599 341.387 500.706 341.701 500.919 341.936C501.143 342.171 501.431 342.288 501.783 342.288ZM508.145 335.216C509.255 335.216 510.145 335.525 510.817 336.144C511.5 336.752 511.841 337.563 511.841 338.576V344H509.745L509.697 342.768C509.409 343.205 509.031 343.547 508.561 343.792C508.103 344.037 507.607 344.16 507.073 344.16C506.177 344.16 505.452 343.915 504.897 343.424C504.353 342.933 504.081 342.288 504.081 341.488C504.081 340.656 504.417 339.989 505.089 339.488C505.761 338.987 506.652 338.736 507.761 338.736C508.38 338.736 509.015 338.8 509.665 338.928V338.768C509.665 338.192 509.479 337.744 509.105 337.424C508.743 337.093 508.236 336.928 507.585 336.928C506.796 336.928 506.124 337.157 505.569 337.616L504.625 336.336C505.543 335.589 506.716 335.216 508.145 335.216ZM507.697 342.608C508.231 342.608 508.689 342.411 509.073 342.016C509.457 341.611 509.655 341.072 509.665 340.4C509.079 340.283 508.535 340.224 508.033 340.224C507.521 340.224 507.111 340.336 506.801 340.56C506.503 340.773 506.353 341.067 506.353 341.44C506.353 341.803 506.471 342.091 506.705 342.304C506.94 342.507 507.271 342.608 507.697 342.608ZM518.996 335.216C520.169 335.216 521.15 335.637 521.94 336.48C522.729 337.312 523.124 338.395 523.124 339.728C523.124 341.04 522.729 342.107 521.94 342.928C521.15 343.749 520.169 344.16 518.996 344.16C517.716 344.16 516.75 343.675 516.1 342.704L516.052 344H513.956V331.52H516.132V336.624C516.782 335.685 517.737 335.216 518.996 335.216ZM518.5 342.288C519.204 342.288 519.774 342.053 520.212 341.584C520.649 341.104 520.868 340.475 520.868 339.696C520.868 338.917 520.649 338.288 520.212 337.808C519.774 337.317 519.204 337.072 518.5 337.072C517.785 337.072 517.209 337.312 516.772 337.792C516.345 338.272 516.132 338.901 516.132 339.68C516.132 340.469 516.345 341.104 516.772 341.584C517.209 342.053 517.785 342.288 518.5 342.288ZM528.255 335.216C529.364 335.216 530.255 335.525 530.927 336.144C531.609 336.752 531.951 337.563 531.951 338.576V344H529.855L529.807 342.768C529.519 343.205 529.14 343.547 528.671 343.792C528.212 344.037 527.716 344.16 527.183 344.16C526.287 344.16 525.561 343.915 525.007 343.424C524.463 342.933 524.191 342.288 524.191 341.488C524.191 340.656 524.527 339.989 525.199 339.488C525.871 338.987 526.761 338.736 527.871 338.736C528.489 338.736 529.124 338.8 529.775 338.928V338.768C529.775 338.192 529.588 337.744 529.215 337.424C528.852 337.093 528.345 336.928 527.695 336.928C526.905 336.928 526.233 337.157 525.679 337.616L524.735 336.336C525.652 335.589 526.825 335.216 528.255 335.216ZM527.807 342.608C528.34 342.608 528.799 342.411 529.183 342.016C529.567 341.611 529.764 341.072 529.775 340.4C529.188 340.283 528.644 340.224 528.143 340.224C527.631 340.224 527.22 340.336 526.911 340.56C526.612 340.773 526.463 341.067 526.463 341.44C526.463 341.803 526.58 342.091 526.815 342.304C527.049 342.507 527.38 342.608 527.807 342.608ZM536.945 344.16C535.548 344.16 534.454 343.819 533.665 343.136L534.497 341.824C535.222 342.251 536.049 342.464 536.977 342.464C537.382 342.464 537.708 342.389 537.953 342.24C538.198 342.08 538.321 341.867 538.321 341.6C538.321 341.163 537.83 340.816 536.849 340.56L536.129 340.368C535.318 340.155 534.705 339.877 534.289 339.536C533.873 339.195 533.665 338.704 533.665 338.064C533.665 337.211 533.974 336.523 534.593 336C535.222 335.477 536.044 335.216 537.057 335.216C538.38 335.216 539.468 335.499 540.321 336.064L539.409 337.488C538.726 337.115 537.996 336.928 537.217 336.928C536.812 336.928 536.486 336.997 536.241 337.136C536.006 337.275 535.889 337.467 535.889 337.712C535.889 337.947 535.996 338.139 536.209 338.288C536.433 338.427 536.758 338.549 537.185 338.656L537.889 338.864C538.721 339.077 539.366 339.387 539.825 339.792C540.294 340.187 540.529 340.736 540.529 341.44C540.529 342.261 540.198 342.923 539.537 343.424C538.886 343.915 538.022 344.16 536.945 344.16ZM550.396 339.552C550.396 339.904 550.38 340.208 550.348 340.464H544.092C544.263 341.787 544.956 342.448 546.172 342.448C547.015 342.448 547.719 342.107 548.284 341.424L549.964 342.272C549.569 342.859 549.041 343.323 548.38 343.664C547.729 343.995 547.004 344.16 546.204 344.16C544.881 344.16 543.815 343.755 543.004 342.944C542.193 342.133 541.788 341.067 541.788 339.744C541.788 338.389 542.183 337.296 542.972 336.464C543.761 335.632 544.801 335.216 546.092 335.216C547.383 335.216 548.423 335.616 549.212 336.416C550.001 337.205 550.396 338.251 550.396 339.552ZM546.092 336.928C545.527 336.928 545.073 337.109 544.732 337.472C544.391 337.824 544.177 338.331 544.092 338.992H548.124C547.953 337.616 547.276 336.928 546.092 336.928Z" fill="black"/>
<path d="M706.744 325L705.784 322.648H700.328L699.368 325H696.952L702.008 313.16H704.104L709.16 325H706.744ZM701.096 320.776H705.032L703.064 315.96L701.096 320.776ZM715.333 313.16C716.581 313.16 717.584 313.512 718.341 314.216C719.098 314.92 719.477 315.843 719.477 316.984C719.477 318.179 719.088 319.144 718.309 319.88C717.541 320.605 716.522 320.968 715.253 320.968H712.789V325H710.533V313.16H715.333ZM715.093 319.096C715.722 319.096 716.224 318.915 716.597 318.552C716.97 318.179 717.157 317.683 717.157 317.064C717.157 316.456 716.965 315.965 716.581 315.592C716.208 315.219 715.712 315.032 715.093 315.032H712.789V319.096H715.093ZM721.33 325V313.16H723.586V325H721.33ZM680.112 344L677.408 339.648H674.992V344H672.736V332.16H677.696C678.944 332.16 679.947 332.507 680.704 333.2C681.461 333.883 681.84 334.784 681.84 335.904C681.84 336.661 681.648 337.328 681.264 337.904C680.88 338.48 680.341 338.917 679.648 339.216L682.768 344H680.112ZM674.992 334.032V337.776H677.28C677.952 337.776 678.491 337.605 678.896 337.264C679.312 336.923 679.52 336.469 679.52 335.904C679.52 335.339 679.328 334.885 678.944 334.544C678.56 334.203 678.059 334.032 677.44 334.032H674.992ZM692.029 339.552C692.029 339.904 692.013 340.208 691.981 340.464H685.725C685.896 341.787 686.589 342.448 687.805 342.448C688.648 342.448 689.352 342.107 689.917 341.424L691.597 342.272C691.202 342.859 690.674 343.323 690.013 343.664C689.362 343.995 688.637 344.16 687.837 344.16C686.514 344.16 685.448 343.755 684.637 342.944C683.826 342.133 683.421 341.067 683.421 339.744C683.421 338.389 683.816 337.296 684.605 336.464C685.394 335.632 686.434 335.216 687.725 335.216C689.016 335.216 690.056 335.616 690.845 336.416C691.634 337.205 692.029 338.251 692.029 339.552ZM687.725 336.928C687.16 336.928 686.706 337.109 686.365 337.472C686.024 337.824 685.81 338.331 685.725 338.992H689.757C689.586 337.616 688.909 336.928 687.725 336.928ZM696.609 344.16C695.212 344.16 694.118 343.819 693.329 343.136L694.161 341.824C694.886 342.251 695.713 342.464 696.641 342.464C697.046 342.464 697.372 342.389 697.617 342.24C697.862 342.08 697.985 341.867 697.985 341.6C697.985 341.163 697.494 340.816 696.513 340.56L695.793 340.368C694.982 340.155 694.369 339.877 693.953 339.536C693.537 339.195 693.329 338.704 693.329 338.064C693.329 337.211 693.638 336.523 694.257 336C694.886 335.477 695.708 335.216 696.721 335.216C698.044 335.216 699.132 335.499 699.985 336.064L699.073 337.488C698.39 337.115 697.66 336.928 696.881 336.928C696.476 336.928 696.15 336.997 695.905 337.136C695.67 337.275 695.553 337.467 695.553 337.712C695.553 337.947 695.66 338.139 695.873 338.288C696.097 338.427 696.422 338.549 696.849 338.656L697.553 338.864C698.385 339.077 699.03 339.387 699.489 339.792C699.958 340.187 700.193 340.736 700.193 341.44C700.193 342.261 699.862 342.923 699.201 343.424C698.55 343.915 697.686 344.16 696.609 344.16ZM706.972 335.216C708.156 335.216 709.137 335.627 709.916 336.448C710.705 337.269 711.1 338.336 711.1 339.648C711.1 340.981 710.705 342.069 709.916 342.912C709.127 343.744 708.145 344.16 706.972 344.16C705.713 344.16 704.759 343.691 704.108 342.752V347.52H701.932V335.376H704.028L704.076 336.672C704.727 335.701 705.692 335.216 706.972 335.216ZM706.476 342.288C707.18 342.288 707.751 342.048 708.188 341.568C708.625 341.088 708.844 340.453 708.844 339.664C708.844 338.885 708.625 338.261 708.188 337.792C707.751 337.312 707.18 337.072 706.476 337.072C705.761 337.072 705.185 337.312 704.748 337.792C704.321 338.261 704.108 338.891 704.108 339.68C704.108 340.469 704.321 341.104 704.748 341.584C705.185 342.053 705.761 342.288 706.476 342.288ZM716.935 344.16C715.548 344.16 714.428 343.749 713.575 342.928C712.732 342.107 712.311 341.024 712.311 339.68C712.311 338.347 712.732 337.269 713.575 336.448C714.428 335.627 715.548 335.216 716.935 335.216C718.311 335.216 719.42 335.627 720.263 336.448C721.116 337.269 721.543 338.347 721.543 339.68C721.543 341.024 721.116 342.107 720.263 342.928C719.42 343.749 718.311 344.16 716.935 344.16ZM716.935 342.288C717.639 342.288 718.204 342.048 718.631 341.568C719.068 341.088 719.287 340.459 719.287 339.68C719.287 338.901 719.068 338.272 718.631 337.792C718.204 337.312 717.639 337.072 716.935 337.072C716.22 337.072 715.644 337.312 715.207 337.792C714.78 338.261 714.567 338.891 714.567 339.68C714.567 340.469 714.78 341.104 715.207 341.584C715.644 342.053 716.22 342.288 716.935 342.288ZM728.204 335.216C729.239 335.216 730.071 335.525 730.7 336.144C731.33 336.752 731.644 337.563 731.644 338.576V344H729.468V338.928C729.468 338.373 729.282 337.925 728.908 337.584C728.546 337.243 728.06 337.072 727.452 337.072C726.844 337.072 726.354 337.243 725.98 337.584C725.618 337.925 725.436 338.373 725.436 338.928V344H723.26V335.376H725.356L725.388 336.464C726.06 335.632 726.999 335.216 728.204 335.216ZM736.625 344.16C735.227 344.16 734.134 343.819 733.345 343.136L734.177 341.824C734.902 342.251 735.729 342.464 736.657 342.464C737.062 342.464 737.387 342.389 737.633 342.24C737.878 342.08 738.001 341.867 738.001 341.6C738.001 341.163 737.51 340.816 736.529 340.56L735.809 340.368C734.998 340.155 734.385 339.877 733.969 339.536C733.553 339.195 733.345 338.704 733.345 338.064C733.345 337.211 733.654 336.523 734.273 336C734.902 335.477 735.723 335.216 736.737 335.216C738.059 335.216 739.147 335.499 740.001 336.064L739.089 337.488C738.406 337.115 737.675 336.928 736.897 336.928C736.491 336.928 736.166 336.997 735.921 337.136C735.686 337.275 735.569 337.467 735.569 337.712C735.569 337.947 735.675 338.139 735.889 338.288C736.113 338.427 736.438 338.549 736.865 338.656L737.569 338.864C738.401 339.077 739.046 339.387 739.505 339.792C739.974 340.187 740.209 340.736 740.209 341.44C740.209 342.261 739.878 342.923 739.217 343.424C738.566 343.915 737.702 344.16 736.625 344.16ZM750.076 339.552C750.076 339.904 750.06 340.208 750.028 340.464H743.772C743.942 341.787 744.636 342.448 745.852 342.448C746.694 342.448 747.398 342.107 747.964 341.424L749.644 342.272C749.249 342.859 748.721 343.323 748.06 343.664C747.409 343.995 746.684 344.16 745.884 344.16C744.561 344.16 743.494 343.755 742.684 342.944C741.873 342.133 741.468 341.067 741.468 339.744C741.468 338.389 741.862 337.296 742.652 336.464C743.441 335.632 744.481 335.216 745.772 335.216C747.062 335.216 748.102 335.616 748.892 336.416C749.681 337.205 750.076 338.251 750.076 339.552ZM745.772 336.928C745.206 336.928 744.753 337.109 744.412 337.472C744.07 337.824 743.857 338.331 743.772 338.992H747.804C747.633 337.616 746.956 336.928 745.772 336.928Z" fill="black"/>
<path d="M224.707 220.707C225.098 220.317 225.098 219.683 224.707 219.293L218.343 212.929C217.953 212.538 217.319 212.538 216.929 212.929C216.538 213.319 216.538 213.953 216.929 214.343L222.586 220L216.929 225.657C216.538 226.047 216.538 226.681 216.929 227.071C217.319 227.462 217.953 227.462 218.343 227.071L224.707 220.707ZM184 221H224V219H184V221Z" fill="black"/>
<path d="M428.707 220.707C429.098 220.317 429.098 219.683 428.707 219.293L422.343 212.929C421.953 212.538 421.319 212.538 420.929 212.929C420.538 213.319 420.538 213.953 420.929 214.343L426.586 220L420.929 225.657C420.538 226.047 420.538 226.681 420.929 227.071C421.319 227.462 421.953 227.462 422.343 227.071L428.707 220.707ZM391 221H428V219H391V221Z" fill="black"/>
<path d="M629.707 220.707C630.098 220.317 630.098 219.683 629.707 219.293L623.343 212.929C622.953 212.538 622.319 212.538 621.929 212.929C621.538 213.319 621.538 213.953 621.929 214.343L627.586 220L621.929 225.657C621.538 226.047 621.538 226.681 621.929 227.071C622.319 227.462 622.953 227.462 623.343 227.071L629.707 220.707ZM592 221H629V219H592V221Z" fill="black"/>
<path d="M715 393L715 394L716 394L716 393L715 393ZM95 393L94 393L94 394L95 394L95 393ZM95.7071 368.293C95.3166 367.902 94.6834 367.902 94.2929 368.293L87.929 374.657C87.5384 375.047 87.5384 375.681 87.929 376.071C88.3195 376.462 88.9526 376.462 89.3431 376.071L95 370.414L100.657 376.071C101.047 376.462 101.681 376.462 102.071 376.071C102.462 375.681 102.462 375.047 102.071 374.657L95.7071 368.293ZM714 369L714 393L716 393L716 369L714 369ZM715 392L95 392L95 394L715 394L715 392ZM96 393L96 369L94 369L94 393L96 393Z" fill="black"/>
<defs>
<clipPath id="clip0">
<rect width="84" height="84" fill="white" transform="translate(267 175)"/>
</clipPath>
<clipPath id="clip1">
<rect width="84" height="84" fill="white" transform="translate(669 175)"/>
</clipPath>
</defs>
</svg>
