<svg xmlns="http://www.w3.org/2000/svg" xmlns:xlink="http://www.w3.org/1999/xlink" viewBox="0 0 554.37 325.91">
  <defs>
    <style>
      .cls-1 {
        fill: none;
      }

      .cls-2 {
        isolation: isolate;
      }

      .cls-12, .cls-3 {
        fill: #2988d7;
      }

      .cls-3 {
        opacity: 0.4;
        mix-blend-mode: multiply;
      }

      .cls-4 {
        fill: #f7bed1;
      }

      .cls-5 {
        fill: #91acc1;
      }

      .cls-16, .cls-6 {
        fill: #121f54;
      }

      .cls-7 {
        fill: #205fa3;
      }

      .cls-11, .cls-8, .cls-9 {
        fill: #fff;
      }

      .cls-8 {
        stroke: #d6d6d6;
        stroke-miterlimit: 10;
      }

      .cls-16, .cls-9 {
        fill-rule: evenodd;
      }

      .cls-10 {
        fill: #e8e8e8;
      }

      .cls-13 {
        fill: #8edef1;
      }

      .cls-14 {
        clip-path: url(#clip-path);
      }

      .cls-15 {
        fill: #dbdbdb;
      }

      .cls-17 {
        fill: #5580f8;
      }

      .cls-18 {
        fill: #393d63;
      }

      .cls-19 {
        fill: #f7b75d;
      }

      .cls-20 {
        fill: #212121;
      }
    </style>
    <clipPath id="clip-path">
      <path class="cls-1" d="M282,101.4a30.7,30.7,0,1,0,9.44,42.37A30.71,30.71,0,0,0,282,101.4Z"/>
    </clipPath>
  </defs>
  <title>illu-header-owasp-v2</title>
  <g class="cls-2">
    <g id="Calque_2" data-name="Calque 2">
      <g id="Calque_8" data-name="Calque 8">
        <g>
          <path class="cls-3" d="M277.18,290.74C124.1,290.74,0,298.61,0,308.32s124.1,17.59,277.18,17.59S554.37,318,554.37,308.32,430.27,290.74,277.18,290.74Z"/>
          <path class="cls-4" d="M403.26,96.83c-.5.16-.28,2.46,0,2.88,1,.8,1.51.18,2.38,1.07a11,11,0,0,1-1.49-3C404,97.21,404,96.52,403.26,96.83Z"/>
          <path class="cls-4" d="M399,96a17.36,17.36,0,0,0-2.63-1.48,3,3,0,0,0-1.71.42.9.9,0,0,0-.17,1c-.66.39.61,1.81.43,1.87-.74.24-.64,1.32,1.73,2.68.14.09,5.29,4.57,7.06,5.87a27.66,27.66,0,0,0,2.64-4.93,27.9,27.9,0,0,0-2.93-2.53C402.19,98,399.21,96.14,399,96Z"/>
          <path class="cls-5" d="M474.65,106.27c-3.18.22-9.45,2-16.1,3.79s-13.58,3.76-18.25,4.43a20.76,20.76,0,0,0-2.27.44c-2.57-1.22-6.08-2.75-9.79-4.37-8.1-3.52-18.18-7.91-21.3-10.48l-4.78,6.82c7.91,6.27,27.92,19,35.58,20.18,7.93,1.34,38.19,2.4,40.08-4.34.63-2.26-.32-14.14-1.84-15.9A1.59,1.59,0,0,0,474.65,106.27Z"/>
          <path class="cls-6" d="M507.47,299.19l-4.31-2.4s-.93,1.39-1.68,2.28c-1.46,1.73-8.42,3-8.42,5.42,0,1.23,2.59,2.34,4.71,2.42a14.36,14.36,0,0,0,5.1-.7c1.25-.41,4.1-1.57,4.56-2.33a3.53,3.53,0,0,0,.16-2.85C507.82,299.66,507.47,299.19,507.47,299.19Z"/>
          <path class="cls-4" d="M501.91,296.66a2.1,2.1,0,0,1-.43,2.41,7.11,7.11,0,0,0,2.5,2.4c.92.51,3.61-.44,3.61-.44a18.26,18.26,0,0,0,.11-3.34Z"/>
          <path class="cls-6" d="M491,160.09c-.42,3-11,42.28-8,79.29,2.63,31.86,19,58.23,19,58.23,0,.23,4.24,2.51,6.35.19,0-5.57-7.56-57.65-7.39-58.24,5.11-17.72,16.92-48.42,18.95-50V162.45C509.5,163.13,494.43,161.59,491,160.09Z"/>
          <path class="cls-6" d="M540.08,299.49l-4.48-2.05s-.81,1.46-1.49,2.41c-1.32,1.83-8.17,3.62-8,6,.1,1.23,2.78,2.14,4.89,2.05s4-.34,5-1.1c1.34-.94,4-1.88,4.35-2.68a3.53,3.53,0,0,0-.06-2.86C540.47,299.94,540.08,299.49,540.08,299.49Z"/>
          <path class="cls-4" d="M534.68,297.26a3,3,0,0,1-.57,2.59,7.08,7.08,0,0,0,2.68,2.19c1,.44,3.56-.72,3.56-.72.12-1.38,0-3.44,0-3.44Z"/>
          <path class="cls-6" d="M535.05,156.34c-9-3.8-21.87,1.24-25.38,5.78-.18,3-3.34,42.38,1.16,79.33,2.35,19.31,23.65,46.25,23.65,56.9.07.23,4.43,2.17,6.35-.31,0-26.23-12.17-58.12-12.17-58.12C530.88,216.78,547.94,180.88,535.05,156.34Z"/>
          <path class="cls-4" d="M478.25,92.44c.16.57,3,6.32,2.5,9.92,1.32,2.9,9.76.87,10.83-4.86-1.33-1.23-4-8.84-4.31-11.75C486.69,86.44,480.4,92.25,478.25,92.44Z"/>
          <path class="cls-4" d="M485.41,83.9c-.72-4.14-4.06-7.11-8.24-6.39-3.89.68-7.37,2.47-7.33,6.28,0,1.37,3.41,12.9,10.07,13.15,2.82.11,6.78-5.63,6.24-8.75C486.15,88.19,485.41,83.94,485.41,83.9Z"/>
          <path class="cls-5" d="M500.69,97.68c-2.26-.33-9.11-.17-9.11-.17s-3.58,5-6.53,6c-2,.65-4.3-1.14-4.3-1.14s-6.86,4-8,5.16c-4.47,4.3.2,13.06,1.67,18.81.49,1.91,5.13,18,10.82,55,4.52,13.51,30,12.62,47.2.69l-2-19.16,6.7,17.31c1.17-.44,3.73-.95,4.68-1.26C535.4,122.33,520.89,100.66,500.69,97.68Z"/>
          <path class="cls-5" d="M496.18,97.32l-4.6.18s-3.58,5-6.52,6c-2,.65-4.31-1.14-4.31-1.14a61.41,61.41,0,0,0-6.35,3.94c1.92,6,8.82,11.74,8.82,11.74s10.08-14.24,17.47-20.35A19.46,19.46,0,0,0,496.18,97.32Z"/>
          <path class="cls-6" d="M484.58,69.4c-9-5.56-21.5,3.4-20.32,11.69.25,1.83,2.78,5.93,19.2-.81,2.6,2.57,4.59,9,4.59,9C492.31,83.83,491.43,73.65,484.58,69.4Z"/>
          <path class="cls-4" d="M485.72,82.1a3.55,3.55,0,0,0-1.76.59,49.76,49.76,0,0,0,1.79,4.85,3.78,3.78,0,0,0,2.18-3C487.9,83.5,486.82,82.07,485.72,82.1Z"/>
          <path class="cls-4" d="M442.53,149.39c-.24.47,1.56,1.93,2.07,2,1.3-.19,1.18-.95,2.43-.95a11,11,0,0,1-3.18-1C443.33,149.11,442.84,148.63,442.53,149.39Z"/>
          <path class="cls-4" d="M444.11,150.73c-1.54.21-4.91,1.06-5.15,1.13a18.2,18.2,0,0,0-2.9.84,2.93,2.93,0,0,0-.9,1.52.89.89,0,0,0,.58.8c-.18.74,1.72.84,1.64,1-.35.69.49,1.38,3.12.64.16,0,7-.57,9.14-.91a28.05,28.05,0,0,0-1.67-5.34A27.11,27.11,0,0,0,444.11,150.73Z"/>
          <path class="cls-5" d="M500.65,104.56a1.63,1.63,0,0,0-1.34.54c-2.08,2.43-5.24,8.12-8.58,14.14s-6.85,12.32-9.64,16.12a20.1,20.1,0,0,0-1.28,1.93c-2.67,1-6.23,2.41-10,3.92-8.19,3.31-18.39,7.42-22.41,7.84l1.52,8.19c10-1.25,33.12-6.59,39.33-11.22,6.51-4.72,28.48-25.56,25-31.63C512.1,112.36,503,104.71,500.65,104.56Z"/>
          <rect class="cls-7" x="191.08" y="261.48" width="98.47" height="34.55"/>
          <rect class="cls-8" x="65.62" y="57.23" width="349.28" height="204.86" rx="16.21"/>
          <rect class="cls-6" x="76.38" y="66.68" width="327.77" height="166.45"/>
          <path class="cls-9" d="M320.23,295.79H160.3a6.27,6.27,0,1,0,0,12.53H320.23a6.27,6.27,0,0,0,0-12.53Z"/>
          <rect class="cls-10" x="90.75" y="22.76" width="299.01" height="210.37"/>
          <rect class="cls-7" x="90.75" width="299.01" height="22.76"/>
          <rect class="cls-11" x="110.07" y="36.76" width="258.35" height="180.83"/>
          <rect class="cls-12" x="120.34" y="53.53" width="25.83" height="4.83"/>
          <rect class="cls-12" x="149.68" y="53.53" width="32.2" height="4.83"/>
          <rect class="cls-12" x="188.49" y="53.53" width="11.75" height="4.83"/>
          <rect class="cls-12" x="120.34" y="61.17" width="9.3" height="4.83"/>
          <rect class="cls-12" x="134.42" y="61.17" width="27.06" height="4.83"/>
          <rect class="cls-12" x="120.34" y="188.54" width="25.83" height="4.83"/>
          <rect class="cls-12" x="149.68" y="188.54" width="32.2" height="4.83"/>
          <rect class="cls-12" x="188.49" y="188.54" width="11.75" height="4.83"/>
          <rect class="cls-12" x="120.34" y="196.17" width="9.3" height="4.83"/>
          <rect class="cls-12" x="134.42" y="196.17" width="27.06" height="4.83"/>
          <rect class="cls-12" x="128.45" y="119.31" width="33" height="6.16"/>
          <rect class="cls-12" x="165.93" y="119.31" width="41.13" height="6.16"/>
          <rect class="cls-12" x="215.5" y="119.31" width="15.01" height="6.16"/>
          <rect class="cls-12" x="128.45" y="129.06" width="11.88" height="6.16"/>
          <rect class="cls-12" x="146.44" y="129.06" width="34.56" height="6.16"/>
          <rect class="cls-13" x="316.04" y="102.57" width="38.78" height="5.33"/>
          <rect class="cls-12" x="316.04" y="43.84" width="38.78" height="47.96"/>
          <rect class="cls-13" x="316.04" y="117.53" width="38.78" height="5.33"/>
          <rect class="cls-13" x="316.04" y="132.49" width="38.78" height="5.33"/>
          <rect class="cls-13" x="316.04" y="147.45" width="38.78" height="5.33"/>
          <rect class="cls-13" x="316.04" y="162.42" width="38.78" height="5.33"/>
          <rect class="cls-12" x="316.04" y="177.38" width="38.78" height="5.33"/>
          <rect class="cls-13" x="316.04" y="192.34" width="38.78" height="5.33"/>
          <rect class="cls-12" x="316.04" y="207.3" width="38.78" height="5.33"/>
          <path class="cls-11" d="M378.43,13.44a2.43,2.43,0,1,0,2.43,2.43A2.43,2.43,0,0,0,378.43,13.44Z"/>
          <circle class="cls-11" cx="368.71" cy="15.87" r="2.43"/>
          <rect class="cls-11" x="322.23" y="49.67" width="26.4" height="6"/>
          <rect class="cls-11" x="322.23" y="59.65" width="26.4" height="6"/>
          <rect class="cls-11" x="322.23" y="69.62" width="26.4" height="6"/>
          <rect class="cls-11" x="322.23" y="79.6" width="26.4" height="6"/>
          <g class="cls-14">
            <path class="cls-4" d="M303.77,202.22c-.74.65-1.77.85-1.24,1.42.31.4,3-.86,3.26-1.27a3.92,3.92,0,0,0,.14-2.48A11.35,11.35,0,0,1,303.77,202.22Z"/>
            <path class="cls-4" d="M305.86,199.9c-.73,3.09-1.68,4.16-1.54,5.52.05.55,5.37,1.87,6-.66,0-.15.34-1.84.77-3.77A26.54,26.54,0,0,0,305.86,199.9Z"/>
            <path class="cls-4" d="M302,161.4c-3.88-1-5.48,1.58-5.75,3.54a3.91,3.91,0,0,0,0,1.19c1.16,6.18,9.43,28.3,9.62,34.94a16.65,16.65,0,0,1,5.2-.08C311.55,197.42,306.23,162.42,302,161.4Z"/>
            <path class="cls-6" d="M235,187.49s-1,10.45-1,19.49a59.56,59.56,0,0,0,20.28,3.81l3-9s4.21,9.12,5.81,9.16c9,.22,18.12-.76,24.26-4.47l-3.39-13.66Z"/>
            <path class="cls-4" d="M231.26,212c0-.23,0-3.55-.18-5a26.18,26.18,0,0,0-.63-3.63,26.75,26.75,0,0,0-5.31-.27c.19,2.08,1.32,8.48,1.31,8.64,0,2.6.78,3.21,1.34,2.73.13-.12.68,1.61,1.31,1.27a.85.85,0,0,0,.88.34,2.82,2.82,0,0,0,1.19-1.18A19,19,0,0,0,231.26,212Z"/>
            <path class="cls-4" d="M233.71,166.42c-.61-1.88-2.63-4.09-6.28-2.48-4,1.75-3.58,29.09-2.19,39.92a20.33,20.33,0,0,1,5.3-.18c-1-6.57,3.31-29.8,3.37-36.09A3.78,3.78,0,0,0,233.71,166.42Z"/>
          </g>
          <path class="cls-4" d="M297.24,221.43a5.88,5.88,0,0,1-1.42.85c.6-.14.62.24,1.27.19.24-.09,1-1,.79-1.19S297.46,221.23,297.24,221.43Z"/>
          <path class="cls-4" d="M120.55,173.32c.31.43,3.17,1.63,3.48,1.2"/>
          <rect class="cls-6" x="357.8" y="171.75" width="34.53" height="15.78"/>
          <path class="cls-6" d="M319.84,102.35H430.95a5.68,5.68,0,0,1,5.68,5.68V168.5a5.68,5.68,0,0,1-5.68,5.68H319.84a5.69,5.69,0,0,1-5.69-5.69V108A5.69,5.69,0,0,1,319.84,102.35Z"/>
          <rect class="cls-15" x="317.92" y="105.67" width="114.93" height="58.37"/>
          <path class="cls-16" d="M402.08,185.28H346a2.2,2.2,0,1,0,0,4.39h56.08a2.2,2.2,0,1,0,0-4.39Z"/>
          <rect class="cls-12" x="317.92" y="105.67" width="14.3" height="58.42"/>
          <rect class="cls-11" x="319.47" y="114.98" width="4.52" height="3.96"/>
          <rect class="cls-11" x="325.9" y="114.98" width="4.52" height="3.96"/>
          <rect class="cls-11" x="319.47" y="120.75" width="4.52" height="3.96"/>
          <rect class="cls-11" x="325.9" y="120.75" width="4.52" height="3.96"/>
          <rect class="cls-11" x="319.47" y="126.52" width="4.52" height="3.96"/>
          <rect class="cls-11" x="325.9" y="126.52" width="4.52" height="3.96"/>
          <rect class="cls-11" x="319.47" y="132.29" width="4.52" height="3.96"/>
          <rect class="cls-11" x="325.9" y="132.29" width="4.52" height="3.96"/>
          <rect class="cls-11" x="319.47" y="138.06" width="4.52" height="3.96"/>
          <rect class="cls-11" x="325.9" y="138.06" width="4.52" height="3.96"/>
          <rect class="cls-11" x="319.47" y="143.84" width="4.52" height="3.96"/>
          <rect class="cls-11" x="325.9" y="143.84" width="4.52" height="3.96"/>
          <rect class="cls-11" x="319.47" y="152.36" width="4.52" height="8.6"/>
          <rect class="cls-11" x="325.9" y="152.36" width="4.52" height="8.6"/>
          <rect class="cls-11" x="426.8" y="155.68" width="4.52" height="5.28"/>
          <rect class="cls-11" x="426.8" y="144.51" width="4.52" height="6.65"/>
          <rect class="cls-11" x="426.8" y="132.18" width="4.52" height="6.65"/>
          <rect class="cls-11" x="426.8" y="119.85" width="4.52" height="6.65"/>
          <rect class="cls-11" x="426.8" y="107.52" width="4.52" height="6.65"/>
          <rect class="cls-12" x="317.92" y="105.67" width="107.33" height="7.62"/>
          <path class="cls-11" d="M335.82,107.72H324.58a1.76,1.76,0,1,0,0,3.52h11.24a1.76,1.76,0,0,0,0-3.52Z"/>
          <path class="cls-11" d="M353,107.72H341.71a1.76,1.76,0,1,0,0,3.52H353a1.76,1.76,0,0,0,0-3.52Z"/>
          <path class="cls-11" d="M370.09,107.72H358.84a1.76,1.76,0,1,0,0,3.52h11.25a1.76,1.76,0,0,0,0-3.52Z"/>
          <path class="cls-11" d="M387.22,107.72H376a1.76,1.76,0,0,0,0,3.52h11.25a1.76,1.76,0,0,0,0-3.52Z"/>
          <path class="cls-11" d="M404.35,107.72H393.11a1.76,1.76,0,1,0,0,3.52h11.24a1.76,1.76,0,0,0,0-3.52Z"/>
          <g>
            <path class="cls-4" d="M380,183.43c-.43.38-1,.49-.72.82s1.73-.49,1.89-.73a2.34,2.34,0,0,0,.08-1.44A6.66,6.66,0,0,1,380,183.43Z"/>
            <path class="cls-4" d="M380.27,185.28c0,.32,3.12,1.08,3.47-.38,0-.09.2-1.07.44-2.18a14.65,14.65,0,0,0-3-.63C380.75,183.87,380.19,184.5,380.27,185.28Z"/>
            <path class="cls-6" d="M340.14,174.9s-.56,6-.56,11.29a34.58,34.58,0,0,0,11.74,2.2l1.77-5.22s2.44,5.29,3.36,5.31c5.21.13,10.5-.44,14.06-2.59l-2-7.91Z"/>
          </g>
          <rect class="cls-11" x="377.28" y="124.84" width="7.72" height="1.23"/>
          <rect class="cls-11" x="377.28" y="127.87" width="11.9" height="1.23"/>
          <rect class="cls-11" x="388.67" y="124.84" width="11.29" height="1.23"/>
          <rect class="cls-11" x="402.22" y="124.84" width="5.94" height="1.23"/>
          <rect class="cls-11" x="400.77" y="127.87" width="13.23" height="1.23"/>
          <rect class="cls-11" x="377.28" y="130.9" width="7.72" height="1.23"/>
          <rect class="cls-11" x="377.28" y="133.93" width="24.23" height="1.23"/>
          <rect class="cls-11" x="388.67" y="130.9" width="14.69" height="1.23"/>
          <rect class="cls-11" x="406.29" y="130.9" width="7.7" height="1.23"/>
          <rect class="cls-11" x="404.45" y="133.93" width="13.59" height="1.23"/>
          <rect class="cls-11" x="391.83" y="127.87" width="5.63" height="1.23"/>
          <rect class="cls-11" x="377.28" y="140.65" width="7.72" height="1.23"/>
          <rect class="cls-11" x="377.28" y="143.69" width="11.9" height="1.23"/>
          <rect class="cls-11" x="388.67" y="140.65" width="11.29" height="1.23"/>
          <rect class="cls-11" x="402.22" y="140.65" width="5.94" height="1.23"/>
          <rect class="cls-11" x="400.77" y="143.69" width="13.23" height="1.23"/>
          <rect class="cls-11" x="377.28" y="146.72" width="7.72" height="1.23"/>
          <rect class="cls-11" x="377.28" y="149.75" width="24.23" height="1.23"/>
          <rect class="cls-11" x="388.67" y="146.72" width="14.69" height="1.23"/>
          <rect class="cls-11" x="406.29" y="146.72" width="7.7" height="1.23"/>
          <rect class="cls-11" x="404.45" y="149.75" width="13.59" height="1.23"/>
          <rect class="cls-11" x="391.83" y="143.69" width="5.63" height="1.23"/>
          <rect class="cls-7" x="301.72" y="201.46" width="3.21" height="106.5"/>
          <rect class="cls-7" x="343.1" y="201.46" width="3.21" height="106.5"/>
          <rect class="cls-7" x="456.63" y="201.46" width="3.21" height="106.5"/>
          <rect class="cls-7" x="498.01" y="201.46" width="3.21" height="106.5"/>
          <rect class="cls-7" x="293.2" y="189.67" width="62.05" height="11.91"/>
          <rect class="cls-11" x="355.25" y="189.67" width="151.47" height="11.91"/>
          <rect class="cls-7" x="467.77" y="131.7" width="25.48" height="57.2"/>
          <rect class="cls-6" x="470.08" y="136.89" width="20.85" height="8.71"/>
          <rect class="cls-6" x="470.08" y="147.75" width="20.85" height="5.14"/>
          <rect class="cls-5" x="428.69" y="131.7" width="39.08" height="57.2"/>
          <path class="cls-17" d="M480.51,169.27a5.1,5.1,0,1,0,5.09,5.1A5.09,5.09,0,0,0,480.51,169.27Z"/>
          <path class="cls-4" d="M381.69,183.91c-.22.48,1.66,1.83,2.18,1.88,1.28-.26,1.12-1,2.37-1.08a11,11,0,0,1-3.23-.86C382.47,183.58,382,183.14,381.69,183.91Z"/>
          <path class="cls-4" d="M383.34,185.15c-1.52.3-4.85,1.34-5.08,1.41a19.41,19.41,0,0,0-2.86,1,3,3,0,0,0-.8,1.57.89.89,0,0,0,.62.78c-.15.74,1.76.74,1.68.91-.3.71.58,1.35,3.16.47.16,0,6.93-.95,9.07-1.42a28.1,28.1,0,0,0-1.95-5.24A29,29,0,0,0,383.34,185.15Z"/>
          <path class="cls-4" d="M423.09,169.68a4.25,4.25,0,0,0-1.25.17c-6.28,2.06-28.19,13.71-35.07,14.81a21.77,21.77,0,0,1,1.5,5.37c11.29-2,38.8-10.29,39.29-14.85C428,171,425.16,169.69,423.09,169.68Z"/>
          <path class="cls-4" d="M437,137.4c-3.71,4.86-11.21,23.09-16.47,31.13-6.46,9.87,2.73,10.85,5.65,8.49,7.68-6.2,25.82-26.88,23-31.2C448,144,437.71,136.52,437,137.4Z"/>
          <path class="cls-18" d="M435.93,133.91c-2.45,5.74-4.77,11-7.77,17.24s-6.16,12.68-8.75,16.63a20.82,20.82,0,0,0-1.16,2c-2.62,1.12-6.09,2.75-9.76,4.47-8,3.75-17.95,8.42-21.94,9.06l2,8.09c9.93-1.8,32.72-8.4,38.64-13.35,6.26-5.09,24.36-24.65,22.58-31.42C446.78,135.37,436.12,133.45,435.93,133.91Z"/>
          <path class="cls-19" d="M438.78,203.43c-8.93.44-55.82,17.21-74.86,28.65-8.1,4.86-4.73,13.54,4.18,13,25.77-1.56,59.89-.6,75.06-11.46C467.26,216.35,443.55,203.2,438.78,203.43Z"/>
          <path class="cls-4" d="M388.84,294.29a11.12,11.12,0,0,1,.57,3.5,7.29,7.29,0,0,0,5.25,1.73,17.87,17.87,0,0,0,.12-5.54C394.45,294,391.18,292.14,388.84,294.29Z"/>
          <path class="cls-19" d="M360.47,245.45c15.49,27.92,28.22,51.23,28.22,51.23,1-1.8,4.05-3,6.49-2.32,0,0-9-26.25-18.05-52.85C371.16,224,354.15,234.06,360.47,245.45Z"/>
          <path class="cls-6" d="M389.32,296.41a5.44,5.44,0,0,1-1,1.15c-1.63,1.56-9,4.82-9.23,7.26-.13,1.22,2.34,2.59,4.44,2.9s4,.37,5.15-.17c1.49-.69,4.47-3.93,5.05-4.6,1.45-1.64.93-4.65.93-4.65C393.44,295.39,389.32,296.41,389.32,296.41Z"/>
          <path class="cls-6" d="M389.32,299.4c-2.12,1.48-8.93,3.87-9.14,5.92-.11,1,2,2.19,3.73,2.44a8.45,8.45,0,0,0,4.34-.14,19.49,19.49,0,0,0,4.26-3.87C394.9,300.44,391.37,298,389.32,299.4Z"/>
          <path class="cls-4" d="M429.27,294.87c.57,3.14,1.48,6.2,1.48,6.2a17.05,17.05,0,0,0,6.38-3.28s-1.38-2.14-2.38-4.12C432.42,291.52,429.59,294.9,429.27,294.87Z"/>
          <path class="cls-19" d="M402,249.59c15.49,27.93,27,47.19,27,47.19a5.9,5.9,0,0,1,6.35-2.42s-7.61-22.11-16.67-48.7C412.7,228.12,395.7,238.2,402,249.59Z"/>
          <path class="cls-6" d="M436.84,297.56l0-.05a4.26,4.26,0,0,0-4.42-1l-.06,0a3,3,0,0,0-1.77,3,7.92,7.92,0,0,0,.87,3.46c.53.71,3.57,3.91,5.06,4.6,1.19.54,3,.47,5.15.17s4.56-1.68,4.44-2.9C445.81,302.38,438.47,299.12,436.84,297.56Z"/>
          <path class="cls-6" d="M435.84,299.4c-2-1.43-5.58,1-3.19,4.35a19.49,19.49,0,0,0,4.26,3.87,8.41,8.41,0,0,0,4.33.14c1.77-.25,3.85-1.41,3.74-2.44C444.77,303.27,438,300.88,435.84,299.4Z"/>
          <path class="cls-18" d="M453.14,202.6c-10.32,1.31-20.58,2.75-31,3a62.83,62.83,0,0,1-18.31-2.14c0,9.66-1.93,11.13-6.25,13.74,3.05,10.6,9.16,13.55,14.46,15.29,13.95,4.55,48.84-5.89,49.83-6a233.46,233.46,0,0,0-1.74-24.93C457.86,202,455.53,202.3,453.14,202.6Z"/>
          <path class="cls-4" d="M431.78,117.93c-.72.54-8.19,4.72-10.33,4.4,0,.59,1.48,6.85.1,10.23.61,3.13,9.29,3.12,11.67-2.19C432.22,128.86,431.37,120.82,431.78,117.93Z"/>
          <path class="cls-4" d="M423.9,107.56c-3.94-.26-7.75.67-8.61,4.39-.31,1.33.3,13.34,6.72,15.14,2.71.76,7.9-3.89,8.11-7,0,0,.28-4.31.28-4.35C430.68,111.51,428.12,107.84,423.9,107.56Z"/>
          <path class="cls-18" d="M442,132.69c-2.22-.53-8.81-2.32-8.81-2.32s-1.29,1.81-5.31,2.66a11.11,11.11,0,0,1-6.36-.47s-7.61,2.33-9,3.14c-5.36,3.13-5.39,5.39-5.74,12.77-.16,3.43-.23,56.23-8.58,68.37.28.49,3.29,7.69,10.18,9.51l1.69-14.93L411.63,227c16.14,3.47,28.51-2.92,41.48-4.9l1.24-19.6,3.73,18.89c1.26-.15,2.39-.27,3.38-.35-.17-29.93-8.46-74.91-8.82-76.27C451.09,139,448.7,134.27,442,132.69Z"/>
          <path class="cls-20" d="M432.14,102.8C426,98,415.6,102.65,412.88,109c-2,4.71-3.92,1.44-3.73.19-.61,3.13.71,5.84,6.76,5.39,1.27-.1-2.81,1.16-2.81,1.16s6.46,13.39,16.43,10.11a15.25,15.25,0,0,0,5.55-3.87s-3.23.54-1.53-2.1C436.85,114.73,437.57,107.06,432.14,102.8Z"/>
          <path class="cls-4" d="M356,182.42c-.31.42,1.23,2.14,1.73,2.3,1.31,0,1.32-.75,2.54-.56a11.25,11.25,0,0,1-3-1.51C356.86,182.27,356.45,181.72,356,182.42Z"/>
          <path class="cls-4" d="M357.38,184c-1.55,0-5,.28-5.27.31a18.77,18.77,0,0,0-3,.37A3,3,0,0,0,348,186a.89.89,0,0,0,.44.89c-.29.7,1.57,1.09,1.46,1.25-.45.63.27,1.44,3,1.13.16,0,7,.53,9.16.53a27.46,27.46,0,0,0-.8-5.53A28.45,28.45,0,0,0,357.38,184Z"/>
          <path class="cls-4" d="M396.71,176.32a4,4,0,0,0-1.24.23c-6.18,2.31-28.56,6.53-35.39,7.92a21.92,21.92,0,0,1,1.72,5.3c11.19-2.52,39.31-3.56,39.61-8.13C401.68,177.45,398.78,176.25,396.71,176.32Z"/>
          <path class="cls-4" d="M409.3,143.49c-3.51,5-10.24,23.54-15.16,31.79-6,10.13,3.19,10.72,6,8.25,7.42-6.53,24.68-27.94,21.69-32.14C420.54,149.57,409.93,142.58,409.3,143.49Z"/>
          <path class="cls-18" d="M408,140c-2.2,5.85-4.3,11.24-7.05,17.55s-8.81,18.37-9.11,19c-2.57,1.23-26.84,5.61-30.8,6.41l1,8.08c9.81-.85,33.31-1.41,39-6.61,6-5.34,25.49-27,23.06-33.57S408.21,139.58,408,140Z"/>
          <polygon class="cls-7" points="466.41 248.95 486.68 307.96 488.95 307.96 468.68 248.95 466.41 248.95"/>
          <polygon class="cls-7" points="432.14 248.95 452.41 307.96 454.69 307.96 434.42 248.95 432.14 248.95"/>
          <path class="cls-7" d="M470.92,161.72c-14.22,0-27.9,11.52-30.56,25.73l-8.9,37c-1.56,8.36-10.72,14.41-19.21,14.41H393.74a5.05,5.05,0,0,0,0,10.1l76.33.08a7.39,7.39,0,0,0,7.26-6l14.51-55.55C494.5,173.24,485.13,161.72,470.92,161.72Z"/>
          <path class="cls-11" d="M470.92,161.71c-14.22,0-27.9,11.53-30.56,25.74l-8.9,37c-1.56,8.35-10.72,14.44-19.21,14.44H393.74a5,5,0,1,0,0,10.05l2.4,0a5.08,5.08,0,0,1,4.64-3.1h18.51c8.5,0,17.65-6,19.22-14.38l8.89-36.94c2.67-14.21,16.35-25.73,30.56-25.73a22.45,22.45,0,0,1,11.43,3C485.81,165.64,479.2,161.71,470.92,161.71Z"/>
          <polygon class="cls-11" points="387.61 307.96 389.88 307.96 410.15 248.95 407.88 248.95 387.61 307.96"/>
          <polygon class="cls-11" points="421.88 307.96 424.15 307.96 444.42 248.95 442.15 248.95 421.88 307.96"/>
          <rect class="cls-6" x="233.53" y="160.87" width="12.41" height="8.59" transform="translate(-29.88 274.99) rotate(-56.73)"/>
          <path class="cls-7" d="M237.86,168a6.1,6.1,0,0,0-8.45,1.76l-19.93,30.38a6.1,6.1,0,1,0,10.2,6.69l19.93-30.38A6.1,6.1,0,0,0,237.86,168Z"/>
          <path class="cls-6" d="M253,87.23a41.72,41.72,0,0,0,1.74,80.07,41.1,41.1,0,0,0,23-.47h0A41.67,41.67,0,1,0,253,87.23Zm43.66,56a35.71,35.71,0,0,1-20.88,17.29,34.53,34.53,0,0,1-19.32.39,35.1,35.1,0,0,1-5.12-66A36.58,36.58,0,0,1,255,93.56a35,35,0,0,1,41.66,49.66Z"/>
        </g>
      </g>
    </g>
  </g>
</svg>
