<?xml version="1.0" encoding="UTF-8"?><svg id="Layer_10" xmlns="http://www.w3.org/2000/svg" xmlns:xlink="http://www.w3.org/1999/xlink" viewBox="0 0 1890 298.42"><defs><style>.cls-1,.cls-2,.cls-3,.cls-4,.cls-5,.cls-6,.cls-7,.cls-8,.cls-9,.cls-10,.cls-11,.cls-12,.cls-13,.cls-14,.cls-15,.cls-16,.cls-17,.cls-18,.cls-19,.cls-20,.cls-21,.cls-22,.cls-23,.cls-24,.cls-25,.cls-26,.cls-27,.cls-28,.cls-29,.cls-30,.cls-31,.cls-32,.cls-33,.cls-34,.cls-35,.cls-36,.cls-37,.cls-38,.cls-39,.cls-40,.cls-41,.cls-42,.cls-43,.cls-44,.cls-45,.cls-46,.cls-47,.cls-48,.cls-49,.cls-50,.cls-51,.cls-52,.cls-53,.cls-54,.cls-55,.cls-56,.cls-57,.cls-58,.cls-59,.cls-60{stroke-width:0px;}.cls-1,.cls-61,.cls-62{fill:#a3ea2a;}.cls-1,.cls-63{opacity:.15;}.cls-2{fill:url(#linear-gradient-12);}.cls-64{fill:#50a0ff;stroke:#50a0ff;stroke-width:.71px;}.cls-64,.cls-65{stroke-linecap:round;stroke-linejoin:round;}.cls-3{fill:url(#linear-gradient-17);}.cls-4{fill:url(#linear-gradient-19);}.cls-5{fill:url(#linear-gradient-33);}.cls-6{fill:#3bc81e;}.cls-7{fill:url(#linear-gradient);}.cls-8{fill:#432918;}.cls-66{fill:#223654;stroke:#a3ea2a;stroke-width:1.4px;}.cls-66,.cls-67,.cls-68,.cls-69{stroke-miterlimit:10;}.cls-9{fill:#000;}.cls-10{fill:url(#linear-gradient-21);}.cls-11{fill:url(#linear-gradient-6);}.cls-12,.cls-14{opacity:.3;}.cls-12,.cls-28,.cls-41{fill:#151c2b;}.cls-13{isolation:isolate;opacity:.79;}.cls-13,.cls-58{fill:#3369ff;}.cls-65{stroke:#727c92;stroke-width:4px;}.cls-65,.cls-22{fill:none;}.cls-14,.cls-36,.cls-60{fill:#7a1123;}.cls-70{clip-path:url(#clippath-2);}.cls-71{opacity:.2;}.cls-15{fill:#1c2538;}.cls-61{font-size:14.89px;}.cls-61,.cls-62{font-family:MyriadPro-Regular, 'Myriad Pro';}.cls-16{fill:#edb67a;}.cls-17{fill:#936037;opacity:.58;}.cls-18{fill:url(#linear-gradient-15);}.cls-19{fill:url(#linear-gradient-11);}.cls-20{fill:#223654;}.cls-21{fill:url(#linear-gradient-5);}.cls-23{fill:url(#linear-gradient-31);}.cls-24{fill:#727c92;}.cls-25{fill:url(#linear-gradient-34);}.cls-72{clip-path:url(#clippath-1);}.cls-26{fill:url(#linear-gradient-13);}.cls-27{fill:url(#linear-gradient-23);}.cls-29{fill:url(#linear-gradient-25);}.cls-73{opacity:.4;}.cls-62{font-size:14.89px;}.cls-30{fill:url(#linear-gradient-16);}.cls-31{fill:url(#linear-gradient-22);}.cls-32{fill:url(#linear-gradient-32);}.cls-33{fill:url(#linear-gradient-14);}.cls-34{fill:url(#linear-gradient-2);}.cls-67{stroke-width:.1px;}.cls-67,.cls-52,.cls-68{fill:#fff;}.cls-67,.cls-68,.cls-69{stroke:#fff;}.cls-35{fill:#1d1d1b;}.cls-36{opacity:.6;}.cls-37{fill:url(#linear-gradient-7);}.cls-38{fill:url(#linear-gradient-20);opacity:.22;}.cls-39{fill:url(#radial-gradient-2);}.cls-40{fill:#ecbb0a;}.cls-41{opacity:.32;}.cls-42{fill:url(#linear-gradient-3);}.cls-74{clip-path:url(#clippath);}.cls-43{fill:url(#linear-gradient-9);}.cls-44{fill:url(#linear-gradient-27);}.cls-45{fill:url(#radial-gradient);}.cls-46,.cls-69{fill:#eb0037;}.cls-47{fill:url(#linear-gradient-8);}.cls-48{fill:url(#linear-gradient-24);}.cls-49{fill:url(#linear-gradient-26);}.cls-50{fill:url(#linear-gradient-18);}.cls-51{fill:url(#linear-gradient-30);}.cls-53{fill:#d4d8df;}.cls-54{fill:url(#linear-gradient-29);}.cls-68,.cls-69{stroke-width:2px;}.cls-55{fill:url(#linear-gradient-28);}.cls-56{fill:url(#linear-gradient-10);}.cls-57{fill:url(#radial-gradient-3);}.cls-59{fill:url(#linear-gradient-4);}</style><clipPath id="clippath"><rect class="cls-22" x="-5" y="-.79" width="1900" height="300"/></clipPath><linearGradient id="linear-gradient" x1="-12.92" y1="-1177.34" x2="1902.92" y2="-1177.34" gradientTransform="translate(0 1326.55)" gradientUnits="userSpaceOnUse"><stop offset="0" stop-color="#223654"/><stop offset=".13" stop-color="#263453"/><stop offset=".27" stop-color="#333151"/><stop offset=".42" stop-color="#482b4e"/><stop offset=".57" stop-color="#66234a"/><stop offset=".72" stop-color="#8d1944"/><stop offset=".87" stop-color="#bc0c3d"/><stop offset="1" stop-color="#eb0037"/></linearGradient><linearGradient id="linear-gradient-2" x1="1111.79" y1="205.79" x2="1110.53" y2="288.56" gradientUnits="userSpaceOnUse"><stop offset=".42" stop-color="#9da8c4"/><stop offset=".66" stop-color="#4f5669"/><stop offset=".84" stop-color="#1a1a1a"/></linearGradient><linearGradient id="linear-gradient-3" x1="1128.24" y1="270.76" x2="1149.54" y2="229.42" xlink:href="#linear-gradient-2"/><linearGradient id="linear-gradient-4" x1="1180.67" y1="321.48" x2="1328.92" y2="33.7" xlink:href="#linear-gradient-2"/><linearGradient id="linear-gradient-5" x1="1114.29" y1="368.06" x2="1114.29" y2="175.13" xlink:href="#linear-gradient-2"/><linearGradient id="linear-gradient-6" x1="1011.28" y1="33" x2="1619.46" y2="472.51" gradientUnits="userSpaceOnUse"><stop offset="0" stop-color="#9da8c4"/><stop offset=".57" stop-color="#4f5669"/><stop offset="1" stop-color="#444b5c"/></linearGradient><linearGradient id="linear-gradient-7" x1="2794.5" y1="4802.14" x2="2793.31" y2="4880.89" gradientTransform="translate(3892.99 5118.18) rotate(-180)" xlink:href="#linear-gradient-2"/><linearGradient id="linear-gradient-8" x1="1129.33" y1="195.8" x2="1129.33" y2="-6.18" gradientUnits="userSpaceOnUse"><stop offset="0" stop-color="#223654"/><stop offset=".57" stop-color="#131b28"/></linearGradient><linearGradient id="linear-gradient-9" x1="1300.3" y1="-1.63" x2="1308.16" y2="-8.77" gradientTransform="translate(-118.81 -448.24) rotate(30)" gradientUnits="userSpaceOnUse"><stop offset=".14" stop-color="#eb0037"/><stop offset=".28" stop-color="#e50036"/><stop offset=".45" stop-color="#d70233"/><stop offset=".63" stop-color="#be062f"/><stop offset=".83" stop-color="#9d0b29"/><stop offset=".99" stop-color="#7a1123"/></linearGradient><linearGradient id="linear-gradient-10" x1="1298.33" y1="-18.45" x2="1302.24" y2="-15.21" gradientTransform="translate(-118.81 -448.24) rotate(30)" gradientUnits="userSpaceOnUse"><stop offset=".14" stop-color="#eb0037"/><stop offset=".58" stop-color="#ae092c"/><stop offset=".99" stop-color="#7a1123"/></linearGradient><linearGradient id="linear-gradient-11" x1="1301.39" y1="-31.83" x2="1304.08" y2="-26.38" gradientTransform="translate(-118.81 -448.24) rotate(30)" gradientUnits="userSpaceOnUse"><stop offset="0" stop-color="#eb0037"/><stop offset=".18" stop-color="#d50333"/><stop offset=".56" stop-color="#9f0b29"/><stop offset=".81" stop-color="#7a1123"/></linearGradient><linearGradient id="linear-gradient-12" x1="1341.25" y1="1.61" x2="1334.54" y2="-4.58" xlink:href="#linear-gradient-9"/><linearGradient id="linear-gradient-13" x1="1343.56" y1="-11.53" x2="1335.9" y2="-16.67" xlink:href="#linear-gradient-9"/><linearGradient id="linear-gradient-14" x1="1340.22" y1="-25.17" x2="1333" y2="-22.78" xlink:href="#linear-gradient-9"/><linearGradient id="linear-gradient-15" x1="1320.08" y1="-43.21" x2="1319.78" y2="-29.31" xlink:href="#linear-gradient-9"/><linearGradient id="linear-gradient-16" x1="1311.81" y1="4.22" x2="1317.29" y2="-28.8" gradientTransform="translate(-118.81 -448.24) rotate(30)" gradientUnits="userSpaceOnUse"><stop offset="0" stop-color="#eb0037"/><stop offset=".02" stop-color="#e60036"/><stop offset=".13" stop-color="#c40530"/><stop offset=".26" stop-color="#a9092b"/><stop offset=".39" stop-color="#940d27"/><stop offset=".55" stop-color="#850f25"/><stop offset=".72" stop-color="#7c1023"/><stop offset=".99" stop-color="#7a1123"/></linearGradient><linearGradient id="linear-gradient-17" x1="1312.53" y1="-47.72" x2="1308.15" y2="-39.88" xlink:href="#linear-gradient-9"/><linearGradient id="linear-gradient-18" x1="1323.46" y1="-40.3" x2="1334.91" y2="-40.3" gradientTransform="translate(-118.81 -448.24) rotate(30)" gradientUnits="userSpaceOnUse"><stop offset="0" stop-color="#eb0037"/><stop offset=".99" stop-color="#7a1123"/></linearGradient><clipPath id="clippath-1"><path class="cls-22" d="M1039.92,184.61s3.47.4,5.9,3.85c2.44,3.46,2.81,8.44-.49,16.49-3.28,8-10.4,11.71-14.49,11.18-3.89-.51-5.84-2.1-5.84-2.1l14.92-29.42Z"/></clipPath><radialGradient id="radial-gradient" cx="816.75" cy="174.37" fx="816.75" fy="174.37" r="30.37" gradientTransform="translate(83.14 -96.13) rotate(7.32)" gradientUnits="userSpaceOnUse"><stop offset=".51" stop-color="#fff" stop-opacity="0"/><stop offset=".56" stop-color="rgba(251,253,255,.02)" stop-opacity=".02"/><stop offset=".62" stop-color="rgba(241,247,255,.08)" stop-opacity=".08"/><stop offset=".69" stop-color="rgba(225,238,255,.17)" stop-opacity=".17"/><stop offset=".76" stop-color="rgba(202,226,255,.3)" stop-opacity=".3"/><stop offset=".83" stop-color="rgba(172,210,255,.47)" stop-opacity=".47"/><stop offset=".9" stop-color="rgba(136,190,255,.68)" stop-opacity=".68"/><stop offset=".98" stop-color="rgba(94,167,255,.92)" stop-opacity=".92"/><stop offset="1" stop-color="#50a0ff"/></radialGradient><radialGradient id="radial-gradient-2" cx="902.82" cy="94.87" fx="902.82" fy="94.87" r="49.41" gradientTransform="translate(3.47 .55)" xlink:href="#radial-gradient"/><linearGradient id="linear-gradient-19" x1="896.42" y1="83.62" x2="897.02" y2="142.39" gradientUnits="userSpaceOnUse"><stop offset="0" stop-color="#ca9e67"/><stop offset=".22" stop-color="#c79b64"/><stop offset=".37" stop-color="#be925d"/><stop offset=".5" stop-color="#af8250"/><stop offset=".62" stop-color="#9a6c3d"/><stop offset=".73" stop-color="#7f5026"/><stop offset=".74" stop-color="#7d4e24"/></linearGradient><linearGradient id="linear-gradient-20" x1="896.29" y1="70.07" x2="896.88" y2="128.84" gradientUnits="userSpaceOnUse"><stop offset="0" stop-color="#f39200"/><stop offset=".13" stop-color="rgba(243,146,0,.78)" stop-opacity=".78"/><stop offset=".35" stop-color="rgba(243,146,0,.45)" stop-opacity=".45"/><stop offset=".53" stop-color="rgba(243,146,0,.21)" stop-opacity=".21"/><stop offset=".67" stop-color="rgba(243,146,0,.06)" stop-opacity=".06"/><stop offset=".74" stop-color="#f39200" stop-opacity="0"/></linearGradient><clipPath id="clippath-2"><path class="cls-22" d="M923.83,97.58c0-6.5-2.05-12.6-5.53-17.49h0s1.27-2.49-1.14-3.33c-.67-.23-1.62-.6-2.67-1.01-3.49-3.25-7.88-5.67-12.94-6.68-2.43-.48-4.86-.61-7.24-.4-.94-1.06-2.12-2.02-3.05-1.65-1.92.77-5.63,3.95-6.24,4.26-.01,0-.03.02-.04.02-2.74,1.36-5.25,3.21-7.45,5.48-.03.02-.04.03-.04.03,0,0-6.43,1.67-6.43,2.9s-.35,6.34,0,7.51c0,0,0,0,0,0-1.14,3.2-1.77,6.67-1.77,10.29,0,4.7,1.05,9.13,2.92,13.06,0,0,0,.02,0,.02.03.05.06.13.1.22,0,.02.02.04.03.06.85,1.83,4.46,9.89,8.21,12.17,3.81,2.32,12,3.18,12,3.18h.02c2.94.46,5.96.42,8.98-.17.32-.06.63-.14.94-.21,1.54.28,3.29.2,4.78-.92,3.34-2.51,4.62-3.38,4.62-3.38l2.59-.46.7-2.34c5.37-5.33,8.65-12.97,8.65-21.16Z"/></clipPath><linearGradient id="linear-gradient-21" x1="907.12" y1="72.77" x2="907.74" y2="76.53" gradientUnits="userSpaceOnUse"><stop offset="0" stop-color="#683c11"/><stop offset=".21" stop-color="#503015"/><stop offset=".38" stop-color="#432918"/></linearGradient><linearGradient id="linear-gradient-22" x1="886.91" y1="74.59" x2="887.16" y2="77.18" xlink:href="#linear-gradient-21"/><linearGradient id="linear-gradient-23" x1="896.78" y1="92.24" x2="898.85" y2="97.09" gradientUnits="userSpaceOnUse"><stop offset="0" stop-color="#683c11"/><stop offset=".32" stop-color="#503015"/><stop offset=".58" stop-color="#432918"/></linearGradient><linearGradient id="linear-gradient-24" x1="910.1" y1="110.88" x2="912.43" y2="115.34" gradientUnits="userSpaceOnUse"><stop offset="0" stop-color="#683c11"/><stop offset=".41" stop-color="#503015"/><stop offset=".74" stop-color="#432918"/></linearGradient><linearGradient id="linear-gradient-25" x1="884.91" y1="113" x2="888.09" y2="118.86" xlink:href="#linear-gradient-21"/><linearGradient id="linear-gradient-26" x1="899.39" y1="121.77" x2="900.29" y2="126.59" xlink:href="#linear-gradient-21"/><linearGradient id="linear-gradient-27" x1="874.44" y1="95.24" x2="875.43" y2="98.81" xlink:href="#linear-gradient-21"/><linearGradient id="linear-gradient-28" x1="780.22" y1="173.04" x2="796.49" y2="173.04" gradientTransform="translate(128.58 -157) rotate(11.55)" gradientUnits="userSpaceOnUse"><stop offset=".11" stop-color="#223654"/><stop offset="1" stop-color="#a2e92a"/></linearGradient><linearGradient id="linear-gradient-29" x1="779.53" y1="173.81" x2="794.78" y2="173.81" xlink:href="#linear-gradient-28"/><linearGradient id="linear-gradient-30" x1="781.96" y1="171.78" x2="797.17" y2="171.78" xlink:href="#linear-gradient-28"/><linearGradient id="linear-gradient-31" x1="1263.91" y1="449.26" x2="1280.19" y2="449.26" gradientTransform="translate(281.21 1405.95) rotate(-83.7)" xlink:href="#linear-gradient-28"/><linearGradient id="linear-gradient-32" x1="1263.23" y1="450.03" x2="1278.47" y2="450.03" gradientTransform="translate(281.21 1405.95) rotate(-83.7)" xlink:href="#linear-gradient-28"/><linearGradient id="linear-gradient-33" x1="1265.66" y1="448" x2="1280.87" y2="448" gradientTransform="translate(281.21 1405.95) rotate(-83.7)" xlink:href="#linear-gradient-28"/><radialGradient id="radial-gradient-3" cx="802.02" cy="140.73" fx="802.02" fy="140.73" r="37.6" gradientTransform="translate(3.47 .55)" xlink:href="#radial-gradient"/><linearGradient id="linear-gradient-34" x1="1154.31" y1="204.92" x2="1152.84" y2="302.12" xlink:href="#linear-gradient-2"/></defs><g class="cls-74"><rect class="cls-7" x="-12.92" y="-9.37" width="1915.85" height="317.16" transform="translate(1890 298.42) rotate(180)"/><polygon class="cls-34" points="1057.86 257.74 1089.4 247.4 1164.19 254.33 1136.7 267.52 1057.86 257.74"/><polygon class="cls-42" points="1145.32 259.6 1145.32 230.34 1139.16 227.59 1139.18 258.44 1145.32 259.6"/><g class="cls-63"><path class="cls-46" d="M-311.92,138.13c.07,1.87,1.52,3.35,3.33,3.52.16.02.33.02.49.01l11.3-.45c43.25,40.45,68.35,95.13,70.84,154.29l-7.71,8.28c-1.39,1.49-1.3,3.82.19,5.21.62.58,1.38.9,2.16.97,1.1.1,2.23-.29,3.04-1.16l7.72-8.29c59.45-1.99,116.11,18.81,159.88,58.7l.4,11.24c.07,1.87,1.52,3.37,3.33,3.54.16.01.32.02.48.01,2.03-.07,3.62-1.78,3.55-3.81l-.4-11.25c40.82-43.28,95.85-68.54,155.28-71.29l8.27,7.64c.62.57,1.38.89,2.15.96,1.1.1,2.24-.29,3.05-1.17,1.38-1.49,1.29-3.83-.21-5.21l-8.27-7.63c-1.72-59.2,19.43-115.73,59.69-159.52l11.12-.44,3.49.24,9.56,4.59c19.27,55.99,15.84,116.06-9.67,169.5l-10.69,3.7c-1.92.67-2.94,2.76-2.27,4.69.49,1.41,1.75,2.33,3.14,2.46.51.05,1.03-.01,1.55-.19l10.7-3.71c53.46,26.08,93.78,71,113.77,126.74l-4.91,10.12c-.89,1.83-.12,4.03,1.71,4.92.41.2.84.31,1.26.35,1.49.14,2.97-.64,3.66-2.06l4.92-10.13c56.34-19.12,116.79-15.67,170.59,9.73l3.73,10.62c.49,1.4,1.75,2.32,3.13,2.45.51.05,1.04-.01,1.56-.19,1.92-.67,2.93-2.78,2.25-4.7l-3.73-10.61c26.2-53.11,71.37-93.15,127.44-112.99l10.21,4.9c.4.19.83.31,1.25.35,1.49.14,2.98-.65,3.66-2.07.88-1.83.11-4.03-1.73-4.91l-10.2-4.9c-19.27-55.99-15.84-116.06,9.67-169.5l10.05-3.48,3,.08,11.31-.45c43.24,40.45,68.35,95.13,70.84,154.29l-7.71,8.28c-1.39,1.49-1.3,3.82.19,5.21.62.58,1.38.9,2.17.97,1.1.1,2.23-.29,3.04-1.16l7.72-8.29c59.45-1.99,116.11,18.81,159.88,58.7l.4,11.24c.07,1.87,1.52,3.37,3.33,3.54.16.01.32.02.48.01,2.03-.07,3.62-1.78,3.55-3.81l-.4-11.25c40.82-43.28,95.85-68.54,155.28-71.29l8.27,7.64c.62.57,1.38.89,2.15.96,1.1.1,2.24-.29,3.05-1.17,1.38-1.49,1.29-3.83-.21-5.21l-8.27-7.63c-1.72-59.2,19.43-115.73,59.69-159.51l11.31-.45c2.03-.08,3.62-1.79,3.53-3.83-.08-2.03-1.8-3.61-3.83-3.53l-11.3.45c-43.24-40.45-68.35-95.13-70.84-154.29l7.71-8.28c1.39-1.49,1.3-3.82-.19-5.21-1.49-1.39-3.82-1.3-5.21.19l-7.72,8.29c-59.45,1.99-116.11-18.81-159.88-58.7l-.4-11.24c-.07-2.03-1.78-3.62-3.81-3.55-2.03.07-3.62,1.78-3.55,3.81l.4,11.25c-40.82,43.28-95.85,68.54-155.28,71.29l-8.27-7.64c-1.49-1.38-3.83-1.29-5.21.21-1.38,1.49-1.29,3.83.21,5.21l8.26,7.63c1.72,59.2-19.43,115.73-59.69,159.52l-11.19.45-3.98-.11-11.34,3.93c-53.46-26.08-93.78-71-113.77-126.74l4.91-10.12c.89-1.83.12-4.03-1.71-4.92-1.83-.89-4.03-.12-4.92,1.71l-4.92,10.13c-56.34,19.12-116.79,15.67-170.58-9.73l-3.73-10.62c-.67-1.92-2.78-2.93-4.7-2.25-1.92.67-2.93,2.78-2.25,4.7l3.73,10.61c-26.2,53.11-71.37,93.15-127.44,112.99l-10.21-4.9s0,0,0,0l-.64-.31-.74-.05s-.05,0-.07,0l-3.93-.25c-.24-.04-.5-.06-.75-.05l-11.3.45C123.14,74.92,98.03,20.24,95.54-38.92l7.71-8.28c1.39-1.49,1.3-3.82-.18-5.21-1.49-1.39-3.82-1.3-5.21.19l-7.72,8.29c-59.45,1.99-116.11-18.81-159.88-58.7l-.4-11.24c-.07-2.03-1.78-3.62-3.81-3.55-2.03.07-3.62,1.78-3.55,3.81l.4,11.25C-117.92-59.09-172.95-33.82-232.38-31.07l-8.27-7.64c-1.5-1.38-3.82-1.29-5.21.21-1.38,1.49-1.29,3.83.21,5.21l8.26,7.63c1.72,59.2-19.43,115.73-59.69,159.52l-11.31.45c-2.03.08-3.62,1.79-3.53,3.83ZM-229.92-18.78l28.66,26.46c1.25,46.08-15.21,90.07-46.48,124.2l-39.1,1.56c18.21-21.05,32.39-44.91,42.16-71.04,9.79-26.16,14.73-53.43,14.76-81.18ZM63.43,242.04l-28.69-26.49c-.79-32.96,10.98-64.41,33.27-88.89l39.14-1.56c-13.8,16.27-24.57,34.63-32.08,54.68-7.51,20.07-11.41,40.98-11.65,62.26ZM-193.84,14.54l28.69,26.49c.79,32.96-10.98,64.41-33.27,88.89l-39.14,1.56c13.8-16.27,24.57-34.63,32.08-54.68,7.51-20.07,11.41-40.98,11.65-62.26ZM-116.79,75.65c16.88-2.32,32.53-9.5,45.28-20.79l2.3,64.73-47.59-43.94ZM-74.24,124.96l-64.97,2.59c10.33-13.52,16.34-29.6,17.38-46.53l47.59,43.94ZM-64.14,54.53c12.69,9.62,27.67,15.45,43.51,16.93,1.03.1,2.07.17,3.11.23l-44.31,47.59-2.3-64.75ZM-12.1,76.67c2.25,16.79,9.39,32.34,20.66,44.99l-64.97,2.59L-12.1,76.67ZM8.8,129.03c-10.33,13.52-16.34,29.6-17.38,46.53l-47.59-43.94,64.97-2.59ZM-13.62,180.93c-16.88,2.32-32.53,9.5-45.28,20.79l-2.3-64.73,47.59,43.94ZM-66.27,202.03c-13.52-10.24-29.63-16.17-46.62-17.14l44.31-47.58,2.3,64.73ZM-118.31,179.91c-2.25-16.79-9.39-32.34-20.66-44.99l64.97-2.59-44.31,47.58ZM-188.34,129.51c19.09-23.25,29.73-51.73,30.54-81.7l28.75,26.55c.33,19.84-6.75,38.76-20.06,53.59l-39.24,1.56ZM-152.76,42.44c29.95-3.06,57.67-15.79,79.51-36.51l1.39,39.07c-13.86,14.34-32.28,22.8-52.18,23.96l-28.72-26.52ZM-65.88,5.63C-45.14,22.51-20.17,32.68,6.33,35.16c3.2.3,6.41.48,9.65.55l-26.76,28.73c-19.92.43-38.89-6.53-53.71-19.71l-1.39-39.1ZM21.41,40.69c1.46,14.73,5.33,29,11.54,42.54,6.21,13.53,14.52,25.77,24.74,36.48l-39.28,1.57c-14.31-13.72-22.71-32.02-23.79-51.81l26.79-28.77ZM57.93,127.07c-19.09,23.25-29.73,51.73-30.54,81.7L-1.37,182.22c-.33-19.84,6.75-38.76,20.06-53.58l39.24-1.56ZM22.35,214.14c-29.95,3.06-57.67,15.79-79.51,36.51l-1.39-39.07c13.86-14.34,32.28-22.8,52.18-23.96l28.72,26.52ZM-64.52,250.96c-23.25-18.92-51.79-29.41-81.87-30.09l26.76-28.74c19.93-.43,38.89,6.53,53.71,19.71l1.39,39.11ZM-151.82,215.89c-1.46-14.73-5.33-29-11.54-42.54-6.21-13.53-14.52-25.77-24.74-36.48l39.28-1.57c14.31,13.72,22.71,32.02,23.79,51.81l-26.79,28.77ZM-188.8,9.16c21.28-1.84,41.91-7.29,61.44-16.25,19.53-8.97,37.11-21.06,52.37-36l1.39,38.98c-22.85,23.98-53.47,38.03-86.54,39.73l-28.65-26.46ZM-67.63-43.41C-51.34-29.71-32.94-19.05-12.82-11.66,2.23-6.13,17.75-2.62,33.56-1.14c5.3.5,10.63.76,15.99.79l-26.69,28.67c-33.1.94-64.62-10.63-89.1-32.71l-1.39-39.02ZM54.98,4.64c1.75,21.19,7.13,41.7,16.04,61.11,8.91,19.41,20.97,36.86,35.89,51.99l-39.18,1.56c-23.95-22.63-37.92-53.05-39.47-85.97L54.98,4.64ZM58.39,247.42c-21.28,1.84-41.91,7.29-61.44,16.25-19.53,8.97-37.11,21.06-52.37,36l-1.39-38.98c22.85-23.98,53.47-38.04,86.54-39.73l28.65,26.46ZM-62.78,299.99c-16.29-13.69-34.69-24.36-54.81-31.75-20.1-7.38-41.04-11.17-62.37-11.31l26.69-28.67c33.09-.94,64.62,10.63,89.1,32.71l1.39,39.02ZM-185.39,251.94c-1.75-21.19-7.13-41.7-16.04-61.11-8.91-19.41-20.97-36.86-35.89-51.99l39.18-1.56c23.95,22.64,37.92,53.05,39.47,85.97l-26.72,28.7ZM-76.74-92.18l1.39,38.94C-107.18-19.61-150.01.05-196.26,2.27l-28.63-26.43c27.78-2.13,54.71-9.09,80.15-20.77,25.45-11.68,48.28-27.57,68-47.25ZM83.16-36.43L56.5-7.81c-46.27,1.47-90.36-14.72-124.49-45.71l-1.39-38.98C-48.3-74.43-24.4-60.4,1.81-50.77c19.07,7,38.74,11.46,58.78,13.33,7.48.7,15.01,1.03,22.57,1.01ZM156.2,115.78l-39.14,1.56C83.46,85.79,63.92,43.25,61.9-2.79l26.7-28.67c2.01,27.66,8.88,54.44,20.49,79.73,11.61,25.29,27.45,47.95,47.11,67.51ZM251.86,215.62c1.22-21.32-1.26-42.39-7.36-62.75l35.35,16.97c10.56,31.22,8.66,64.63-5.39,94.44l-37.05,12.84c8.38-19.54,13.23-40.19,14.45-61.5ZM551.16,232.69c-1.22,21.32,1.26,42.39,7.36,62.75l-35.35-16.97c-10.56-31.22-8.66-64.63,5.39-94.44l37.05-12.84c-8.38,19.54-13.23,40.19-14.45,61.5ZM1006.42,248.67l-28.69-26.49c-.79-32.96,10.98-64.41,33.27-88.89l39.14-1.56c-13.8,16.27-24.57,34.63-32.08,54.68-7.51,20.07-11.41,40.98-11.65,62.26ZM749.16,21.16l28.69,26.49c.79,32.96-10.98,64.41-33.27,88.89l-39.14,1.56c13.8-16.27,24.57-34.63,32.08-54.68,7.51-20.07,11.41-40.98,11.65-62.26ZM803.79,134.18c10.33-13.52,16.34-29.6,17.38-46.53l47.59,43.94-64.97,2.59ZM826.21,82.27c16.88-2.32,32.53-9.5,45.28-20.79l2.3,64.73-47.59-43.94ZM878.85,61.15c12.69,9.62,27.67,15.45,43.51,16.93,1.03.1,2.07.17,3.11.23l-44.31,47.59-2.3-64.75ZM930.89,83.3c2.25,16.79,9.39,32.34,20.66,44.99l-64.97,2.59,44.31-47.58ZM951.79,135.65c-10.33,13.52-16.34,29.6-17.38,46.53l-47.59-43.94,64.97-2.59ZM929.37,187.55c-16.88,2.32-32.53,9.5-45.28,20.79l-2.3-64.73,47.59,43.94ZM876.73,208.66c-13.52-10.24-29.63-16.17-46.62-17.14l44.31-47.58,2.3,64.73ZM824.69,186.53c-2.25-16.79-9.39-32.34-20.66-44.99l64.97-2.59-44.31,47.58ZM754.66,136.14c19.09-23.25,29.73-51.73,30.54-81.7l28.75,26.55c.33,19.84-6.75,38.76-20.06,53.58l-39.23,1.56ZM790.24,49.06c29.95-3.06,57.67-15.79,79.51-36.51l1.39,39.07c-13.86,14.34-32.28,22.8-52.18,23.96l-28.72-26.52ZM877.11,12.25c20.75,16.88,45.71,27.05,72.21,29.53,3.2.3,6.41.48,9.65.55l-26.76,28.73c-19.92.43-38.89-6.53-53.71-19.71l-1.39-39.1ZM964.41,47.31c1.46,14.73,5.33,29,11.54,42.54,6.21,13.53,14.52,25.77,24.74,36.48l-39.28,1.57c-14.31-13.72-22.71-32.01-23.79-51.81l26.79-28.77ZM1000.92,133.69c-19.09,23.25-29.73,51.73-30.54,81.7l-28.76-26.55c-.33-19.84,6.75-38.75,20.06-53.58l39.24-1.56ZM965.35,220.77c-29.95,3.06-57.67,15.79-79.51,36.51l-1.39-39.07c13.85-14.34,32.28-22.8,52.18-23.96l28.72,26.52ZM878.47,257.59c-23.25-18.92-51.79-29.41-81.87-30.09l26.76-28.74c19.92-.43,38.89,6.53,53.71,19.71l1.39,39.11ZM791.18,222.52c-1.46-14.73-5.33-29-11.54-42.54-6.21-13.53-14.52-25.77-24.74-36.48l39.28-1.57c14.31,13.72,22.71,32.01,23.79,51.81l-26.79,28.77ZM754.19,15.79c21.28-1.84,41.91-7.29,61.44-16.25,19.53-8.97,37.11-21.06,52.37-36l1.39,38.98c-22.85,23.98-53.47,38.04-86.54,39.73l-28.65-26.46ZM875.37-36.78c16.29,13.69,34.69,24.36,54.81,31.75,15.05,5.53,30.57,9.04,46.38,10.52,5.3.5,10.63.76,15.99.79l-26.69,28.67c-33.1.94-64.62-10.63-89.1-32.71l-1.39-39.02ZM997.98,11.26c1.75,21.19,7.13,41.7,16.04,61.11,8.91,19.41,20.97,36.86,35.89,51.99l-39.18,1.56c-23.95-22.63-37.92-53.05-39.47-85.97l26.73-28.7ZM1001.39,254.04c-21.28,1.84-41.91,7.29-61.44,16.25-19.53,8.97-37.11,21.06-52.37,36l-1.39-38.98c22.85-23.98,53.47-38.04,86.54-39.73l28.65,26.46ZM880.21,306.61c-16.29-13.69-34.69-24.36-54.81-31.75-20.1-7.38-41.04-11.17-62.37-11.31l26.69-28.67c33.09-.94,64.62,10.63,89.1,32.71l1.39,39.02ZM757.6,258.57c-1.75-21.19-7.13-41.7-16.04-61.11-8.91-19.41-20.97-36.86-35.89-51.99l39.18-1.56c23.95,22.63,37.92,53.05,39.47,85.97l-26.73,28.7ZM293.67,218c.85-14.87-.76-29.57-4.77-43.82l35.44,17.01c6.22,18.83,5.08,38.92-3.25,56.92l-37.15,12.87c5.6-13.7,8.88-28.12,9.72-42.99ZM509.34,230.3c-.85,14.87.76,29.57,4.77,43.82l-35.44-17.01c-6.22-18.83-5.07-38.92,3.25-56.92l37.14-12.87c-5.6,13.7-8.88,28.12-9.72,42.99ZM336.47,188.85c15.46-7.1,28.3-18.5,37.15-32.97l21.47,61.1-58.62-28.14ZM380.58,153.48c7.02,2.57,14.26,4.21,21.58,4.89,9.38.88,18.87.19,28.17-2.06l-28.28,58.28-21.47-61.11ZM436.98,159.49c7.15,15.38,18.61,28.16,33.16,36.98l-61.44,21.29,28.28-58.27ZM472.6,203.41c-5.87,15.89-6.85,32.97-2.82,49.43l-58.62-28.14,61.43-21.29ZM466.55,259.46c-15.46,7.1-28.3,18.5-37.15,32.97l-21.47-61.1,58.62,28.14ZM422.43,294.82c-16-5.86-33.19-6.84-49.75-2.84l28.28-58.27,21.47,61.11ZM366.03,288.81c-7.15-15.38-18.61-28.16-33.16-36.98l61.44-21.29-28.28,58.27ZM330.41,244.89c5.87-15.89,6.85-32.97,2.82-49.43l58.62,28.14-61.43,21.29ZM292.14,167.57c27.75-11.61,50.5-31.79,65.24-57.88l12.97,36.92c-9,17.68-24.11,31.08-42.82,37.95l-35.4-16.99ZM364.35,107.3c12.41,5.04,25.33,8.18,38.4,9.4,16.31,1.52,32.85.05,48.95-4.43l-17.07,35.17c-18.96,6.18-39.19,5.02-57.33-3.27l-12.96-36.88ZM458.36,115.45c11.68,27.61,31.99,50.24,58.24,64.92l-37.1,12.86c-17.8-8.95-31.3-23.98-38.23-42.57l17.09-35.21ZM510.87,280.74c-27.75,11.61-50.5,31.78-65.24,57.88l-12.97-36.92c9-17.68,24.11-31.08,42.82-37.95l35.4,16.99ZM438.66,341.01c-27.9-11.32-58.35-13.06-87.35-4.98l17.07-35.17c18.96-6.18,39.2-5.02,57.33,3.27l12.96,36.88ZM344.66,332.86c-11.68-27.61-31.99-50.24-58.24-64.93l37.1-12.86c17.8,8.95,31.3,23.98,38.23,42.57l-17.09,35.21ZM247.73,146.25c19.81-7.92,37.93-19.09,53.95-33.29,16.04-14.22,29.28-30.86,39.45-49.56l12.94,36.84c-14.74,29.49-39.87,51.76-71.02,62.96l-35.31-16.95ZM348.09,61.02c17.57,7.46,36.04,12.12,55.08,13.9,2.27.21,4.54.38,6.82.51,21.45,1.22,42.65-1.23,63.13-7.28l-17.03,35.09c-31.42,10.49-65.05,8.57-95.07-5.42l-12.93-36.79ZM479.77,71.31c7.98,19.73,19.24,37.77,33.56,53.72,14.3,15.93,31.03,29.09,49.81,39.21l-37.01,12.83c-29.68-14.67-52.12-39.65-63.41-70.63l17.05-35.13ZM555.28,302.05c-19.81,7.92-37.93,19.09-53.95,33.29-16.04,14.22-29.28,30.86-39.45,49.56l-12.94-36.84c14.74-29.49,39.87-51.76,71.02-62.96l35.31,16.95ZM454.92,387.29c-19.66-8.34-40.45-13.19-61.9-14.41-21.45-1.22-42.65,1.23-63.13,7.28l17.03-35.09c31.42-10.49,65.06-8.57,95.07,5.42l12.93,36.8ZM323.24,376.99c-7.98-19.73-19.24-37.77-33.56-53.72-14.3-15.93-31.03-29.09-49.81-39.21l37.01-12.83c29.68,14.67,52.12,39.66,63.41,70.63l-17.05,35.13ZM324.84,17.07l12.93,36.8c-20.47,41.3-55.62,72.46-99.23,87.97l-35.28-16.93c25.95-10.08,49.65-24.51,70.52-43.02,20.9-18.53,38.03-40.31,51.06-64.82ZM494.56,23.96l-17.01,35.05c-43.88,14.8-90.92,12.12-132.83-7.57l-12.91-36.75c22.9,9.98,47.02,16.2,71.91,18.53,2.87.27,5.75.48,8.64.65,27.95,1.59,55.56-1.75,82.21-9.91ZM609.75,148.09l-36.97,12.81c-41.57-20.37-72.95-55.33-88.59-98.68l17.03-35.09c10.16,25.83,24.71,49.42,43.36,70.2,18.64,20.76,40.54,37.8,65.17,50.76ZM713.07-12.16l28.66,26.46c1.25,46.08-15.21,90.07-46.48,124.2l-39.1,1.56c18.21-21.06,32.39-44.91,42.16-71.04,9.79-26.16,14.73-53.43,14.76-81.18ZM866.26-85.55l1.39,38.94c-31.83,33.63-74.66,53.29-120.91,55.51l-28.62-26.43c27.78-2.13,54.71-9.09,80.15-20.77,25.45-11.68,48.28-27.57,68-47.25ZM1026.15-29.81l-26.66,28.62c-46.27,1.47-90.36-14.72-124.49-45.71l-1.39-38.98c21.07,18.07,44.97,32.09,71.19,41.72,19.07,7,38.74,11.46,58.78,13.33,7.48.7,15.01,1.03,22.57,1.01ZM1099.19,122.4l-39.14,1.56c-33.6-31.54-53.13-74.09-55.15-120.13l26.7-28.67c2.01,27.66,8.88,54.44,20.49,79.73,11.61,25.29,27.45,47.95,47.11,67.51ZM1042.51,281.98l-28.66-26.46c-1.25-46.08,15.21-90.07,46.48-124.2l39.1-1.56c-18.21,21.06-32.39,44.91-42.16,71.04-9.79,26.16-14.73,53.43-14.76,81.18ZM889.32,355.38l-1.39-38.93c31.83-33.63,74.66-53.29,120.91-55.51l28.63,26.43c-27.78,2.13-54.71,9.09-80.15,20.77-25.45,11.68-48.28,27.57-68,47.25ZM729.42,299.65l26.67-28.64c46.27-1.47,90.36,14.72,124.49,45.71l1.39,38.98c-21.07-18.07-44.97-32.09-71.19-41.72-26.19-9.62-53.52-14.42-81.36-14.33ZM656.39,147.43l39.14-1.56c33.6,31.54,53.13,74.09,55.15,120.13l-26.7,28.67c-2.01-27.66-8.88-54.44-20.49-79.73-11.61-25.29-27.45-47.95-47.11-67.51ZM602.99,316.78l-35.32-16.95c-14.91-43.6-12.25-90.35,7.53-131.97l37.01-12.83c-11.18,25.38-17.65,52.26-19.24,80.04-1.58,27.78,1.79,55.22,10.01,81.71ZM478.17,431.24l-12.93-36.8c20.47-41.3,55.62-72.46,99.23-87.97l35.28,16.93c-25.95,10.08-49.64,24.51-70.52,43.02-20.9,18.53-38.03,40.31-51.06,64.82ZM308.45,424.35l17.01-35.05c43.88-14.8,90.92-12.12,132.83,7.57l12.91,36.76c-25.54-11.13-52.59-17.59-80.55-19.19-27.96-1.59-55.57,1.75-82.21,9.91ZM193.26,300.22l36.97-12.81c41.57,20.37,72.95,55.33,88.59,98.68l-17.03,35.09c-10.16-25.83-24.71-49.42-43.36-70.2-18.64-20.76-40.54-37.8-65.17-50.76ZM200.02,131.53l35.31,16.95c14.91,43.6,12.25,90.34-7.52,131.97l-37.02,12.83c11.18-25.38,17.65-52.26,19.24-80.04,1.58-27.78-1.79-55.22-10.01-81.71ZM99.51,275.36l-28.66-26.46c-1.25-46.08,15.21-90.07,46.48-124.2l39.1-1.56c-18.21,21.06-32.39,44.91-42.16,71.04-9.79,26.16-14.73,53.43-14.76,81.18ZM-53.67,348.76l-1.39-38.94c31.84-33.63,74.66-53.29,120.91-55.51l28.62,26.43c-27.78,2.13-54.71,9.09-80.15,20.77-25.45,11.68-48.28,27.57-68,47.25ZM-213.58,293.02l26.67-28.64c46.27-1.47,90.36,14.72,124.49,45.71l1.39,38.98c-21.07-18.07-44.97-32.09-71.19-41.72-26.19-9.62-53.52-14.42-81.36-14.33ZM-286.6,140.8l39.14-1.56c33.6,31.54,53.13,74.09,55.15,120.13l-26.7,28.67c-2.01-27.66-8.88-54.44-20.49-79.73-11.61-25.29-27.45-47.95-47.11-67.51Z"/><path class="cls-46" d="M2539.53,265.87l-11.22-1.5c-36.01-47.34-51.81-105.6-44.59-164.38l8.94-6.83c1.62-1.23,1.93-3.55.69-5.16-1.24-1.62-3.55-1.93-5.16-.69l-8.95,6.83c-58.91-8.27-111.35-38.54-147.97-85.43l1.45-11.17c.26-2.02-1.16-3.86-3.18-4.13-2.02-.26-3.86,1.16-4.13,3.18l-1.44,11.16c-47.3,35.64-105.65,51.09-164.65,43.57l-6.91-8.97c-1.24-1.61-3.55-1.91-5.17-.67-1.61,1.24-1.91,3.56-.67,5.17l6.91,8.96c-7.98,58.67-38.07,110.78-84.89,147.03l-11.21-1.5c-.26-.03-.51-.04-.75-.02l-3.94-.11s-.05,0-.07,0l-.74-.02-.66.24s0,0,0,0l-10.62,3.93c-53.99-24.97-95.23-69.04-116.38-124.36l4.7-10.22c.85-1.85.04-4.04-1.81-4.89-1.85-.85-4.04-.04-4.89,1.81l-4.7,10.23c-55.93,20.28-116.44,18.09-170.75-6.19l-3.95-10.54c-.71-1.91-2.84-2.87-4.74-2.16-1.91.71-2.87,2.84-2.16,4.74l3.95,10.53c-25.1,53.64-69.42,94.61-125.07,115.61l-10.92-4.97-3.97-.26-11.1-1.49c-36.01-47.34-51.81-105.6-44.59-164.38l8.94-6.83c1.62-1.23,1.93-3.55.69-5.16-1.23-1.62-3.55-1.93-5.16-.69l-8.95,6.83c-58.91-8.27-111.35-38.54-147.97-85.43l1.45-11.17c.26-2.02-1.16-3.86-3.18-4.13-2.02-.26-3.86,1.16-4.13,3.18l-1.44,11.16c-47.3,35.65-105.65,51.09-164.65,43.57l-6.91-8.97c-1.24-1.61-3.56-1.91-5.17-.67-1.61,1.24-1.91,3.56-.67,5.17l6.91,8.96c-7.98,58.67-38.07,110.78-84.89,147.03l-11.21-1.5c-2.01-.26-3.87,1.15-4.14,3.16-.27,2.02,1.15,3.87,3.16,4.14l11.22,1.5c36.01,47.34,51.81,105.59,44.59,164.38l-8.94,6.83c-1.62,1.24-1.93,3.55-.69,5.16.72.95,1.82,1.45,2.93,1.45.78,0,1.57-.25,2.23-.76l8.95-6.83c58.91,8.27,111.35,38.54,147.97,85.43l-1.45,11.17c-.26,2.02,1.16,3.86,3.18,4.13.16.02.32.03.48.03,1.82,0,3.41-1.35,3.65-3.21l1.44-11.16c47.3-35.65,105.65-51.09,164.65-43.57l6.91,8.97c.73.94,1.82,1.43,2.92,1.43.79,0,1.58-.25,2.25-.77,1.61-1.24,1.91-3.55.67-5.17l-6.91-8.96c7.98-58.67,38.07-110.78,84.89-147.03l11.21,1.5,3,.2,9.69,4.4c20.42,55.58,18.24,115.71-6.15,169.66l-10.61,3.93c-1.91.71-2.88,2.82-2.18,4.73.55,1.49,1.96,2.41,3.46,2.41.42,0,.86-.07,1.28-.23l10.62-3.93c53.99,24.97,95.23,69.04,116.38,124.36l-4.7,10.22c-.85,1.85-.04,4.04,1.81,4.89.5.23,1.02.34,1.54.34,1.39,0,2.73-.8,3.35-2.15l4.7-10.23c55.93-20.29,116.44-18.09,170.75,6.19l3.95,10.54c.55,1.48,1.96,2.39,3.45,2.39.43,0,.87-.08,1.29-.24,1.91-.71,2.87-2.84,2.16-4.74l-3.95-10.53c25.1-53.64,69.42-94.61,125.07-115.61l10.31,4.69c.49.22,1.01.33,1.52.33,1.4,0,2.74-.8,3.36-2.16.84-1.85.02-4.04-1.83-4.88l-10.3-4.68c-20.42-55.58-18.25-115.71,6.15-169.66l9.95-3.68,3.5.09,11.03,1.48c36.01,47.34,51.81,105.6,44.59,164.38l-8.94,6.83c-1.62,1.24-1.93,3.55-.69,5.16.73.95,1.82,1.45,2.93,1.45.78,0,1.57-.25,2.23-.76l8.95-6.84c58.91,8.27,111.35,38.54,147.97,85.43l-1.45,11.17c-.26,2.02,1.16,3.86,3.18,4.13.16.02.32.03.48.03,1.82,0,3.41-1.35,3.65-3.21l1.44-11.16c47.3-35.65,105.64-51.09,164.65-43.57l6.91,8.97c.73.94,1.82,1.43,2.92,1.43.78,0,1.58-.25,2.25-.77,1.61-1.24,1.91-3.55.67-5.17l-6.91-8.96c7.98-58.67,38.06-110.78,84.89-147.03l11.21,1.5c.17.02.33.03.49.03,1.82,0,3.4-1.35,3.65-3.2.27-2.02-1.15-3.87-3.16-4.14ZM2482.79,188.35c7.3,26.93,19.2,52,35.37,74.65l-38.78-5.19c-27.96-36.9-40.26-82.23-34.72-127.99l30.99-23.68c-2.55,27.64-.17,55.25,7.14,82.2ZM2153.5,275.47c-5.6-20.66-14.62-39.94-26.85-57.43l38.83,5.2c19.91,26.45,28.7,58.86,24.85,91.6l-31.03,23.7c1.75-21.21-.19-42.39-5.8-63.07ZM2442.42,199.04c5.6,20.66,14.62,39.94,26.85,57.43l-38.83-5.2c-19.91-26.45-28.7-58.86-24.85-91.6l31.03-23.7c-1.75,21.21.19,42.39,5.8,63.07ZM2302.75,228.96l8.32-64.23c11.65,12.43,26.56,21.04,43.15,24.91l-51.47,39.32ZM2358.73,195.47c-.54,16.95,3.95,33.52,12.98,47.94l-64.45-8.62,51.47-39.32ZM2295.45,227.96l-39.69-51.5c1.04.04,2.08.06,3.12.06,15.91,0,31.36-4.41,44.9-12.81l-8.32,64.25ZM2289.58,232.42l-64.44-8.62c12.4-11.55,20.95-26.36,24.75-42.87l39.69,51.5ZM2288.65,239.73l-51.47,39.32c.54-16.95-3.95-33.52-12.98-47.94l64.45,8.62ZM2293.17,245.55l-8.32,64.23c-11.65-12.43-26.56-21.04-43.15-24.91l51.47-39.32ZM2300.47,246.55l39.69,51.5c-17-.61-33.59,3.79-48.01,12.73l8.32-64.23ZM2306.34,242.1l64.44,8.62c-12.4,11.55-20.95,26.36-24.75,42.87l-39.69-51.5ZM2381.52,244.72c-11.87-16-17.16-35.5-14.99-55.22l31.1-23.76c-1.99,29.91,5.97,59.26,22.81,84.19l-38.92-5.21ZM2362.06,183.66c-19.71-3.01-37.27-13.14-49.73-28.71l5.02-38.77c19.82,22.66,46.24,37.91,75.77,43.75l-31.07,23.73ZM2305.02,153.99c-15.99,11.74-35.52,16.91-55.31,14.63l-23.97-31.1c3.23.23,6.45.35,9.66.35,26.62,0,52.42-7.81,74.65-22.68l-5.02,38.8ZM2243.87,173.11c-2.91,19.61-12.98,37.05-28.51,49.38l-38.97-5.21c11.17-9.71,20.58-21.12,28.02-34.02,7.45-12.9,12.62-26.75,15.45-41.28l24,31.14ZM2214.39,229.79c11.87,16,17.16,35.5,14.99,55.22l-31.1,23.76c1.98-29.91-5.97-59.26-22.81-84.19l38.92,5.21ZM2233.86,290.86c19.71,3.01,37.26,13.14,49.73,28.71l-5.02,38.77c-19.82-22.66-46.24-37.91-75.77-43.75l31.07-23.73ZM2290.89,320.52c15.99-11.74,35.51-16.91,55.31-14.63l23.97,31.1c-30.01-2.12-59.4,5.67-84.31,22.34l5.03-38.81ZM2352.05,301.4c2.91-19.61,12.98-37.05,28.51-49.38l38.97,5.21c-11.17,9.71-20.58,21.12-28.02,34.02-7.45,12.9-12.62,26.75-15.45,41.28l-24-31.14ZM2401.11,153.82c-32.77-4.77-61.95-21.61-82.47-47.61l5.01-38.68c13.81,16.3,30.19,29.98,48.79,40.72,18.61,10.74,38.64,18.09,59.66,21.9l-30.99,23.68ZM2311.33,105.25c-26.43,19.7-58.89,28.29-91.76,24.28l-23.91-31.02c5.34.46,10.67.7,16,.7,15.88,0,31.66-2.06,47.16-6.16,20.72-5.48,40.03-14.39,57.52-26.51l-5.01,38.72ZM2213.74,134.02c-4.61,32.63-21.35,61.62-47.3,81.92l-38.87-5.2c16.27-13.68,29.9-29.94,40.57-48.43,10.68-18.49,17.94-38.42,21.65-59.35l23.94,31.06ZM2194.81,320.69c32.77,4.77,61.95,21.62,82.47,47.61l-5.01,38.68c-13.81-16.3-30.19-29.98-48.79-40.72-18.61-10.74-38.64-18.09-59.66-21.9l30.99-23.68ZM2284.58,369.26c26.43-19.71,58.89-28.29,91.76-24.28l23.91,31.02c-21.26-1.84-42.46-.02-63.16,5.46-20.72,5.48-40.03,14.39-57.52,26.51l5.01-38.72ZM2382.18,340.5c4.61-32.63,21.34-61.62,47.3-81.92l38.87,5.2c-16.27,13.68-29.9,29.94-40.57,48.43-10.68,18.49-17.94,38.42-21.65,59.35l-23.94-31.06ZM2393.26,72.19c24.25,14,50.41,23.44,77.87,28.14l-30.96,23.65c-45.84-6.52-86.65-30.08-115.22-66.52l5-38.64c17.8,21.43,39.06,39.37,63.3,53.37ZM2188.13,60.54c20.12,0,40.12-2.61,59.76-7.81,27-7.15,52.1-18.89,74.76-34.92l-5.01,38.68c-36.86,27.67-82.27,39.69-128.2,33.92l-23.88-30.98c7.53.73,15.06,1.1,22.57,1.1ZM2131.87,141.37c13.91-24.1,23.24-50.13,27.82-77.48l23.91,31.03c-6.3,45.65-29.71,86.2-66.09,114.48l-38.83-5.2c21.4-17.64,39.28-38.73,53.19-62.83ZM1982.81,357.29l-35.7-16.23c-11.21-30.99-10-64.44,3.43-94.53l36.78-13.61c-7.97,19.71-12.4,40.45-13.17,61.79-.77,21.34,2.14,42.35,8.66,62.58ZM1665.89,221.27l35.7,16.23c11.21,30.99,10,64.44-3.43,94.53l-36.78,13.61c7.97-19.71,12.4-40.45,13.17-61.79.77-21.34-2.14-42.35-8.66-62.58ZM1213.98,194.32c-5.6-20.66-14.62-39.94-26.85-57.43l38.82,5.2c19.91,26.45,28.7,58.86,24.85,91.6l-31.03,23.7c1.75-21.21-.19-42.39-5.8-63.07ZM1502.9,117.89c5.6,20.66,14.62,39.94,26.85,57.43l-38.82-5.2c-19.91-26.45-28.7-58.86-24.85-91.6l31.03-23.7c-1.75,21.21.19,42.39,5.8,63.07ZM1367.74,153.64l51.47-39.32c-.54,16.95,3.95,33.52,12.98,47.94l-64.45-8.62ZM1363.23,147.81l8.32-64.23c11.65,12.43,26.56,21.04,43.15,24.91l-51.47,39.32ZM1355.93,146.81l-39.69-51.5c1.04.04,2.08.06,3.12.06,15.91,0,31.36-4.41,44.9-12.81l-8.32,64.25ZM1350.06,151.27l-64.44-8.62c12.4-11.55,20.95-26.36,24.75-42.87l39.69,51.5ZM1349.13,158.58l-51.47,39.32c.54-16.95-3.95-33.52-12.98-47.94l64.45,8.62ZM1353.65,164.4l-8.32,64.23c-11.65-12.43-26.56-21.04-43.15-24.91l51.47-39.32ZM1360.95,165.4l39.69,51.5c-17-.61-33.59,3.79-48.01,12.73l8.32-64.23ZM1366.82,160.94l64.44,8.62c-12.4,11.55-20.95,26.36-24.75,42.87l-39.69-51.5ZM1442,163.57c-11.87-16-17.16-35.5-14.99-55.22l31.1-23.76c-1.98,29.91,5.97,59.26,22.81,84.19l-38.92-5.21ZM1422.54,102.51c-19.71-3.01-37.27-13.15-49.73-28.71l5.02-38.77c19.82,22.66,46.24,37.91,75.77,43.75l-31.07,23.73ZM1365.5,72.84c-15.99,11.74-35.52,16.91-55.31,14.63l-23.97-31.1c3.23.23,6.45.35,9.66.35,26.62,0,52.42-7.81,74.65-22.68l-5.02,38.8ZM1304.35,91.96c-2.91,19.61-12.98,37.05-28.51,49.38l-38.97-5.21c11.17-9.71,20.58-21.12,28.02-34.02,7.45-12.9,12.62-26.75,15.45-41.28l24,31.14ZM1274.87,148.64c11.87,16,17.16,35.5,14.99,55.22l-31.1,23.76c1.99-29.91-5.97-59.26-22.81-84.19l38.92,5.21ZM1294.34,209.71c19.71,3.01,37.27,13.15,49.73,28.71l-5.02,38.77c-19.82-22.66-46.24-37.91-75.77-43.75l31.07-23.73ZM1351.37,239.37c15.99-11.74,35.52-16.91,55.31-14.63l23.97,31.1c-30.01-2.12-59.4,5.67-84.31,22.34l5.03-38.81ZM1412.53,220.25c2.91-19.61,12.98-37.04,28.51-49.38l38.97,5.21c-11.17,9.71-20.58,21.12-28.02,34.02-7.45,12.9-12.62,26.75-15.45,41.28l-24-31.14ZM1461.59,72.67c-32.77-4.77-61.95-21.62-82.47-47.61l5.01-38.68c13.81,16.3,30.19,29.98,48.79,40.72,18.61,10.74,38.64,18.09,59.66,21.9l-30.99,23.68ZM1371.81,24.1c-26.43,19.7-58.89,28.3-91.76,24.28l-23.91-31.03c5.34.46,10.67.7,16,.7,15.88,0,31.66-2.06,47.16-6.16,20.72-5.48,40.03-14.39,57.52-26.51l-5.01,38.72ZM1274.22,52.87c-4.61,32.63-21.34,61.61-47.3,81.92l-38.87-5.2c16.27-13.68,29.9-29.94,40.57-48.43,10.68-18.49,17.94-38.42,21.65-59.35l23.94,31.06ZM1255.29,239.54c32.77,4.77,61.95,21.62,82.47,47.62l-5.01,38.68c-13.81-16.3-30.19-29.98-48.79-40.72-18.61-10.74-38.64-18.09-59.66-21.9l30.99-23.68ZM1345.06,288.11c26.43-19.7,58.89-28.29,91.76-24.28l23.91,31.03c-21.26-1.84-42.46-.02-63.16,5.46-20.72,5.48-40.03,14.39-57.52,26.51l5.01-38.72ZM1442.66,259.35c4.61-32.63,21.35-61.61,47.3-81.92l38.87,5.2c-16.27,13.68-29.9,29.94-40.57,48.43-10.68,18.49-17.94,38.42-21.65,59.35l-23.94-31.06ZM1937.97,336.9l-35.79-16.27c-6.61-18.69-5.88-38.81,2.06-56.98l36.87-13.64c-5.32,13.81-8.29,28.3-8.83,43.18-.54,14.88,1.38,29.55,5.68,43.71ZM1710.73,241.66l35.79,16.27c6.61,18.69,5.88,38.81-2.06,56.98l-36.87,13.64c5.32-13.81,8.29-28.3,8.83-43.18.54-14.88-1.38-29.55-5.68-43.71ZM1831.41,282.74l27.06-58.84c7.47,15.23,19.19,27.77,33.92,36.28l-60.98,22.56ZM1824.7,279.71l-22.74-60.66c9.05,3.1,18.44,4.67,27.86,4.67,7.35,0,14.72-.96,21.94-2.86l-27.07,58.85ZM1817.78,282.24l-59.19-26.92c15.31-7.42,27.91-19.08,36.46-33.73l22.73,60.65ZM1814.68,288.93l-60.98,22.56c5.54-16.01,6.16-33.1,1.79-49.47l59.19,26.91ZM1817.29,295.82l-27.06,58.84c-7.47-15.23-19.19-27.77-33.92-36.28l60.98-22.56ZM1824.01,298.85l22.73,60.65c-16.12-5.52-33.32-6.15-49.8-1.8l27.06-58.84ZM1830.92,296.31l59.19,26.92c-15.31,7.42-27.91,19.08-36.46,33.73l-22.73-60.65ZM1834.02,289.63l60.98-22.56c-5.54,16.01-6.16,33.1-1.79,49.47l-59.19-26.91ZM1901.68,256.74c-17.98-8.58-31.79-23.33-39.1-41.77l16.35-35.56c12.25,27.36,33.02,49.56,59.58,63.7l-36.83,13.62ZM1855.88,211.9c-18.82,6.57-39.08,5.84-57.38-2.08l-13.72-36.61c15.61,5.96,31.94,8.96,48.32,8.96,13.13,0,26.28-1.93,39.11-5.79l-16.33,35.51ZM1791.6,212.4c-8.63,17.87-23.46,31.57-42.02,38.83l-35.74-16.25c27.51-12.18,49.83-32.83,64.03-59.22l13.74,36.65ZM1747.02,321.81c17.98,8.58,31.79,23.33,39.1,41.77l-16.35,35.56c-12.25-27.36-33.02-49.56-59.58-63.7l36.83-13.62ZM1792.82,366.66c18.82-6.57,39.08-5.84,57.38,2.08l13.72,36.61c-28.13-10.74-58.61-11.84-87.44-3.17l16.34-35.52ZM1857.1,366.16c8.63-17.87,23.46-31.58,42.02-38.83l35.74,16.25c-27.51,12.18-49.83,32.83-64.03,59.22l-13.74-36.65ZM1947.97,239.62c-29.98-14.05-52.93-38.57-64.86-69.3l16.31-35.47c8.39,19.56,20.02,37.36,34.66,53.01,14.63,15.63,31.62,28.44,50.62,38.17l-36.74,13.59ZM1876.42,167.25c-31.19,11.14-64.86,9.91-95.17-3.45l-13.69-36.52c19.83,7.94,40.71,12.35,62.18,13.13,2.28.08,4.56.12,6.83.12,19.12,0,37.94-2.93,56.13-8.72l-16.3,35.43ZM1774.35,166.38c-14.12,29.79-38.78,52.58-69.7,64.42l-35.66-16.21c19.65-8.33,37.53-19.87,53.25-34.4,15.74-14.55,28.63-31.46,38.41-50.36l13.7,36.56ZM1700.73,338.94c29.98,14.05,52.93,38.57,64.86,69.3l-16.31,35.47c-8.39-19.56-20.02-37.36-34.66-53.01-14.63-15.63-31.62-28.44-50.62-38.17l36.74-13.59ZM1772.28,411.31c31.19-11.14,64.86-9.91,95.17,3.45l13.69,36.52c-19.83-7.93-40.71-12.35-62.18-13.13-21.47-.78-42.61,2.11-62.97,8.59l16.3-35.43ZM1874.35,412.18c14.12-29.79,38.78-52.58,69.7-64.42l35.66,16.21c-19.65,8.33-37.53,19.87-53.25,34.4-15.74,14.55-28.63,31.46-38.41,50.36l-13.7-36.56ZM1964.76,159.51c19.06,20.37,41.31,36.95,66.21,49.4l-36.7,13.58c-41.98-19.51-74.08-53.8-90.62-96.83l16.3-35.44c10.69,25.61,25.73,48.89,44.81,69.29ZM1831.25,98.8c2.89.1,5.78.16,8.66.16,25,0,49.59-3.95,73.32-11.76l-16.28,35.39c-43.56,15.71-90.65,14-132.96-4.82l-13.67-36.48c25.77,10.6,52.95,16.5,80.93,17.51ZM1693.7,149.69c20.51-18.96,37.19-41.09,49.7-65.86l13.69,36.52c-19.61,41.71-54.1,73.6-97.39,90.01l-35.62-16.2c25.74-10.61,49.13-25.54,69.61-44.48ZM1543.27,107.2c7.3,26.93,19.2,52,35.37,74.65l-38.78-5.19c-27.96-36.9-40.26-82.23-34.72-127.99l30.99-23.68c-2.55,27.64-.17,55.25,7.14,82.2ZM1453.74-8.96c24.25,14,50.41,23.44,77.87,28.14l-30.96,23.65c-45.84-6.52-86.65-30.08-115.22-66.52l5-38.64c17.8,21.43,39.06,39.37,63.3,53.37ZM1248.61-20.61c20.12,0,40.12-2.61,59.76-7.81,27-7.15,52.1-18.89,74.76-34.92l-5.01,38.68c-36.86,27.67-82.27,39.69-128.2,33.92l-23.88-30.98c7.53.73,15.06,1.1,22.57,1.1ZM1192.35,60.22c13.91-24.1,23.24-50.13,27.82-77.48l23.91,31.03c-6.3,45.65-29.71,86.2-66.09,114.47l-38.83-5.2c21.4-17.64,39.28-38.73,53.19-62.83ZM1173.61,205.01c-7.3-26.93-19.2-52-35.37-74.66l38.78,5.19c27.96,36.9,40.26,82.23,34.72,127.99l-30.99,23.68c2.55-27.64.17-55.25-7.14-82.2ZM1263.14,321.17c-24.25-14-50.41-23.44-77.87-28.14l30.96-23.65c45.84,6.52,86.65,30.08,115.22,66.52l-5,38.64c-17.8-21.43-39.06-39.37-63.3-53.37ZM1408.5,340.63c-27,7.15-52.1,18.89-74.76,34.92l5.01-38.68c36.86-27.67,82.27-39.69,128.2-33.92l23.89,30.99c-27.71-2.68-55.37-.44-82.34,6.7ZM1524.52,252c-13.91,24.1-23.24,50.13-27.82,77.48l-23.91-31.03c6.3-45.65,29.71-86.2,66.09-114.47l38.83,5.2c-21.4,17.64-39.28,38.73-53.19,62.83ZM1632.7,282.33c1.01-27.81-2.94-55.18-11.71-81.48l35.66,16.22c15.81,43.28,14.12,90.07-4.79,132.1l-36.74,13.59c10.65-25.6,16.57-52.61,17.57-80.42ZM1683.94,419.05c-19.06-20.37-41.31-36.95-66.21-49.4l36.7-13.58c41.98,19.51,74.08,53.8,90.62,96.83l-16.3,35.44c-10.69-25.61-25.73-48.89-44.81-69.29ZM1817.45,479.75c-27.98-1.02-55.52,2.9-81.98,11.61l16.28-35.4c43.56-15.71,90.65-14,132.96,4.82l13.67,36.48c-25.77-10.6-52.95-16.5-80.93-17.51ZM1955,428.87c-20.51,18.96-37.19,41.09-49.7,65.86l-13.69-36.52c19.61-41.72,54.1-73.6,97.39-90.01l35.62,16.2c-25.74,10.61-49.13,25.54-69.62,44.48ZM2016.01,296.22c-1.01,27.81,2.94,55.18,11.71,81.48l-35.66-16.22c-15.81-43.29-14.12-90.07,4.79-132.1l36.74-13.59c-10.65,25.6-16.56,52.61-17.57,80.42ZM2113.13,286.16c-7.3-26.93-19.2-52-35.37-74.66l38.78,5.19c27.96,36.9,40.26,82.23,34.72,127.99l-30.99,23.68c2.55-27.64.17-55.25-7.14-82.2ZM2202.66,402.32c-24.25-14-50.41-23.44-77.87-28.14l30.96-23.65c45.84,6.52,86.65,30.08,115.22,66.52l-5,38.64c-17.8-21.43-39.06-39.37-63.3-53.37ZM2348.02,421.78c-27,7.15-52.1,18.89-74.76,34.91l5.01-38.68c36.86-27.67,82.27-39.69,128.2-33.92l23.89,30.99c-27.71-2.68-55.37-.44-82.34,6.7ZM2464.04,333.15c-13.91,24.1-23.24,50.13-27.82,77.48l-23.91-31.03c6.3-45.65,29.71-86.2,66.09-114.48l38.83,5.2c-21.4,17.64-39.28,38.73-53.19,62.83Z"/></g><polygon class="cls-59" points="1274.22 27.02 1281.02 31.35 1281.02 239.54 1274.22 244.63 1274.22 27.02"/><path class="cls-12" d="M1067.51,254.52l-5.36-.26,5.43-4.91-77.09-10.62-16.39-9.13,148.39,19.4s-31.83,3.14-33.09,2.61-8.67-1.36-8.67-1.36"/><polygon class="cls-21" points="1139.18 258.44 1089.4 251.61 1089.4 208.46 1139.18 213.32 1139.18 258.44"/><path class="cls-11" d="M1277.94,32.79v206.38c0,3.39-2.84,5.81-6.33,5.42l-281.38-31.51c-2.11-.24-3.81-2.55-3.81-5.16V48.52c0-2.61,1.7-4.83,3.81-4.96l281.38-16.52c3.49-.2,6.33,2.37,6.33,5.76Z"/><path class="cls-15" d="M1277.94,31.86v188.84l-292.01-27.09V47.83c0-2.61,1.7-4.83,3.81-4.96l281.86-16.76c3.49-.21,6.34,2.37,6.34,5.75Z"/><path class="cls-37" d="M1060.83,257.13l75.87,10.39c3.44.47,6.25,3.85,6.25,7.53v1.74s-87.51-12.62-87.51-12.62v-1.61c0-3.41,2.41-5.85,5.4-5.44Z"/><path class="cls-15" d="M1116.02,216.06c0,2.91-2.13,5.04-4.76,4.76s-4.72-2.84-4.72-5.73,2.11-5.02,4.72-4.77,4.76,2.82,4.76,5.73Z"/><path class="cls-47" d="M994.53,182.91V54.38c0-1.72,1.13-3.18,2.53-3.25l263.01-13.35c2.24-.11,4.06,1.57,4.06,3.76v163.26c0,3-2.58,5.21-5.75,4.94l-260.25-22.26c-1.99-.17-3.59-2.22-3.59-4.58Z"/><polygon class="cls-52" points="1012.94 166.41 1018.9 154.72 1025.96 155.08 1033.77 151.2 1038.76 146.42 1033.59 150.99 1025.8 155.82 1018.45 155.44 1012.87 166.41 1012.94 166.41"/><polygon class="cls-52" points="1032.11 151.86 1031.12 148.68 1032.42 146.15 1031.48 138.77 1031.77 146.12 1030.4 148.64 1031.65 152.13 1032.11 151.86"/><path class="cls-46" d="M1012.1,145.3l-60.73-3.01c-1.37-.07-2.61-.86-3.41-2.18-1.01-1.66-1.14-3.78-.33-5.53l29.28-63.95c.8-1.74,2.34-2.81,4.04-2.81s3.13,1,3.92,2.69l31.46,66.96c.87,1.86.76,4.04-.3,5.7-.86,1.36-2.22,2.14-3.71,2.14,0,0-.14,0-.21,0Z"/><path class="cls-52" d="M980.94,69.33c1,0,1.99.6,2.56,1.82l31.46,66.95c1.22,2.6-.25,5.7-2.65,5.7-.05,0-.09,0-.14,0l-60.73-3.01c-2.19-.11-3.55-3.21-2.46-5.58l29.28-63.94c.59-1.29,1.63-1.94,2.67-1.94M980.94,66.33c-2.29,0-4.36,1.41-5.4,3.69l-29.28,63.94c-1.01,2.2-.85,4.85.42,6.93,1.06,1.75,2.75,2.81,4.62,2.9l60.73,3.01c.1,0,.19,0,.29,0,2.02,0,3.84-1.03,4.98-2.83,1.33-2.09,1.48-4.83.39-7.15l-31.46-66.95c-1.03-2.19-3.05-3.55-5.28-3.55h0Z"/><path class="cls-28" d="M1203.61,192.55l-108.54-7.53c-2.53-.18-4.57-2.7-4.57-5.63v-114.04c0-2.94,2.04-5.41,4.57-5.54l108.54-5.27c3.09-.15,5.6,2.37,5.6,5.64v126.85c0,3.26-2.51,5.74-5.6,5.52Z"/><path class="cls-67" d="M1103.92,122.28s-9.41,10.33-12.51,10.24c-3.08-.09-6.15-1.04-6.15-1.04,0,0-5.33,5.9-6.08,5.87s-7.17,1.25-7.17,1.25l-8.45,23.16-5.26-3.5-12.28,9.89-.12-.06,1.49,3.95-.39,1.41-2.05-.66-3.17-6.96-8.67,3.84-6.87-4.16-5.98-1.01-6.8,5.14-7.33-4.31s-4.94.44-5.3.42-3.08-2.06-3.08-2.06l-3.36,2.27-2,4.88,4.15-5.05,1.66,10.43,3.74-.6,2.34,2.8,5.8-.63-1.5,4.1c-1.9.54-8.07,8.4-8.07,8.4l-7.09-1.49-7.34,6.3,7.12-6.88,6.13.53s3.23-3.5,3.74-4.4c.51-.9,3.61-4.19,3.61-4.19l-4.37.92-1.3-1.69-5.19-.4v-7.73l-5.41,5.41-5.85-5.56v-8.44l5.73,5.86,2.19-6.16,4-2.37,3.68,1.65,4.73-.09,8.5,2.84,5.85-3.96,9.28.4,5.22,4.68,9.33-4.95,1.36,3.61,15.99-10.66,7.01-18.5,10.65-.92,12.82-12.9v-31.14s2.84,34.64,2.06,37.25l10.96-5.04Z"/><path class="cls-60" d="M1219.27,180.72l-111.33-6.51c-2.59-.15-4.68-2.68-4.68-5.65V53.14c0-2.97,2.09-5.5,4.68-5.66l111.33-6.62c3.17-.19,5.75,2.34,5.75,5.65v128.55c0,3.31-2.58,5.84-5.75,5.65Z"/><polygon class="cls-52" points="1235.33 66.6 1226.6 51.97 1216.53 52.38 1205.73 48.17 1199.03 42.68 1205.98 47.93 1216.75 53.26 1227.25 52.84 1235.45 66.6 1235.33 66.6"/><polygon class="cls-52" points="1208 48.93 1209.36 45.2 1207.58 42.26 1208.87 33.6 1208.47 42.21 1210.36 45.16 1208.64 49.25 1208 48.93"/><path class="cls-52" d="M1279.6,74.4l-8.93,6.28-8.79-7.22v9.79l-8.22.12-2.02,2.02-6.74-1.47s4.77,4.32,5.56,5.49c.79,1.17,5.85,5.85,5.85,5.85l9.81-.05,11.74,9.65-12.1-8.93-11.31,1.15s-9.55-10.35-12.44-11.16l-2.25-5.15,8.84,1.17,3.63-3.33,5.89.99,2.65-13.08,6.7,6.6-3.24-6.3-5.39-2.99s-4.31,2.47-4.86,2.49-8.21-.7-8.21-.7l-11.04,5.01-9.93-6.46-8.51,1.02-9.5,4.64-11.62-4.75-4.15,7.84-2.65.66-.5-1.61,5.59-12.93,12.44,5.94,7.17-5.36,13.16-.3,8.57,4.93,12.85-3.26,7.36.23,5.84-1.99,6.46,3.09,3.58,7.96,8.71-7.07s17.43-12.67,1.44-20.74v-5.15s29.76,10.64-1.43,37.1Z"/><path class="cls-46" d="M1237.05,167.9l-114.53-5.38c-2.66-.12-4.81-2.67-4.81-5.68V39.87c0-3.01,2.15-5.6,4.81-5.79l114.53-8.13c3.27-.23,5.93,2.3,5.93,5.66v130.49c0,3.36-2.66,5.96-5.93,5.8Z"/><path class="cls-53" d="M1237.05,167.9l-114.53-5.38c-2.66-.12-4.81-2.67-4.81-5.68V45.39l125.27-7.62v124.33c0,3.36-2.66,5.96-5.93,5.8Z"/><path class="cls-52" d="M980.88,90.15c-4.1.01-7.4,4.14-7.4,9.23v16.16l2.99-.93v-14.48c0-3.03,1.97-5.49,4.41-5.48,2.45,0,4.45,2.49,4.45,5.55v5.88l3.06,1.05v-7.65c0-5.16-3.38-9.34-7.51-9.33Z"/><path class="cls-52" d="M987.77,110.31l-13.87-.24c-1.31-.02-2.36,1.29-2.36,2.92v17.1c0,1.64,1.06,3.01,2.36,3.06l13.87.56c1.35.05,2.44-1.25,2.44-2.92v-17.43c0-1.67-1.1-3.04-2.44-3.06ZM982.12,122.35v5.33l-2.49-.09v-5.32c-.86-.58-1.44-1.72-1.44-3,0-1.85,1.2-3.32,2.68-3.29s2.7,1.57,2.7,3.43c0,1.3-.59,2.4-1.46,2.93Z"/><path class="cls-46" d="M1200.19,74.31c-3.51.11-6.35,3.21-6.35,6.92v-17.18c0-3.71-2.82-6.59-6.28-6.42s-6.21,3.26-6.21,6.93v-8.47c0-3.67-2.76-6.5-6.14-6.31s-6.08,3.27-6.08,6.9v8.38c0-3.63-2.7-6.45-6.01-6.29h0c-3.29.15-5.95,3.19-5.95,6.78v39.07c0-3.59-2.64-6.47-5.89-6.44s-5.83,2.95-5.83,6.51v19.65c0,1.29.34,2.49.93,3.5h0s.02.04.02.04c.02.04.04.07.06.11l11.43,19.53c.34.82.78,1.57,1.31,2.24h0s0,0,0,0c1.47,1.86,3.62,3.08,6.02,3.17l32.73,1.2c4.77.17,8.66-3.79,8.66-8.86v-64.37c0-3.75-2.88-6.7-6.42-6.59Z"/><path class="cls-68" d="M1197.95,154.54l-32.73-1.21c-2.4-.09-4.69-1.3-6.29-3.31-.56-.71-1.02-1.5-1.37-2.34l-11.66-19.93h0c-.54-1.05-.82-2.22-.82-3.41v-19.65c0-3.76,2.76-6.86,6.18-6.9,2.39-.03,4.48,1.44,5.53,3.63v-35.85c0-3.8,2.82-7.03,6.31-7.19,2.44-.11,4.58,1.3,5.65,3.47v-5.15c0-3.84,2.88-7.13,6.44-7.32s6.52,2.81,6.52,6.7v5.21c1.1-2.29,3.3-3.93,5.84-4.05,3.66-.17,6.66,2.88,6.66,6.81v13.87c1.12-2.3,3.37-3.93,5.96-4.01,3.74-.12,6.81,3.01,6.81,6.99v64.39c0,5.29-4.08,9.44-9.05,9.26ZM1146.79,127.83l11.41,19.48c.34.83.77,1.55,1.28,2.19,1.46,1.84,3.55,2.95,5.75,3.03l32.73,1.19c4.54.17,8.27-3.63,8.27-8.46v-64.35c0-3.52-2.71-6.29-6.03-6.19-3.3.1-5.96,3.02-5.96,6.5l-.77.02v-17.17c0-3.48-2.65-6.19-5.9-6.04s-5.84,3.07-5.84,6.51l-.75.03v-8.47c0-3.44-2.6-6.1-5.77-5.93s-5.71,3.08-5.71,6.48v8.39l-.73.03c0-3.4-2.54-6.06-5.65-5.91s-5.59,3-5.59,6.37v39.08h-.72c0-3.36-2.49-6.08-5.53-6.04s-5.48,2.78-5.48,6.11v19.66c0,1.16.3,2.3.87,3.29l.12.2Z"/><path class="cls-69" d="M1164.36,127.44l-2.47-.04c-2.61-.04-4.72-2.38-4.72-5.23v-57.97c0-2.85,2.11-5.26,4.72-5.38l2.47-.12c2.63-.12,4.78,2.11,4.78,4.99v58.59c0,2.88-2.14,5.18-4.78,5.15Z"/><path class="cls-52" d="M1163.12,127.82c-3.49-.05-6.31-3.19-6.31-6.99v-55.27c0-3.8,2.82-7.03,6.31-7.19s6.38,2.83,6.38,6.68v55.89c0,3.85-2.87,6.93-6.38,6.88ZM1163.12,59.17c-3.09.14-5.59,3-5.59,6.37v55.3c0,3.37,2.5,6.15,5.59,6.19s5.65-2.69,5.65-6.1v-55.85c0-3.4-2.54-6.06-5.65-5.91Z"/><path class="cls-69" d="M1176.48,127.61l-2.53-.04c-2.66-.04-4.82-2.4-4.82-5.28V55.32c0-2.88,2.15-5.33,4.82-5.47l2.53-.14c2.69-.15,4.88,2.1,4.88,5.01v67.7c0,2.91-2.19,5.24-4.88,5.2Z"/><path class="cls-52" d="M1175.21,128c-3.56-.05-6.44-3.22-6.44-7.06V56.7c0-3.84,2.88-7.13,6.44-7.32s6.52,2.81,6.52,6.7v64.97c0,3.89-2.93,7.01-6.52,6.95ZM1175.21,50.18c-3.16.17-5.71,3.08-5.71,6.48v64.28c0,3.41,2.56,6.21,5.71,6.26,3.17.04,5.77-2.72,5.77-6.16V56.11c0-3.44-2.6-6.1-5.77-5.93Z"/><path class="cls-69" d="M1188.86,127.79l-2.58-.04c-2.72-.04-4.92-2.43-4.92-5.34v-59.22c0-2.91,2.2-5.37,4.92-5.5l2.58-.12c2.75-.13,4.99,2.15,4.99,5.1v59.87c0,2.94-2.24,5.3-4.99,5.26Z"/><path class="cls-52" d="M1187.57,128.18c-3.64-.05-6.58-3.26-6.58-7.14v-56.45c0-3.88,2.94-7.18,6.58-7.35,3.66-.17,6.66,2.88,6.66,6.81v57.11c0,3.93-3,7.08-6.66,7.03ZM1187.57,58.04c-3.22.15-5.84,3.07-5.84,6.51v56.49c0,3.44,2.61,6.28,5.84,6.32,3.24.04,5.9-2.75,5.9-6.23v-57.07c0-3.48-2.65-6.19-5.9-6.04Z"/><path class="cls-69" d="M1201.51,127.97l-2.64-.04c-2.78-.04-5.03-2.46-5.03-5.4v-42.69c0-2.94,2.25-5.4,5.03-5.49l2.64-.08c2.81-.09,5.1,2.25,5.1,5.22v43.16c0,2.97-2.29,5.35-5.1,5.31Z"/><path class="cls-52" d="M1200.19,128.36c-3.72-.05-6.73-3.29-6.73-7.22v-39.9c0-3.93,3.01-7.22,6.73-7.34s6.81,3.01,6.81,6.99v40.36c0,3.97-3.06,7.16-6.81,7.11ZM1200.19,74.72c-3.3.1-5.96,3.02-5.96,6.5v39.92c0,3.48,2.67,6.35,5.96,6.39s6.03-2.78,6.03-6.29v-40.34c0-3.52-2.71-6.29-6.03-6.19Z"/><path class="cls-46" d="M1198.04,152.61l-32.99-.56c-4.46-.16-8.79-6.16-8.79-11.01l1.56-20.37c0-4.86,2.94-11.35,7.4-11.36l32.73-.06c4.77,0,7.61,5.19,7.61,10.26v24.93c0,5.07-2.75,8.33-7.52,8.16Z"/><path class="cls-69" d="M1152.49,130.9l-2.42-.04c-2.55-.04-4.62-2.37-4.62-5.19v-22.31c0-2.82,2.06-5.13,4.62-5.16l2.42-.03c2.58-.03,4.68,2.25,4.68,5.1v22.55c0,2.85-2.1,5.12-4.68,5.08Z"/><path class="cls-52" d="M1151.28,131.27c-3.42-.06-6.18-3.17-6.18-6.93v-19.65c0-3.76,2.76-6.86,6.18-6.9,3.44-.04,6.25,3.02,6.25,6.83v19.87c0,3.81-2.81,6.85-6.25,6.79ZM1151.28,98.57c-3.03.03-5.48,2.78-5.48,6.11v19.66c0,3.34,2.45,6.09,5.48,6.14s5.53-2.65,5.53-6.01v-19.85c0-3.37-2.49-6.08-5.53-6.05Z"/><polygon class="cls-46" points="1158.91 148.21 1147.04 127.48 1158.38 121.17 1158.91 148.21"/><path class="cls-52" d="M1170.42,138.96c-.41-.89-.86-1.8-1.35-2.72-.49-.92-1.05-1.69-1.68-2.33-.2.23-.44.55-.74.97-.3.41-.6.85-.9,1.32s-.58.94-.84,1.44c-.26.5-.45.89-.58,1.17l-3.7-.09c.6-1.21,1.32-2.47,2.14-3.76s1.75-2.67,2.77-4.13l-4.71-7.84,3.93.04,2.76,4.61,2.84-4.55,3.77.04-4.75,7.6c1.24,1.71,2.27,3.29,3.07,4.71.81,1.43,1.45,2.63,1.91,3.61l-3.95-.1Z"/><path class="cls-52" d="M1180.69,136.45c.47.01.86-.02,1.17-.1.31-.08.56-.19.74-.33.19-.14.32-.31.39-.51s.11-.42.11-.67c0-.52-.23-.97-.69-1.32-.46-.36-1.25-.74-2.36-1.17-.49-.19-.97-.41-1.46-.66-.49-.25-.92-.55-1.3-.92-.38-.37-.7-.81-.94-1.33s-.36-1.14-.36-1.88.13-1.4.38-1.99c.25-.59.62-1.09,1.09-1.5.47-.41,1.04-.72,1.71-.94.67-.22,1.43-.32,2.27-.31,1,.01,1.87.13,2.61.37s1.34.5,1.82.78l-.97,2.84c-.42-.24-.88-.45-1.39-.63-.51-.18-1.12-.28-1.84-.29-.8-.01-1.38.1-1.73.34s-.53.6-.53,1.09c0,.29.06.54.19.74.13.2.31.39.55.55.24.17.51.32.82.45s.65.28,1.02.42c.78.32,1.45.64,2.03.95.58.31,1.06.67,1.44,1.08s.67.89.86,1.43c.19.55.28,1.21.28,1.98,0,1.5-.49,2.66-1.47,3.46-.98.8-2.45,1.18-4.42,1.13-.66-.02-1.25-.07-1.78-.17s-.99-.21-1.4-.34c-.41-.13-.75-.27-1.04-.42-.29-.15-.54-.28-.74-.41l.94-2.83c.44.27.99.52,1.63.74.65.22,1.44.34,2.39.36Z"/><path class="cls-52" d="M1193.32,136.73c.48.01.88-.02,1.2-.1.32-.08.57-.19.76-.33.19-.14.32-.32.4-.52s.11-.43.11-.68c0-.53-.24-.98-.71-1.34-.47-.36-1.27-.75-2.42-1.18-.5-.2-.99-.42-1.49-.67-.5-.25-.94-.56-1.33-.93-.39-.37-.71-.82-.96-1.34s-.37-1.16-.37-1.9.13-1.41.39-2.01c.26-.59.63-1.1,1.11-1.51.48-.41,1.06-.73,1.75-.95.69-.22,1.46-.32,2.32-.32,1.03.01,1.91.14,2.67.38s1.37.51,1.86.79l-1,2.87c-.43-.24-.9-.45-1.42-.64-.52-.19-1.15-.28-1.88-.29-.82-.01-1.41.1-1.77.34s-.54.6-.54,1.1c0,.3.07.55.2.75.13.2.32.39.56.56.24.17.52.32.83.46s.66.28,1.04.43c.79.32,1.48.64,2.07.96.59.31,1.08.68,1.47,1.09s.68.9.87,1.45c.19.55.29,1.22.29,2,0,1.52-.5,2.69-1.51,3.5-1,.81-2.51,1.19-4.52,1.14-.67-.02-1.28-.07-1.82-.17s-1.02-.22-1.43-.35c-.41-.13-.77-.27-1.07-.42-.3-.15-.55-.28-.75-.41l.96-2.86c.45.27,1.01.52,1.67.75.66.22,1.48.35,2.44.37Z"/><path class="cls-52" d="M1007.65,61.28c0,.89-.11,1.67-.34,2.34s-.55,1.23-.96,1.68c-.41.45-.92.79-1.51,1.03-.59.24-1.26.37-1.99.39-.34.01-.73,0-1.17-.01-.45-.02-.88-.07-1.31-.17v-9.92c.43-.12.88-.2,1.34-.26.47-.06.87-.09,1.2-.11.71-.03,1.36.04,1.94.21.58.17,1.08.46,1.5.86.42.41.74.93.97,1.58s.34,1.44.34,2.37ZM1002.22,64.74c.09,0,.19.01.31.01.12,0,.25,0,.41,0,.94-.03,1.63-.35,2.09-.95.45-.6.68-1.41.68-2.43s-.22-1.88-.65-2.41c-.43-.53-1.12-.78-2.06-.74-.13,0-.26.01-.4.02-.14.01-.26.03-.38.05v6.45Z"/><path class="cls-52" d="M1017.31,60.89c0,.89-.11,1.67-.33,2.35-.22.68-.52,1.25-.89,1.72-.38.47-.83.82-1.35,1.07s-1.08.38-1.67.4-1.12-.07-1.64-.28c-.51-.21-.96-.53-1.34-.97-.38-.44-.68-.98-.9-1.64-.22-.66-.33-1.43-.33-2.31s.11-1.66.34-2.33c.23-.68.53-1.25.92-1.72s.83-.83,1.34-1.08c.51-.25,1.04-.39,1.61-.41s1.13.06,1.64.27c.52.21.97.53,1.35.97.39.44.69.99.91,1.65.22.66.33,1.44.33,2.32ZM1010.82,61.15c0,.51.05.96.15,1.36.1.4.25.75.44,1.03.19.28.42.5.7.65.28.15.59.22.95.2s.67-.1.95-.27c.28-.17.52-.4.71-.7.19-.3.34-.66.44-1.07.1-.41.15-.87.15-1.38s-.05-.96-.15-1.37c-.1-.41-.25-.75-.44-1.04-.19-.28-.43-.5-.71-.65s-.6-.21-.95-.2-.68.11-.95.29c-.28.18-.51.41-.7.71-.19.3-.34.66-.44,1.07-.1.42-.15.87-.15,1.36Z"/><path class="cls-52" d="M1021.2,55.55c.15.32.32.72.52,1.2.2.48.4.99.61,1.55.21.56.42,1.13.63,1.71.21.58.4,1.13.59,1.64.18-.53.38-1.09.59-1.69.21-.6.42-1.19.63-1.76.21-.58.42-1.11.62-1.61.2-.5.37-.91.52-1.25l1.79-.08c.08.69.16,1.46.23,2.32s.13,1.75.19,2.68c.05.93.11,1.86.15,2.79s.09,1.81.12,2.64l-1.91.07c-.03-1.01-.06-2.12-.1-3.31s-.1-2.4-.19-3.61c-.15.43-.32.9-.5,1.42-.18.52-.37,1.04-.55,1.56-.18.52-.35,1.01-.52,1.49-.17.47-.31.88-.43,1.21l-1.36.05c-.12-.33-.26-.72-.43-1.18-.17-.46-.34-.94-.52-1.44-.18-.5-.36-1.01-.54-1.51-.18-.5-.35-.96-.5-1.37-.08,1.21-.15,2.41-.19,3.6s-.07,2.29-.1,3.3l-1.88.07c.03-.82.07-1.69.12-2.62s.09-1.86.15-2.78c.05-.93.12-1.82.19-2.67s.15-1.63.23-2.32l1.85-.08Z"/><polygon class="cls-43" points="1020.7 197.32 1017.7 192.04 1008.59 206.76 1018.08 200.68 1020.21 201.75 1020.7 197.32"/><polygon class="cls-56" points="1024.04 186.5 1022.72 182.52 1008.72 192.3 1020.71 188.22 1022.81 188.95 1024.04 186.5"/><polygon class="cls-19" points="1030.82 180.17 1028.2 174.04 1016.73 180.82 1025.81 180.05 1028.1 181.91 1030.82 180.17"/><polygon class="cls-2" points="1038.97 212.53 1044.51 214.15 1037.68 227.96 1038.49 217.04 1036.02 214.73 1038.97 212.53"/><polygon class="cls-26" points="1045.38 203.65 1049.83 202.8 1047.91 217.61 1045.89 207.89 1043.97 206.39 1045.38 203.65"/><polygon class="cls-33" points="1047.28 192.77 1053.2 192.72 1053.77 207.03 1050.22 198.82 1046.85 196.23 1047.28 192.77"/><path class="cls-18" d="M1045.97,187.21c-1.57,3.07-5.21,3.73-8.13,1.49-2.9-2.23-3.99-6.49-2.46-9.55,1.54-3.06,5.16-3.77,8.09-1.56s4.07,6.54,2.49,9.62Z"/><path class="cls-46" d="M1039.92,184.61s3.47.4,5.9,3.85c2.44,3.46,2.81,8.44-.49,16.49-3.28,8-10.4,11.71-14.49,11.18-3.89-.51-5.84-2.1-5.84-2.1l14.92-29.42Z"/><path class="cls-30" d="M1039.92,184.61s-1.82-3.62-5.36-4.74c-3.52-1.11-7.21.67-11.53,7.72-4.28,6.99-4.01,16.38-1.96,20.72,1.87,3.95,3.93,5.72,3.93,5.72l14.92-29.42Z"/><path class="cls-3" d="M1039.71,176.31s-1.58-8.74-4.47-13.76c-.1-.05-.45-.15-.99.09-.53.24-.75.75-.79.87.64,1.13,1.28,2.41,1.89,3.85,1.01,2.38,2.16,5.68,2.68,9.29.11.07.49.26.95.15.41-.1.65-.39.73-.5Z"/><path class="cls-46" d="M1035.24,162.55c.15.41-.14.93-.64,1.17s-1.03.1-1.18-.3.14-.93.64-1.17,1.03-.1,1.18.3Z"/><path class="cls-50" d="M1046.05,181.09s7.25-2.18,12.41-1.25c.09.09.33.43.41,1.15.07.7-.21,1.18-.28,1.29-1.16-.2-2.45-.34-3.82-.37-2.27-.05-5.27.15-8.2,1.2-.1-.1-.42-.42-.54-.98-.11-.49,0-.89.04-1.03Z"/><path class="cls-46" d="M1058.45,179.85c-.38.02-.64.58-.58,1.25s.41,1.2.8,1.19.64-.58.58-1.25-.42-1.2-.8-1.19Z"/><g class="cls-72"><path class="cls-14" d="M1034.22,194.98s-3.95,12.3,1.03,14.26c4.75,1.87,10.02-7.71,12.46-13.8l-.28,13.65-10.17,10.33s-7.34.79-7.78.75-6.12-3.76-6.12-3.76l-.95-4.73,11.82-16.7Z"/><path class="cls-36" d="M1035.36,204.26s-2.59,9.46-8.58,10.77l3.22,3.46,3.26-2.11,2.1-12.12Z"/></g><path class="cls-46" d="M1027.29,202.98c-.43.86-.97,1.34-1.61,1.46-.64.12-1.34-.13-2.11-.73-.38-.3-.68-.64-.91-1.01s-.39-.76-.47-1.16c-.09-.4-.1-.8-.04-1.22.06-.41.19-.81.38-1.19.11-.22.23-.41.35-.57.12-.16.23-.29.34-.4.11-.11.2-.19.29-.25.09-.06.15-.1.19-.12l.66,1c-.16.1-.32.24-.48.41-.16.17-.31.4-.45.67-.09.18-.15.38-.19.6-.03.22-.03.44.02.66.05.23.15.45.29.68.14.23.35.45.61.66.21.17.42.3.63.39.21.09.41.13.6.12.19-.01.38-.09.55-.22.17-.13.33-.33.47-.61.09-.17.16-.33.21-.49.05-.15.09-.29.12-.42.03-.13.05-.24.06-.35,0-.11.02-.2.02-.29l1,.33c0,.24-.04.54-.12.9-.08.36-.23.74-.43,1.14Z"/><path class="cls-46" d="M1028.47,198.18c.08-.17.14-.32.17-.44.03-.13.04-.24.03-.34,0-.1-.04-.18-.08-.26-.04-.07-.1-.13-.17-.19-.15-.12-.32-.14-.5-.05-.18.08-.43.28-.75.59-.14.13-.29.26-.44.37-.16.12-.32.21-.49.26-.17.06-.36.07-.55.04-.19-.03-.39-.13-.61-.3s-.38-.36-.5-.59c-.12-.23-.2-.47-.24-.73-.04-.26-.02-.54.03-.82.06-.29.16-.58.31-.88.18-.36.37-.64.56-.84.2-.21.38-.36.54-.47l.64.98c-.14.1-.28.21-.42.35-.14.14-.28.34-.4.59-.14.28-.21.52-.21.69,0,.18.08.32.22.43.08.07.17.1.25.1.08,0,.17-.02.25-.07.09-.05.18-.11.27-.19.09-.08.19-.17.3-.27.23-.21.44-.38.62-.51.19-.14.38-.23.56-.27.18-.04.37-.04.56.02.19.06.4.17.62.34.43.34.68.77.74,1.31.06.53-.08,1.15-.43,1.85-.12.23-.24.44-.36.6-.12.17-.23.31-.34.43-.11.12-.21.21-.3.28-.09.07-.17.13-.25.17l-.66-.99c.16-.1.32-.24.5-.42.18-.18.35-.44.52-.78Z"/><path class="cls-46" d="M1026.89,190.59c.4-.8.83-1.31,1.29-1.54.46-.23.95-.15,1.47.26.33.25.55.54.66.87.12.33.15.7.11,1.11.17-.02.36-.03.57-.03.21,0,.42,0,.65.01.22.01.45.03.68.06.23.03.46.06.67.1l-.68,1.34c-.2-.02-.41-.04-.61-.06-.21-.02-.41-.04-.61-.05s-.39-.01-.58-.01c-.18,0-.35,0-.51.03l-.3.59,1.7,1.32-.6,1.2-4.56-3.56c.09-.29.19-.59.31-.88.12-.29.24-.55.35-.77ZM1027.81,191.21c-.04.09-.08.17-.11.24-.03.07-.06.14-.08.21l1.25.98.17-.34c.23-.45.34-.81.34-1.08,0-.27-.12-.5-.35-.68s-.44-.2-.63-.08c-.19.12-.39.37-.58.76Z"/><path class="cls-46" d="M1033.38,190.67l-4.65-3.6,1.79-3.57.88.68-1.19,2.37.97.75,1.06-2.11.88.68-1.06,2.11,1.93,1.49-.61,1.2Z"/><path class="cls-41" d="M789.79,238.26l-158.32,18.01c-5.79.66-43.96-3.27-44.72-5.29v-2.31c-.77-2.02,3.3-1.89.45-2.55l158.32-18.01c14.42-.66,52.6,3.27,53.36,5.29h0c.77,2.02-3.3,4.19-9.09,4.85Z"/><path class="cls-41" d="M820.9,256.71l-70.53,8.21c-6.89.78-13.23-.53-14.14-2.94h0c-.91-2.41,3.93-5,10.83-5.78l70.53-8.21c6.89-.78,13.23.53,14.14,2.94h0c.91,2.41-3.93,5-10.83,5.78Z"/><path class="cls-28" d="M804.7,217.16l-196.72,19.21c-6.72.66-12.18-5.16-12.18-13V78.66l219.46-9.84v134.15c0,7.27-4.72,13.62-10.55,14.19Z"/><path class="cls-28" d="M815.25,68.82l-219.46,9.84v-9.58c0-7.84,5.47-14.4,12.18-14.64l196.72-7.26c5.84-.22,10.55,5.5,10.55,12.77v8.88Z"/><path class="cls-53" d="M807.5,218.88l-196.72,19.21c-6.72.66-12.18-5.16-12.18-13V80.38l219.46-9.84v134.15c0,7.27-4.72,13.62-10.55,14.19Z"/><path class="cls-20" d="M818.05,70.54l-219.46,9.84v-9.58c0-7.84,5.47-14.4,12.18-14.64l196.72-7.26c5.84-.22,10.55,5.5,10.55,12.77v8.88Z"/><polygon class="cls-24" points="806.17 108.66 736.49 112.71 736.49 102.26 806.17 98.45 806.17 108.66"/><polygon class="cls-6" points="806.17 192.47 612.31 209.56 612.31 198.65 806.17 182.26 806.17 192.47"/><path class="cls-24" d="M802.45,126.07l-63.38,4.08c-2.15.14-3.89-1.87-3.89-4.49h0c0-2.62,1.74-4.85,3.89-4.98l63.38-3.87c2.05-.13,3.71,1.84,3.71,4.4h0c0,2.55-1.66,4.73-3.71,4.86Z"/><path class="cls-24" d="M802.45,141.86l-63.38,4.44c-2.15.15-3.89-1.85-3.89-4.47h0c0-2.62,1.74-4.86,3.89-5l63.38-4.23c2.05-.14,3.71,1.82,3.71,4.37h0c0,2.55-1.66,4.74-3.71,4.88Z"/><path class="cls-24" d="M802.45,156.3l-63.38,4.76c-2.15.16-3.89-1.83-3.89-4.45h0c0-2.62,1.74-4.86,3.89-5.02l63.38-4.55c2.05-.15,3.71,1.8,3.71,4.35h0c0,2.55-1.66,4.75-3.71,4.9Z"/><path class="cls-24" d="M802.45,171.54l-63.38,5.11c-2.15.17-3.89-1.81-3.89-4.43h0c0-2.62,1.74-4.87,3.89-5.04l63.38-4.9c2.05-.16,3.71,1.78,3.71,4.33h0c0,2.55-1.66,4.76-3.71,4.92Z"/><path class="cls-6" d="M619.77,68.11c0,3.27-2.27,6.03-5.08,6.15-2.81.12-5.1-2.44-5.1-5.73s2.29-6.04,5.1-6.15c2.81-.11,5.08,2.46,5.08,5.73Z"/><path class="cls-40" d="M636,67.44c0,3.26-2.25,5.99-5.03,6.11-2.78.12-5.05-2.43-5.05-5.7s2.26-6.01,5.05-6.11c2.78-.11,5.03,2.44,5.03,5.7Z"/><path class="cls-46" d="M652.05,66.78c0,3.24-2.22,5.96-4.97,6.08s-4.99-2.42-4.99-5.67,2.24-5.97,4.99-6.08c2.75-.11,4.97,2.43,4.97,5.67Z"/><path class="cls-52" d="M805.8,67.98l-74.13,3.24c-3.02.13-5.46-2.73-5.46-6.39v-2.17c0-3.66,2.45-6.73,5.46-6.84l74.13-2.84c2.86-.11,5.17,2.68,5.17,6.24v2.11c0,3.56-2.31,6.54-5.17,6.66Z"/><polygon class="cls-65" points="712.48 177.37 619.77 184.79 619.77 108.63 712.48 103.57 712.48 177.37"/><path id="path32" class="cls-52" d="M672.06,144.82v-3.26l-.95.67-.63-.73,1.68-1.13,1.09-.03v4.43l-1.19.05"/><path id="path34" class="cls-52" d="M676.91,142.39c0-.14,0-.29-.03-.45-.02-.16-.05-.32-.1-.46-.05-.14-.12-.26-.22-.35-.1-.09-.22-.14-.37-.13s-.28.06-.38.16c-.1.1-.17.22-.23.37-.05.14-.09.3-.11.47-.02.17-.03.32-.03.46s0,.29.03.46c.02.17.05.32.11.46.05.14.13.26.23.35.1.09.22.14.38.13s.28-.06.37-.16c.1-.1.17-.22.22-.37.05-.14.09-.3.1-.47.02-.17.03-.32.03-.46ZM678.11,142.35c0,.31-.03.6-.1.89-.07.28-.18.53-.33.75-.15.22-.35.4-.59.53-.24.14-.54.21-.89.23s-.65-.03-.9-.15c-.25-.12-.45-.28-.61-.48-.16-.21-.27-.45-.34-.73-.07-.28-.11-.58-.11-.89s.04-.61.11-.89c.07-.28.19-.53.34-.75.16-.21.36-.39.61-.52.25-.13.55-.2.9-.21s.65.04.89.16c.24.12.44.28.59.48.15.2.26.44.33.72.07.27.1.57.1.87"/><path id="path36" class="cls-52" d="M684.47,144.26v-3.14l-.88.65-.58-.7,1.56-1.09,1.01-.03v4.27l-1.11.05"/><path id="path38" class="cls-52" d="M688.97,141.93c0-.13,0-.28-.03-.43-.02-.16-.05-.31-.1-.44-.05-.14-.12-.25-.2-.34-.09-.09-.2-.13-.35-.13s-.26.06-.35.15c-.09.1-.16.22-.21.35-.05.14-.08.29-.1.45-.02.16-.03.31-.03.44s0,.28.03.45c.02.16.05.31.1.44.05.14.12.25.21.34.09.09.21.13.35.13s.26-.06.35-.16c.09-.1.16-.22.2-.35.05-.14.08-.29.1-.45.02-.16.03-.31.03-.45ZM690.08,141.89c0,.3-.03.58-.1.85-.06.27-.17.51-.31.72-.14.21-.33.38-.55.51-.23.13-.5.2-.83.22s-.6-.03-.83-.14c-.23-.11-.42-.27-.57-.47-.15-.2-.25-.43-.32-.7-.06-.27-.1-.55-.1-.86s.03-.59.1-.86c.07-.27.17-.51.32-.72s.34-.37.57-.5c.23-.13.51-.19.83-.21s.6.04.83.15c.23.11.41.27.55.46.14.2.24.43.31.69.06.26.1.55.1.84"/><path id="path40" class="cls-52" d="M671.95,151.82v-3.27l-.95.7-.63-.71,1.68-1.17,1.09-.06v4.43l-1.2.08"/><path id="path42" class="cls-52" d="M676.12,151.54v-3.23l-.93.69-.61-.71,1.64-1.15,1.07-.06v4.38l-1.17.08"/><path id="path44" class="cls-52" d="M680.18,151.28v-3.19l-.9.68-.6-.7,1.6-1.14,1.04-.05v4.32l-1.14.08"/><path id="path46" class="cls-52" d="M685,148.81c0-.13,0-.28-.03-.44-.02-.16-.05-.31-.1-.44-.05-.14-.12-.25-.21-.34-.09-.09-.21-.13-.36-.12s-.27.06-.36.16c-.09.1-.17.22-.22.36-.05.14-.09.29-.1.46-.02.16-.03.31-.03.44s0,.29.03.45c.02.16.05.31.1.45.05.14.12.25.22.34.09.09.21.13.36.12s.26-.06.36-.17c.09-.1.16-.22.21-.36.05-.14.08-.29.1-.46.02-.16.03-.31.03-.45ZM686.13,148.74c0,.3-.03.59-.1.87-.07.28-.17.52-.32.74-.14.22-.33.39-.57.53-.23.14-.51.22-.85.24s-.62-.02-.85-.13c-.24-.11-.43-.26-.58-.46-.15-.2-.26-.43-.33-.71-.07-.27-.1-.56-.1-.86s.03-.6.1-.87c.07-.28.18-.52.33-.74.15-.21.34-.39.58-.52.24-.13.52-.21.85-.23s.61.03.85.14c.23.11.42.26.57.46.15.19.25.42.32.69.07.27.1.55.1.85"/><path id="path48" class="cls-52" d="M674.36,156.61v-2.35l-.68.51-.45-.51,1.2-.86.78-.06v3.2l-.86.07"/><path id="path50" class="cls-52" d="M680.27,156.13v-2.31l-.66.5-.43-.5,1.16-.85.76-.05v3.14l-.83.07"/><path id="path52" class="cls-52" d="M671.94,155.18c0-.1,0-.21-.02-.33-.01-.12-.04-.23-.08-.33-.04-.1-.09-.19-.16-.25-.07-.07-.16-.09-.28-.09s-.21.05-.28.13c-.07.08-.13.17-.17.28-.04.11-.07.22-.08.35-.01.12-.02.24-.02.34s0,.22.02.34c.01.12.04.24.08.34.04.1.1.19.17.25.07.07.17.09.28.08s.21-.05.28-.13c.07-.08.13-.17.16-.28.04-.11.06-.22.08-.35.01-.12.02-.24.02-.34ZM672.83,155.12c0,.23-.03.45-.08.66-.05.21-.14.4-.25.56-.12.17-.26.3-.44.41-.18.11-.4.17-.67.19s-.49,0-.67-.08c-.19-.08-.34-.19-.45-.34-.12-.15-.2-.32-.26-.53-.05-.2-.08-.42-.08-.65s.03-.45.08-.66c.05-.21.14-.4.26-.56.12-.16.27-.3.45-.4.19-.1.41-.17.67-.18s.48.01.67.09c.18.08.33.19.44.33.11.15.2.32.25.52.05.2.08.42.08.64"/><path id="path54" class="cls-52" d="M677.97,154.73c0-.1,0-.21-.02-.33-.01-.12-.04-.23-.08-.33-.04-.1-.09-.18-.16-.25-.07-.06-.16-.09-.27-.09s-.2.05-.27.12c-.07.08-.13.17-.16.27-.04.11-.07.22-.08.34-.01.12-.02.23-.02.33s0,.21.02.33c.01.12.04.23.08.33.04.1.09.18.16.25.07.07.16.09.27.08s.2-.05.27-.13c.07-.08.12-.17.16-.27.04-.11.06-.22.08-.34.01-.12.02-.23.02-.34ZM678.83,154.66c0,.22-.02.44-.07.64-.05.21-.13.39-.24.55-.11.16-.25.3-.43.4-.18.11-.39.17-.64.19s-.47,0-.65-.08c-.18-.08-.33-.19-.44-.33-.11-.14-.2-.32-.25-.52-.05-.2-.08-.41-.08-.64s.03-.44.08-.65c.05-.21.13-.39.25-.55.11-.16.26-.29.44-.39.18-.1.39-.16.65-.18s.47.01.64.09c.18.08.32.19.43.33.11.14.19.31.24.51.05.2.07.41.07.63"/><path id="path56" class="cls-52" d="M689.65,155.37v-2.25l-.62.49-.41-.48,1.09-.82.71-.05v3.05l-.78.06"/><path id="path58" class="cls-52" d="M687.48,154c0-.1,0-.2-.02-.32-.01-.11-.04-.22-.07-.32-.03-.1-.08-.18-.15-.24-.06-.06-.15-.09-.25-.08s-.19.05-.26.12c-.07.07-.12.16-.16.26-.04.1-.06.21-.07.33-.01.12-.02.22-.02.32s0,.21.02.32c.01.12.04.22.07.32.04.1.09.18.16.24.07.06.15.09.26.08s.19-.05.25-.12c.06-.07.11-.16.15-.26.04-.1.06-.21.07-.33.01-.12.02-.23.02-.33ZM688.29,153.94c0,.22-.02.43-.07.63-.05.2-.12.38-.23.54-.1.16-.24.29-.4.39-.17.1-.37.16-.6.18s-.44,0-.61-.08c-.17-.07-.31-.18-.41-.33-.11-.14-.18-.31-.23-.5-.05-.19-.07-.4-.07-.62s.02-.43.07-.63c.05-.2.12-.38.23-.53.11-.15.24-.28.41-.38.17-.1.37-.16.61-.17s.44.01.6.09c.17.08.3.18.4.32.1.14.18.3.23.5.05.19.07.4.07.61"/><path id="path60" class="cls-52" d="M686.62,159.26v-2.27l-.63.5-.42-.49,1.11-.84.73-.06v3.08l-.79.07"/><path id="path62" class="cls-52" d="M684.4,157.9c0-.1,0-.2-.02-.32-.01-.12-.04-.22-.07-.32-.04-.1-.09-.18-.15-.24-.07-.06-.15-.09-.26-.08s-.19.05-.26.12c-.07.07-.12.16-.16.27-.04.11-.06.22-.08.33-.01.12-.02.23-.02.32s0,.21.02.33c.01.12.04.23.08.32.04.1.09.18.16.24.07.06.15.09.26.08s.19-.05.26-.13c.07-.08.12-.16.15-.27.04-.1.06-.22.07-.34.01-.12.02-.23.02-.33ZM685.23,157.83c0,.22-.02.43-.07.63-.05.2-.13.38-.23.55-.11.16-.24.29-.41.4-.17.1-.38.17-.62.19s-.45,0-.62-.08c-.17-.07-.31-.18-.42-.32-.11-.14-.19-.31-.24-.51-.05-.2-.07-.4-.07-.62s.03-.43.07-.63c.05-.2.13-.38.24-.54.11-.16.25-.29.42-.39.17-.1.38-.16.62-.18s.45,0,.62.08c.17.07.31.18.41.32.11.14.18.3.23.5.05.19.07.4.07.62"/><path id="path64" class="cls-52" d="M673.16,160.45v-1.64l-.47.36-.31-.35.84-.61.55-.05v2.23l-.6.06"/><path id="path66" class="cls-52" d="M671.5,159.48c0-.07,0-.15-.01-.23-.01-.08-.03-.16-.06-.23-.03-.07-.06-.13-.11-.17-.05-.05-.11-.06-.19-.06s-.15.04-.2.09c-.05.05-.09.12-.12.19-.03.08-.05.16-.06.24,0,.09-.01.16-.01.23s0,.15.01.23c0,.09.03.16.06.23.03.07.07.13.12.17.05.05.12.06.2.06s.14-.04.19-.09c.05-.05.09-.12.11-.19.03-.08.04-.16.06-.24,0-.09.01-.17.01-.24ZM672.12,159.42c0,.16-.02.31-.05.46-.04.15-.09.28-.17.39-.08.12-.18.21-.31.29-.13.08-.28.12-.46.14s-.34,0-.47-.05c-.13-.05-.23-.13-.32-.23-.08-.1-.14-.22-.18-.36-.04-.14-.05-.29-.05-.45s.02-.31.05-.46c.04-.15.09-.28.18-.39.08-.11.19-.21.32-.28.13-.07.28-.12.47-.14s.33,0,.46.06c.13.05.23.13.31.23.08.1.14.22.17.36.04.14.05.29.05.45"/><path id="path68" class="cls-52" d="M680.45,162.58v-1.6l-.45.36-.3-.34.8-.6.52-.05v2.18l-.57.06"/><path id="path70" class="cls-52" d="M678.86,161.64c0-.07,0-.14-.01-.23,0-.08-.03-.16-.05-.23s-.06-.13-.11-.17c-.05-.04-.11-.06-.19-.06s-.14.04-.19.09c-.05.05-.09.12-.11.19-.03.07-.04.15-.05.24,0,.08-.01.16-.01.23s0,.15.01.23c0,.08.03.16.05.23.03.07.06.12.11.17.05.04.11.06.19.05s.14-.04.19-.09c.05-.05.08-.12.11-.19.03-.07.04-.15.05-.24,0-.08.01-.16.01-.23ZM679.45,161.58c0,.15-.02.3-.05.45-.03.14-.09.27-.17.39-.08.11-.17.21-.3.28-.12.07-.27.12-.44.14s-.32,0-.44-.05c-.12-.05-.22-.13-.3-.22-.08-.1-.13-.22-.17-.35-.04-.14-.05-.28-.05-.44s.02-.31.05-.45c.03-.14.09-.27.17-.38.08-.11.18-.21.3-.28.12-.07.27-.12.44-.13s.32,0,.44.05c.12.05.22.12.3.22.08.1.13.21.17.35.04.14.05.28.05.44"/><path id="path72" class="cls-52" d="M689.95,157.41c0-.09,0-.2-.02-.31-.01-.11-.04-.22-.07-.32-.03-.1-.08-.18-.15-.24-.06-.06-.15-.09-.25-.08s-.19.05-.25.12c-.07.07-.12.16-.15.26-.04.1-.06.21-.07.33-.01.12-.02.22-.02.32s0,.21.02.32c.01.12.04.22.07.32.04.1.09.18.15.24.07.06.15.09.25.08s.19-.05.25-.12c.06-.07.11-.16.15-.26.03-.1.06-.21.07-.33.01-.12.02-.22.02-.32ZM690.75,157.34c0,.22-.02.42-.07.62-.05.2-.12.38-.22.54-.1.16-.24.29-.4.39-.16.1-.36.16-.6.19s-.43,0-.6-.08c-.17-.07-.3-.18-.41-.32-.11-.14-.18-.31-.23-.5-.05-.19-.07-.4-.07-.61s.02-.43.07-.62c.05-.2.12-.38.23-.53.11-.15.24-.28.41-.38.17-.1.37-.16.6-.18s.43,0,.6.08c.16.07.3.18.4.31.1.14.18.3.22.49.05.19.07.39.07.61"/><path id="path74" class="cls-52" d="M688.44,136.82c-.77-3.45-4.17-5.95-8.16-5.94-.62,0-1.23.07-1.82.18-1-5.21-6.19-9.32-12.65-9.47s-12.4,3.9-13.63,9.42c-5.2.41-9.4,4.09-9.4,8.55,0,4.71,4.7,8.31,10.32,8.03l14.39-.73c.7-.04,1.27-.55,1.27-1.16s-.57-1.07-1.27-1.04l-14.39.63c-4.05.18-7.41-2.43-7.41-5.81s3.36-6.17,7.41-6.21c1.45-.01,2.83.32,4.01.97.62.34,1.46.19,1.87-.33.41-.52.25-1.22-.36-1.57-1.1-.62-2.34-1.03-3.65-1.23,1.12-4.28,5.62-7.41,10.84-7.32,5.39.09,9.73,3.61,10.35,8.03-.33.16-.64.33-.95.53-.55.35-.67,1.03-.28,1.51.39.48,1.15.57,1.7.22,1.08-.7,2.34-1.08,3.65-1.09,2.9-.03,5.38,1.78,5.95,4.29.11.49.58.82,1.11.8.07,0,.15-.01.23-.03.61-.13,1-.69.88-1.24"/><g class="cls-71"><path class="cls-58" d="M763.77,78.46h-11.67s-24.6,18.61-64.23,23.55c0,0-2.99,117.46,75.9,131.01V78.46Z"/><path class="cls-64" d="M822.88,95.96c-29.82,1.79-59.11-17.49-59.11-17.49,0,0-31,22.91-66.55,25.05,0,0-4.5,108.58,66.55,129.51,62.62-41.8,59.11-137.06,59.11-137.06Z"/><path class="cls-13" d="M815.29,103.63c-26.09,1.76-51.52-14.74-51.52-14.74,0,0-26.71,20.01-57.09,22.05,0,0-3.82,93.11,57.09,111.65,54.61-35.92,51.52-118.96,51.52-118.96Z"/></g><g class="cls-73"><path class="cls-58" d="M780.51,80.38h-11.77s-24.8,18.77-64.76,23.74c0,0-3.01,118.43,76.53,132.1V80.38Z"/><path class="cls-64" d="M840.11,98.02c-30.07,1.81-59.6-17.64-59.6-17.64,0,0-31.26,23.1-67.11,25.26,0,0-4.53,109.48,67.11,130.58,63.15-42.15,59.6-138.2,59.6-138.2Z"/><path class="cls-13" d="M832.46,105.76c-26.31,1.77-51.95-14.86-51.95-14.86,0,0-26.93,20.17-57.56,22.23,0,0-3.85,93.88,57.56,112.58,55.06-36.21,51.95-119.95,51.95-119.95Z"/></g><path class="cls-58" d="M799.64,85.87h-11.43s-24.08,18.22-62.88,23.05c0,0-2.92,115,74.31,128.26V85.87Z"/><path class="cls-64" d="M857.51,103c-29.2,1.76-57.87-17.13-57.87-17.13,0,0-30.35,22.43-65.16,24.53,0,0-4.4,106.3,65.16,126.79,61.31-40.93,57.87-134.19,57.87-134.19Z"/><path class="cls-13" d="M850.08,110.51c-25.55,1.72-50.44-14.43-50.44-14.43,0,0-26.15,19.59-55.89,21.59,0,0-3.74,91.16,55.89,109.31,53.46-35.16,50.44-116.46,50.44-116.46Z"/><circle class="cls-45" cx="862.97" cy="181.28" r="25.57"/><circle class="cls-39" cx="894.94" cy="98.45" r="41.6"/><path class="cls-4" d="M923.83,97.58c0-6.5-2.05-12.6-5.53-17.49h0s1.27-2.49-1.14-3.33c-.67-.23-1.62-.6-2.67-1.01-3.49-3.25-7.88-5.67-12.94-6.68-2.43-.48-4.86-.61-7.24-.4-.94-1.06-2.12-2.02-3.05-1.65-1.92.77-5.63,3.95-6.24,4.26-.01,0-.03.02-.04.02-2.74,1.36-5.25,3.21-7.45,5.48-.03.02-.04.03-.04.03,0,0-6.43,1.67-6.43,2.9s-.35,6.34,0,7.51c0,0,0,0,0,0-1.14,3.2-1.77,6.67-1.77,10.29,0,4.7,1.05,9.13,2.92,13.06,0,0,0,.02,0,.02.03.05.06.13.1.22,0,.02.02.04.03.06.85,1.83,4.46,9.89,8.21,12.17,3.81,2.32,12,3.18,12,3.18h.02c2.94.46,5.96.42,8.98-.17.32-.06.63-.14.94-.21,1.54.28,3.29.2,4.78-.92,3.34-2.51,4.62-3.38,4.62-3.38l2.59-.46.7-2.34c5.37-5.33,8.65-12.97,8.65-21.16Z"/><path class="cls-38" d="M923.83,97.58c0-6.5-2.05-12.6-5.53-17.49h0s1.27-2.49-1.14-3.33c-.67-.23-1.62-.6-2.67-1.01-3.49-3.25-7.88-5.67-12.94-6.68-2.43-.48-4.86-.61-7.24-.4-.94-1.06-2.12-2.02-3.05-1.65-1.92.77-5.63,3.95-6.24,4.26-.01,0-.03.02-.04.02-2.74,1.36-5.25,3.21-7.45,5.48-.03.02-.04.03-.04.03,0,0-6.43,1.67-6.43,2.9s-.35,6.34,0,7.51c0,0,0,0,0,0-1.14,3.2-1.77,6.67-1.77,10.29,0,4.7,1.05,9.13,2.92,13.06,0,0,0,.02,0,.02.03.05.06.13.1.22,0,.02.02.04.03.06.85,1.83,4.46,9.89,8.21,12.17,3.81,2.32,12,3.18,12,3.18h.02c2.94.46,5.96.42,8.98-.17.32-.06.63-.14.94-.21,1.54.28,3.29.2,4.78-.92,3.34-2.51,4.62-3.38,4.62-3.38l2.59-.46.7-2.34c5.37-5.33,8.65-12.97,8.65-21.16Z"/><path class="cls-17" d="M883.64,113.49s-4.62-2.92-3.8-4.5,5.79-12.6,5.79-12.6c0,0-.3,11.78-.91,12.86s-1.08,4.25-1.08,4.25Z"/><path class="cls-17" d="M901.56,115.58l-3.4-2.02s2.44-.66,3.4-2.62c.95-1.93,0-5.82,0-5.82,0,0,3.21,1.52,3.91,2.63.69,1.1,1.38,1.69,0,1.8s-2.24.58-2.12,2.01,1.54,2.95-.24,3.82-1.56.19-1.56.19Z"/><path class="cls-17" d="M909.19,94.58c-2.23-2.09-1.78-1.82-1.55-2.95.22-1.13,1.88-4.79,3.18-3.08,1.27,1.68,1.69,2.17,1.48,2.9s-2.36,3.14-2.36,3.14l-.75-.02Z"/><g class="cls-70"><path class="cls-17" d="M872.47,82.17s-.38,12.88,2.02,21.28c2.93,10.3,5.78,16.15,8.25,16.41,4.24.44,9.69.93,11.19.71s-1.65,1.38,0,2.23c1.61.84,2.67.79,3.58.63s4.64-2.78,5.36-3.16c.72-.37,2.71-1.07,4.09-1.03,1.35.04,2.34-.24,4.92-1.01,2.48-.74,6.04-5.03,6.33-5.3s.95-2.32,1.04-2.91,1.4-1.97,1.86-2.81c.46-.83,1.45-3.16,1.45-3.16l1.06-2.84s2.58,18.12,2.41,19.36-11.56,12.57-12.38,12.79-18.37-2.35-22.91-2.49c-4.82-.14-19.61-3.17-20.16-3.88-.31-.41-3.74-35.72-3.11-48.18.48-9.45,4.99,3.37,4.99,3.37Z"/></g><path class="cls-17" d="M910.82,112.17c-.64-1.26.63-4.01.76-4.9s2.95-3.72,2.95-3.72c0,0,1.66-3.23,2.36-2.26s1.6,2.86.81,4.16-1.5,4.29-3.28,5.04c-1.83.77-1.77,2.36-2.05,3.4s-.38,2.96-1.71,3.15c-1.36.2-.98-.16-2.15.31s-.13-3.12.78-3.38,1.54-1.8,1.54-1.8Z"/><path class="cls-17" d="M885.63,89.44s1.26-4.6,1.78-6.63c.52-2.01,3.76-3.68,3.76-3.68,0,0,2.14,6.4.5,6.77s-5.14,3.59-5.14,3.59l-.9-.05Z"/><path class="cls-17" d="M909.94,79.47c.21.2.4.39.58.58,2.58,2.59,2.88,3.66,4.24,4.21s3.32,3.9,3.24,4.41.48,3.08.48,3.08c0,0,1.78,2.9,1.78,1.81s-.77-6.28-.77-6.28c-.22-.9-1.69-3.82-3.31-4.56-1.66-.76-6.24-3.24-6.24-3.24Z"/><path class="cls-10" d="M908.81,73.37c0,1.01-.72,1.7-1.62,1.56s-1.66-1.11-1.66-2.14.75-1.72,1.66-1.55,1.62,1.13,1.62,2.13Z"/><path class="cls-31" d="M888.21,74.9c0,.7-.57,1.18-1.28,1.08s-1.3-.75-1.3-1.46.59-1.19,1.3-1.08,1.28.76,1.28,1.46Z"/><path class="cls-27" d="M898.77,90.81c-.68-.34-3.79,1.38-3.79,1.38,0,0-1.25,3.03,1.08,3.39,2.26.35,3.44-.17,3.44-1.23s.73-2.8-.73-3.54Z"/><path class="cls-48" d="M910.89,109.67c-1.7,1.38-2.55,1.14-2.08,2.73.47,1.57-1.38,1.23.47,1.57s2.83,1.1,3.08-.08c.25-1.18,1.23-3.76,0-4.35s-1.46.13-1.46.13Z"/><path class="cls-29" d="M886.93,111.42c-3.09.54-1.92-1.24-3.06.73s-1.11,1.39-1.13,2.83,2.68,1.98,2.68,1.98c0,0,.97.22,1.52-.18s1.34-.66,1.28-1.5c-.06-.83,0-2.24,0-2.24,0,0-.46-1.76-1.28-1.62Z"/><path class="cls-49" d="M897.21,122.82c-.24-2.18-.28-2.65.94-2.83s3.58-.08,3.4.79.6,1.51,0,1.92-.82.76-1.87,1.1-.89.91-1.53.27l-.64-.65-.3-.61Z"/><path class="cls-44" d="M873.49,93.75c-.82.39-1.02,1.6-1.02,1.6,0,0,.41.3,1.02.94s1.81,1.44,1.81,1.44l1.18-1.42v-.91l-1.98-1.04-1.01-.61Z"/><path class="cls-8" d="M906.27,98.85v.74h.99l.26-.9-.33-.97-.92,1.12Z"/><path class="cls-16" d="M909.94,86.05c.07,1.03.88,2.5.88,2.5l1.08,1.45,1.28,2.14-.21,4.48s-1.4,1.08-1.39,2.01,2.69-1.51,3.06-2.7c.37-1.17.69-4.77.67-4.95s-1.04-2.58-1.04-2.58c0,0-.4-1.67-1.91-2.14-1.55-.49-2.41-.21-2.41-.21Z"/><path class="cls-16" d="M892.29,81.66s1.14-2.97,1.14-3.35-1.14-1.21-1.14-1.21c0,0-5,.56-5.96,1.38-.97.83-2.95,5.09-2.95,5.09l-1.88,3.07v1.8l4-5.87s2.03-2.21,2.72-2.14,1.61.05,1.88-.32,1.07-.98,1.07-.98l1.12,2.53Z"/><path class="cls-16" d="M909.94,77.43v2.04s3.78,2.01,4.15,2.2,1.75.85,2.09,1.04,1.37.41,1.82.89,1.31,2.06,1.31,2.06c0,0-2.2-4-2.47-4.25s-3.67-2.88-3.67-2.88c0,0-2.31-1.41-3.23-1.09Z"/><path class="cls-16" d="M899.47,71.17c-.58,1.63-.27,1.71.21,2.52s2.64,2.12,2.64,2.12c0,0,1.31-1.35,1.75.63.43,1.97.54-.87.54-.87,0,0,.11-2.6-.98-3.4-1.1-.8-4.17-1.62-4.17-1.62v.62Z"/><path class="cls-16" d="M885.63,96.39s1.47-2.32,2.07-1.57c.59.74,1.16.63,1.34,1.6.18.97-.81,5.44-.81,5.44l-1.29,1.44-1.3-6.9Z"/><path class="cls-16" d="M901.56,83.96c-.22.03-.41,1.13.38,1.4s2.14-.61,2.59-.57,2.1-.72,2.36-.32,3.05-1.08,3.05-1.08c0,0,.48-1.73-1.13-2.13-1.65-.42-2.44-.96-2.99-.72s-4.05,3.39-4.26,3.43Z"/><path class="cls-55" d="M872.28,177.36l-.45-.79-.67-1.18-2.09-3.67-2.19-3.85-2.58-4.54-.87-1.52-.87-1.53-1.78.92h0s-1,.56-1,.56l.38,1.53,1.76,7.01h0s.3,1.2.3,1.2l2.05,2.75h0s4.5,6.03,4.5,6.03l1.42-.18,2.75-1.53-.68-1.19ZM867.52,176.46h0s-.85-1.28-.85-1.28l-.05-.08s.05.06.08.09c.22.27.45.52.68.76h0c.38.41.76.77,1.14,1.1l-.08.77-.91-1.36Z"/><path class="cls-54" d="M871.18,178.65c-.17.66-.5,1.15-.98,1.43-.4.23-.88.29-1.42.18-2.13-.39-5.13-3.23-7.43-7.28-2.88-5.06-3.58-10.09-1.58-11.23.5-.28,1.12-.3,1.81-.09.43.13.89.35,1.37.65.44.27.89.61,1.34,1.01.88.77,1.78,1.76,2.65,2.93.59.79,1.15,1.66,1.68,2.59.22.39.43.78.62,1.17.97,1.91,1.61,3.77,1.91,5.38.07.36.11.71.15,1.04.04.37.05.73.04,1.06-.01.43-.07.82-.16,1.16Z"/><path class="cls-51" d="M873.83,177.45c-.19.5-.48.88-.88,1.11-.49.28-1.1.3-1.78.1-.81-.24-1.73-.79-2.67-1.61-.38-.33-.76-.69-1.14-1.1-.23-.24-.45-.49-.68-.76-.03-.03-.05-.06-.08-.09v-.02c-.88-1.03-1.73-2.25-2.49-3.6-2.2-3.87-3.12-7.72-2.53-9.82.18-.64.5-1.12.97-1.39,0,0,.02,0,.02-.01,1.1-.61,2.77.06,4.53,1.61.89.79,1.81,1.8,2.68,2.99.56.76,1.1,1.59,1.61,2.48,2.3,4.05,3.21,8.07,2.44,10.1Z"/><ellipse class="cls-66" cx="867.96" cy="169.53" rx="3.56" ry="8.95" transform="translate(29.68 451.26) rotate(-29.63)"/><path class="cls-1" d="M868.72,176.04c-.63-.54-1.91-1.97-1.91-1.97l.08-6.2.04-5.04c.89.79,1.81,1.8,2.68,2.99l-.52,5.9-.35,4.32Z"/><text class="cls-62" transform="translate(869.34 174.37) rotate(-34.74) scale(.48 1)"><tspan x="0" y="0"></tspan></text><path class="cls-23" d="M873.8,184.35l-.74.52-1.11.78-3.47,2.42-3.63,2.53-4.28,2.99-1.44,1-1.45,1.01,1.08,1.69h0s.64.94.64.94l1.48-.52,6.82-2.4h0s1.16-.41,1.16-.41l2.55-2.29h0s5.59-5.04,5.59-5.04l-.31-1.4-1.78-2.6-1.12.78ZM873.34,189.16h0s-1.19.97-1.19.97l-.08.06s.05-.06.08-.08c.24-.25.48-.5.69-.75h0c.37-.42.7-.83.99-1.24h.77s-1.27,1.04-1.27,1.04Z"/><path class="cls-32" d="M875.19,185.32c.68.11,1.19.39,1.51.84.26.38.37.85.31,1.4-.19,2.16-2.75,5.4-6.57,8.06-4.78,3.33-9.72,4.49-11.04,2.6-.33-.47-.4-1.09-.26-1.8.09-.44.27-.92.52-1.42.23-.46.53-.94.89-1.43.69-.95,1.59-1.94,2.68-2.9.73-.65,1.55-1.3,2.43-1.91.37-.25.74-.5,1.1-.73,1.81-1.14,3.61-1.95,5.18-2.4.35-.1.69-.18,1.02-.24.37-.07.72-.11,1.05-.13.43-.02.82,0,1.17.05Z"/><path class="cls-5" d="M873.74,182.79c.52.14.92.4,1.18.77.32.46.4,1.07.26,1.76-.16.83-.63,1.79-1.35,2.8-.29.41-.62.82-.99,1.24-.22.25-.45.5-.69.75-.03.03-.05.06-.08.08l-.02.02c-.94.95-2.08,1.91-3.36,2.8-3.65,2.54-7.4,3.81-9.54,3.42-.65-.12-1.16-.4-1.47-.84,0,0,0-.01-.01-.02-.7-1.04-.19-2.76,1.19-4.66.7-.96,1.62-1.96,2.73-2.94.71-.63,1.48-1.24,2.33-1.83,3.82-2.66,7.74-3.93,9.83-3.35Z"/><ellipse class="cls-66" cx="866.4" cy="189.37" rx="8.95" ry="3.56" transform="translate(47.34 529.43) rotate(-34.88)"/><path class="cls-1" d="M872.82,188.01c-.48.68-1.78,2.08-1.78,2.08l-6.18.49-5.02.43c.7-.96,1.62-1.96,2.73-2.94l5.92-.02,4.34-.04Z"/><text class="cls-61" transform="translate(871.09 187.73) rotate(-129.99) scale(.48 1)"><tspan x="0" y="0"></tspan></text><circle class="cls-57" cx="796.43" cy="143.34" r="31.66"/><polygon class="cls-52" points="797.53 129.47 797.55 129.49 803.34 150.95 806.7 146.05 813.67 154.72 816.39 152.53 816.38 152.51 818.85 150.49 811.81 141.87 817.29 139.58 797.53 129.47"/><path class="cls-35" d="M797.19,129.81c-.28-.35.09.54.15.78.21.8.43,1.59.64,2.39.66,2.46,1.33,4.92,1.99,7.38.97,3.58,1.93,7.15,2.9,10.73.11.42.65.45.88.12,1.12-1.64,2.24-3.27,3.36-4.91l-.76.1c2.32,2.89,4.65,5.78,6.97,8.68.18.22.5.15.68,0,.91-.73,1.81-1.46,2.72-2.19.22-.17.15-.5,0-.68l-.02-.02v.68c.82-.67,1.65-1.35,2.47-2.02.22-.18.15-.5,0-.68-2.35-2.87-4.7-5.75-7.04-8.62l-.21.81c1.83-.76,3.66-1.53,5.48-2.29.35-.14.52-.67.12-.88-6.59-3.37-13.18-6.74-19.76-10.11-.55-.28-1.04.55-.49.83,6.59,3.37,13.18,6.74,19.76,10.11l.12-.88c-1.83.76-3.66,1.53-5.48,2.29-.35.15-.46.5-.21.81,2.35,2.87,4.7,5.75,7.04,8.62v-.68l-2.47,2.02c-.22.18-.15.5,0,.68l.02.02v-.68l-2.72,2.19h.68c-2.32-2.89-4.65-5.78-6.97-8.68-.21-.26-.6-.13-.76.1l-3.36,4.91.88.12c-1.02-3.78-2.04-7.57-3.06-11.35-.66-2.45-1.32-4.9-1.98-7.35-.23-.84-.32-2.29-.89-2.99-.39-.48-1.07.2-.68.68Z"/><path class="cls-52" d="M795.36,143.1c-.91-.19-1.62.44-1.82,1.35l.14-.65c.19-.91-.4-1.81-1.3-2s-1.81.4-2,1.3c.19-.91-.4-1.81-1.3-2s-1.81.4-2,1.3l1.15-5.47c.19-.91-.4-1.81-1.3-2s-1.81.4-2,1.3l-2.41,11.44-1.01-1.56c-.51-.78-1.56-1-2.34-.49h0c-.78.51-1,1.56-.49,2.34l4.32,6.28s.04.05.06.08c.93,1.52,2.46,2.67,4.35,3.07,3.14.66,6.24-.98,7.52-3.79.15-.19.26-.42.31-.67l1.46-7.83c.19-.91-.4-1.81-1.3-2Z"/><path class="cls-35" d="M788.74,157.96c-.48,0-.97-.05-1.46-.15-1.94-.41-3.58-1.57-4.62-3.26-.01-.02-.03-.04-.05-.07l-4.32-6.27c-.64-.99-.37-2.3.61-2.94.98-.64,2.29-.36,2.93.62l.45.69,2.2-10.43c.12-.55.44-1.03.92-1.34.48-.31,1.04-.42,1.59-.3.55.12,1.03.44,1.34.92s.42,1.04.3,1.59l-.8,3.8c.4-.18.86-.25,1.32-.15.67.14,1.21.59,1.48,1.17.07-.06.15-.12.23-.18.48-.31,1.04-.42,1.59-.3.55.12,1.03.44,1.34.92.13.19.22.4.28.62.39-.25.87-.34,1.37-.23.55.12,1.03.44,1.34.92.31.48.42,1.04.3,1.59l-1.45,7.82c-.06.3-.18.57-.36.81-1.18,2.55-3.78,4.14-6.52,4.14ZM780.06,145.78c-.24,0-.47.07-.69.2-.58.38-.75,1.16-.37,1.75l4.39,6.37c.92,1.49,2.36,2.51,4.07,2.87,2.87.6,5.83-.89,7.04-3.55l.05-.08c.11-.15.19-.32.23-.5l1.45-7.82c.07-.34,0-.67-.18-.96s-.47-.48-.79-.55c-.72-.15-1.18.4-1.31,1.02l-.84-.18s0,0,0,0l.14-.64c.07-.33,0-.66-.18-.95-.18-.28-.47-.48-.79-.55-.33-.07-.66,0-.95.18-.28.18-.48.47-.55.79l-.84-.18c.14-.68-.29-1.35-.97-1.49-.68-.14-1.35.29-1.49.97h0s-.84-.18-.84-.18l1.15-5.47c.07-.33,0-.66-.18-.95-.18-.28-.47-.48-.79-.55-.33-.07-.66,0-.95.18s-.48.47-.55.79l-2.63,12.45-1.58-2.42c-.24-.37-.65-.57-1.06-.57Z"/><line class="cls-52" x1="787.06" y1="142.4" x2="786.47" y2="145.23"/><rect class="cls-35" x="785.32" y="143.39" width="2.89" height=".86" transform="translate(483.91 884.06) rotate(-78.11)"/><line class="cls-52" x1="790.37" y1="143.1" x2="789.7" y2="146.29"/><rect class="cls-35" x="788.4" y="144.27" width="3.26" height=".86" transform="translate(485.65 887.96) rotate(-78.11)"/><line class="cls-52" x1="793.54" y1="144.45" x2="793.08" y2="146.63"/><rect class="cls-35" x="792.2" y="145.11" width="2.23" height=".86" transform="translate(486.72 891.54) rotate(-78.05)"/><ellipse class="cls-41" cx="787.63" cy="271.5" rx="20.71" ry="6.36"/><ellipse class="cls-41" cx="851.19" cy="275.83" rx="18.9" ry="5.8"/><ellipse class="cls-41" cx="886.01" cy="263.54" rx="17.91" ry="5.5"/><path class="cls-9" d="M744.2,61.63c.17-.05.39-.1.67-.16.28-.06.59-.09.96-.1.26,0,.48.02.66.09.18.07.33.16.45.3.04-.03.09-.07.17-.12.08-.05.18-.1.29-.15.12-.05.24-.09.39-.13.14-.04.29-.06.46-.07.32-.01.57.03.77.11.2.09.36.21.47.38.11.16.19.36.23.59s.06.48.06.75v2.3l-.73.02v-2.14c0-.24-.01-.45-.04-.62-.02-.17-.07-.32-.13-.43-.07-.11-.15-.2-.27-.25-.11-.05-.26-.07-.44-.07-.25,0-.45.05-.61.12-.16.07-.27.13-.33.19.04.14.07.28.09.45.02.16.03.33.03.51v2.3l-.73.02v-2.14c0-.24-.01-.45-.04-.62-.03-.17-.07-.32-.14-.43-.07-.11-.15-.2-.27-.25-.11-.05-.26-.07-.43-.07-.07,0-.15,0-.24.02-.08,0-.16.02-.24.03-.08.01-.15.02-.21.03-.06.01-.11.02-.13.03v3.46l-.73.02v-3.98Z"/><path class="cls-9" d="M750.36,66.18c.06.02.13.05.22.07.09.02.18.03.27.03.29,0,.51-.08.68-.21.16-.13.31-.35.44-.64-.33-.62-.64-1.28-.93-1.98-.29-.7-.52-1.41-.71-2.12l.79-.03c.06.23.13.49.21.76s.17.55.27.83c.1.29.21.57.32.86s.24.56.36.82c.2-.56.37-1.11.52-1.66.15-.55.29-1.11.42-1.68l.76-.02c-.19.78-.4,1.53-.63,2.25s-.48,1.39-.75,2.02c-.11.24-.21.45-.33.62s-.24.32-.37.43c-.14.11-.29.2-.46.26s-.36.09-.58.1c-.06,0-.12,0-.18,0-.06,0-.12-.01-.19-.03-.06-.01-.12-.02-.17-.04-.05-.01-.09-.03-.11-.04l.13-.6Z"/><path class="cls-9" d="M755.49,61.34c.09-.06.22-.13.41-.19.18-.07.39-.11.63-.11.29,0,.56.03.78.13.23.1.42.24.58.42.16.18.28.41.36.67.08.26.12.55.12.86,0,.33-.05.63-.15.9-.1.27-.24.5-.41.69-.18.19-.39.34-.65.45-.25.11-.54.17-.85.18-.34.01-.64,0-.91-.04-.26-.04-.48-.08-.65-.12v-5.87l.73-.15v2.2ZM755.49,64.62c.07.02.18.04.31.05.13.01.3.02.5.01.39-.01.71-.15.95-.42.24-.27.35-.64.35-1.12,0-.21-.02-.41-.06-.59-.04-.18-.11-.34-.2-.47s-.22-.23-.37-.3c-.15-.07-.33-.1-.54-.1-.2,0-.38.05-.55.12-.17.07-.3.15-.39.23v2.59Z"/><path class="cls-9" d="M759.17,63.1c0-.36.05-.68.16-.95.11-.27.24-.5.42-.69.17-.18.37-.32.6-.42.23-.1.46-.15.69-.16.55-.02.97.14,1.27.48.29.33.44.85.44,1.56v.12c0,.05,0,.1,0,.14l-2.8.09c.03.42.15.74.37.96s.55.31,1.01.3c.26,0,.47-.04.65-.09.18-.05.31-.1.4-.14l.1.61c-.09.05-.25.11-.47.16s-.48.09-.76.1c-.36.01-.67-.03-.93-.13-.26-.1-.47-.24-.64-.42-.17-.18-.29-.4-.37-.66-.08-.26-.12-.54-.12-.85ZM761.98,62.61c0-.33-.08-.6-.25-.81-.17-.21-.41-.31-.71-.3-.17,0-.32.04-.45.11s-.24.16-.33.27c-.09.11-.16.23-.21.37-.05.14-.08.28-.1.42l2.03-.06Z"/><path class="cls-9" d="M764.75,64.43c.3,0,.52-.06.67-.14.14-.08.22-.21.22-.39s-.07-.32-.21-.42c-.14-.1-.38-.21-.7-.33-.16-.06-.31-.12-.45-.18-.14-.06-.27-.13-.37-.22-.11-.09-.19-.19-.25-.32-.06-.12-.09-.28-.09-.46,0-.36.13-.65.4-.88s.63-.34,1.1-.35c.12,0,.23,0,.35,0,.12,0,.22.02.32.04.1.02.19.03.26.05s.14.04.18.05l-.13.63c-.08-.04-.2-.08-.37-.12-.17-.04-.37-.06-.61-.05-.2,0-.38.05-.54.14-.15.09-.23.22-.23.39,0,.09.02.17.05.23.03.07.09.13.16.18.07.05.16.1.26.15s.23.09.38.14c.19.07.37.13.52.2.15.07.28.14.39.24.11.09.19.2.25.33s.09.3.09.49c0,.38-.14.67-.42.87-.28.2-.68.31-1.2.33-.36.01-.65,0-.85-.06-.2-.05-.34-.1-.42-.12l.13-.63c.08.03.22.07.4.13.18.06.43.08.73.07Z"/><path class="cls-9" d="M768,60.76l1.55-.05v.61l-1.55.05v1.89c0,.2.02.37.05.51s.08.24.14.31c.06.07.14.13.24.15.09.03.2.04.33.04.22,0,.4-.04.53-.09.13-.05.23-.09.28-.12l.14.6c-.07.04-.2.09-.39.15-.18.06-.39.1-.63.1-.28,0-.51-.02-.69-.08-.18-.07-.33-.17-.44-.31-.11-.14-.19-.31-.23-.52-.04-.21-.07-.45-.07-.72v-3.66l.73-.15v1.27Z"/><path class="cls-9" d="M771.43,64.22c.3,0,.52-.06.67-.14.14-.08.22-.21.22-.39s-.07-.32-.21-.42c-.14-.1-.38-.21-.7-.33-.16-.06-.31-.12-.45-.18-.14-.06-.27-.13-.37-.22-.11-.09-.19-.19-.25-.32-.06-.12-.09-.28-.09-.46,0-.36.13-.65.4-.88s.63-.34,1.1-.35c.12,0,.23,0,.35,0,.12,0,.22.02.32.04.1.02.19.03.26.05s.14.04.18.05l-.13.63c-.08-.04-.2-.08-.37-.12-.17-.04-.37-.06-.61-.05-.2,0-.38.05-.54.14-.15.09-.23.22-.23.39,0,.09.02.17.05.23.03.07.09.13.16.18.07.05.16.1.26.15s.23.09.38.14c.19.07.37.13.52.2.15.07.28.14.39.24.11.09.19.2.25.33s.09.3.09.49c0,.38-.14.67-.42.87-.28.2-.68.31-1.2.33-.36.01-.65,0-.85-.06-.2-.05-.34-.1-.42-.12l.13-.63c.08.03.22.07.4.13.18.06.43.08.73.07Z"/><path class="cls-9" d="M774.36,59.82c-.13,0-.24-.04-.34-.12s-.14-.2-.14-.35.05-.27.14-.36.2-.14.34-.14.24.04.33.12.14.2.14.35-.05.27-.14.35-.2.14-.33.14ZM774.73,64.64l-.73.02v-4.1l.73-.02v4.1Z"/><path class="cls-9" d="M776.67,60.48l1.55-.05v.61l-1.55.05v1.89c0,.2.02.37.05.51s.08.24.14.31c.06.07.14.13.24.15.09.03.2.04.33.04.22,0,.4-.04.53-.09.13-.05.23-.09.28-.12l.14.6c-.07.04-.2.09-.39.15-.18.06-.39.1-.63.1-.28,0-.51-.02-.69-.08-.18-.07-.33-.17-.44-.31-.11-.14-.19-.31-.23-.52-.04-.21-.07-.45-.07-.72v-3.66l.73-.15v1.27Z"/><path class="cls-9" d="M778.85,62.47c0-.36.05-.68.16-.95.11-.27.24-.5.42-.69.17-.18.37-.32.6-.42.23-.1.46-.15.69-.16.55-.02.97.14,1.27.48.29.33.44.85.44,1.56v.12c0,.05,0,.1,0,.14l-2.8.09c.03.42.15.74.37.96s.55.31,1.01.3c.26,0,.47-.04.65-.09.18-.05.31-.1.4-.14l.1.61c-.09.05-.25.11-.47.16s-.48.09-.76.1c-.36.01-.67-.03-.93-.13-.26-.1-.47-.24-.64-.42-.17-.18-.29-.4-.37-.66-.08-.26-.12-.54-.12-.85ZM781.66,61.98c0-.33-.08-.6-.25-.81-.17-.21-.41-.31-.71-.3-.17,0-.32.04-.45.11s-.24.16-.33.27c-.09.11-.16.23-.21.37-.05.14-.08.28-.1.42l2.03-.06Z"/><path class="cls-9" d="M784.35,63.91c0,.14-.05.27-.14.37-.09.11-.22.16-.39.17s-.29-.04-.39-.15c-.09-.1-.14-.22-.14-.37s.05-.27.14-.37c.09-.11.22-.16.39-.17s.29.04.39.15c.09.1.14.22.14.37Z"/><path class="cls-9" d="M786.1,60.18l1.55-.05v.61l-1.55.05v1.89c0,.2.02.37.05.51s.08.24.14.31c.06.07.14.13.24.15.09.03.2.04.33.04.22,0,.4-.04.53-.09.13-.05.23-.09.28-.12l.14.6c-.07.04-.2.09-.39.15-.18.06-.39.1-.63.1-.28,0-.51-.02-.69-.08-.18-.07-.33-.17-.44-.31-.11-.14-.19-.31-.23-.52-.04-.21-.07-.45-.07-.72v-3.66l.73-.15v1.27Z"/><path class="cls-9" d="M788.59,64.2v-5.99l.73-.15v2.1c.14-.06.28-.1.44-.14.15-.03.31-.05.46-.06.33-.01.6.03.81.11s.39.21.52.37c.13.16.22.36.27.59.05.23.08.48.08.76v2.3l-.73.02v-2.14c0-.25-.02-.47-.05-.64-.03-.18-.09-.32-.17-.43s-.18-.18-.32-.23c-.13-.05-.29-.07-.49-.06-.08,0-.16.01-.24.02-.08.01-.16.03-.24.04-.08.02-.14.03-.2.05s-.1.03-.13.04v3.4l-.73.02Z"/><path class="cls-9" d="M793.09,60.08c.17-.05.39-.1.67-.16.28-.06.59-.09.96-.1.26,0,.48.02.66.09.18.07.33.16.45.3.04-.03.09-.07.17-.12s.18-.1.29-.15c.12-.05.24-.09.39-.13.14-.04.29-.06.46-.07.32-.01.57.03.77.11.2.09.36.21.47.38.11.16.19.36.23.59.04.23.06.48.06.75v2.3l-.73.02v-2.14c0-.24-.01-.45-.04-.62-.02-.17-.07-.32-.13-.43-.07-.11-.15-.2-.27-.25-.11-.05-.26-.07-.44-.07-.25,0-.45.05-.61.12-.16.07-.27.13-.33.19.04.14.07.28.09.45.02.16.03.33.03.51v2.3l-.73.02v-2.14c0-.24-.01-.45-.04-.62-.03-.17-.07-.32-.14-.43-.07-.11-.15-.2-.27-.25-.11-.05-.26-.07-.43-.07-.07,0-.15,0-.24.02-.08,0-.16.02-.24.03-.08.01-.15.02-.21.03s-.11.02-.13.03v3.46l-.73.02v-3.98Z"/><path class="cls-25" d="M1142.95,276.8l27.18-15.87s-.28-5.4-5.94-6.6l-27.49,13.19s6.79.89,6.25,9.28Z"/><polygon class="cls-12" points="1170.13 260.93 1249.06 267.52 1236.88 273.56 1162.19 265.57 1170.13 260.93"/></g></svg>